<svg width="57" height="43" viewBox="0 0 57 43" version="1.1" xmlns="http://www.w3.org/2000/svg" xmlns:xlink="http://www.w3.org/1999/xlink">
<title>folded-newspaper</title>
<desc>Created using Figma</desc>
<g id="Canvas" transform="translate(-124 -3456)">
<g id="folded-newspaper">
<g id="Vector">
<use xlink:href="#path0_fill" transform="matrix(1 0 0 -1 125 3498)" fill="#304A52"/>
<mask id="mask0_outline_out">
<rect id="mask0_outline_inv" fill="white" x="-1" y="-1" width="57" height="43" transform="matrix(1 0 0 -1 125 3498)"/>
<use xlink:href="#path0_fill" fill="black" transform="matrix(1 0 0 -1 125 3498)"/>
</mask>
<g mask="url(#mask0_outline_out)">
<use xlink:href="#path1_stroke_2x" transform="matrix(1 0 0 -1 125 3498)" fill="#304A52"/>
</g>
</g>
</g>
</g>
<defs>
<path id="path0_fill" d="M 54.4363 4.43259L 49.0141 4.43259L 49.0141 0.556439C 49.0141 0.249062 48.7618 1.32453e-07 48.4504 1.32453e-07L 0.563678 1.32453e-07C 0.252302 1.32453e-07 0 0.249062 0 0.556439L 0 37.3795C 0 39.3758 1.64538 41 3.66763 41L 51.4433 41C 53.4044 41 55 39.4251 55 37.4891L 55 4.98903C 55 4.68166 54.7477 4.43259 54.4363 4.43259ZM 53.8726 37.4891C 53.8726 38.8114 52.7828 39.8871 51.4433 39.8871C 50.1038 39.8871 49.0141 38.8114 49.0141 37.4891L 49.0141 35.9481C 49.0141 35.6407 48.7618 35.3917 48.4504 35.3917C 48.139 35.3917 47.8867 35.6407 47.8867 35.9481L 47.8867 37.4891C 47.8867 38.4157 48.2529 39.259 48.849 39.8871L 3.66763 39.8871C 2.26689 39.8871 1.12736 38.7621 1.12736 37.3794L 1.12736 1.11288L 47.8868 1.11288L 47.8868 30.7514C 47.8868 31.0588 48.1391 31.3078 48.4505 31.3078C 48.7619 31.3078 49.0142 31.0588 49.0142 30.7514L 49.0142 5.54547L 53.8728 5.54547L 53.8728 37.4891L 53.8726 37.4891ZM 23.0106 7.38707L 5.05304 7.38707C 4.74166 7.38707 4.48936 7.63613 4.48936 7.9435L 4.48936 21.2381C 4.48936 21.5454 4.74166 21.7945 5.05304 21.7945L 23.0106 21.7945C 23.322 21.7945 23.5743 21.5454 23.5743 21.2381L 23.5743 7.9435C 23.5743 7.63624 23.322 7.38707 23.0106 7.38707ZM 22.4469 20.6816L 5.61671 20.6816L 5.61671 8.49994L 22.4469 8.49994L 22.4469 20.6816ZM 25.4398 7.9435C 25.4398 7.63613 25.6921 7.38707 26.0035 7.38707L 43.961 7.38707C 44.2724 7.38707 44.5247 7.63613 44.5247 7.9435C 44.5247 8.25088 44.2724 8.49994 43.961 8.49994L 26.0035 8.49994C 25.6921 8.49994 25.4398 8.25088 25.4398 7.9435ZM 25.4398 12.3763C 25.4398 12.0689 25.6921 11.8199 26.0035 11.8199L 43.961 11.8199C 44.2724 11.8199 44.5247 12.0689 44.5247 12.3763C 44.5247 12.6837 44.2724 12.9328 43.961 12.9328L 26.0035 12.9328C 25.6921 12.9328 25.4398 12.6836 25.4398 12.3763ZM 25.4398 16.809C 25.4398 16.5016 25.6921 16.2526 26.0035 16.2526L 43.961 16.2526C 44.2724 16.2526 44.5247 16.5016 44.5247 16.809C 44.5247 17.1164 44.2724 17.3655 43.961 17.3655L 26.0035 17.3655C 25.6921 17.3655 25.4398 17.1163 25.4398 16.809ZM 26.0035 21.7981C 25.6921 21.7981 25.4398 21.549 25.4398 21.2416C 25.4398 20.9342 25.6921 20.6852 26.0035 20.6852L 43.961 20.6852C 44.2724 20.6852 44.5247 20.9342 44.5247 21.2416C 44.5247 21.549 44.2724 21.7981 43.961 21.7981L 26.0035 21.7981ZM 23.5743 25.6743C 23.5743 25.9817 23.322 26.2308 23.0106 26.2308L 5.05304 26.2308C 4.74166 26.2308 4.48936 25.9817 4.48936 25.6743C 4.48936 25.3669 4.74166 25.1179 5.05304 25.1179L 23.0106 25.1179C 23.322 25.1179 23.5743 25.3669 23.5743 25.6743ZM 23.5743 30.1036C 23.5743 30.411 23.322 30.66 23.0106 30.66L 5.05304 30.66C 4.74166 30.66 4.48936 30.411 4.48936 30.1036C 4.48936 29.7962 4.74166 29.5471 5.05304 29.5471L 23.0106 29.5471C 23.322 29.5471 23.5743 29.7962 23.5743 30.1036ZM 23.5743 34.5327C 23.5743 34.8401 23.322 35.0892 23.0106 35.0892L 5.05304 35.0892C 4.74166 35.0892 4.48936 34.8401 4.48936 34.5327C 4.48936 34.2254 4.74166 33.9763 5.05304 33.9763L 23.0106 33.9763C 23.322 33.9763 23.5743 34.2255 23.5743 34.5327ZM 44.7386 25.6743C 44.7386 25.9817 44.4863 26.2308 44.1749 26.2308L 26.2174 26.2308C 25.906 26.2308 25.6537 25.9817 25.6537 25.6743C 25.6537 25.3669 25.906 25.1179 26.2174 25.1179L 44.1749 25.1179C 44.4862 25.1179 44.7386 25.3669 44.7386 25.6743ZM 44.7386 30.1036C 44.7386 30.411 44.4863 30.66 44.1749 30.66L 26.2174 30.66C 25.906 30.66 25.6537 30.411 25.6537 30.1036C 25.6537 29.7962 25.906 29.5471 26.2174 29.5471L 44.1749 29.5471C 44.4862 29.5471 44.7386 29.7962 44.7386 30.1036ZM 44.7386 34.5327C 44.7386 34.8401 44.4863 35.0892 44.1749 35.0892L 26.2174 35.0892C 25.906 35.0892 25.6537 34.8401 25.6537 34.5327C 25.6537 34.2254 25.906 33.9763 26.2174 33.9763L 44.1749 33.9763C 44.4862 33.9763 44.7386 34.2255 44.7386 34.5327Z"/>
<path id="path1_stroke_2x" d="M 49.0141 4.43259L 48.0141 4.43259L 48.0141 5.43259L 49.0141 5.43259L 49.0141 4.43259ZM 53.8726 37.4891L 53.8726 36.4891L 52.8726 36.4891L 52.8726 37.4891L 53.8726 37.4891ZM 48.849 39.8871L 48.849 40.8871L 51.1768 40.8871L 49.5744 39.1987L 48.849 39.8871ZM 1.12736 1.11288L 1.12736 0.112878L 0.127356 0.112878L 0.127356 1.11288L 1.12736 1.11288ZM 47.8868 1.11288L 48.8868 1.11288L 48.8868 0.112878L 47.8868 0.112878L 47.8868 1.11288ZM 49.0142 5.54547L 49.0142 4.54547L 48.0142 4.54547L 48.0142 5.54547L 49.0142 5.54547ZM 53.8728 5.54547L 54.8728 5.54547L 54.8728 4.54547L 53.8728 4.54547L 53.8728 5.54547ZM 53.8728 37.4891L 53.8728 38.4891L 54.8728 38.4891L 54.8728 37.4891L 53.8728 37.4891ZM 22.4469 20.6816L 22.4469 21.6816L 23.4469 21.6816L 23.4469 20.6816L 22.4469 20.6816ZM 5.61671 20.6816L 4.61671 20.6816L 4.61671 21.6816L 5.61671 21.6816L 5.61671 20.6816ZM 5.61671 8.49994L 5.61671 7.49994L 4.61671 7.49994L 4.61671 8.49994L 5.61671 8.49994ZM 22.4469 8.49994L 23.4469 8.49994L 23.4469 7.49994L 22.4469 7.49994L 22.4469 8.49994ZM 54.4363 3.43259L 49.0141 3.43259L 49.0141 5.43259L 54.4363 5.43259L 54.4363 3.43259ZM 50.0141 4.43259L 50.0141 0.556439L 48.0141 0.556439L 48.0141 4.43259L 50.0141 4.43259ZM 50.0141 0.556439C 50.0141 -0.315371 49.3018 -1 48.4504 -1L 48.4504 1C 48.2217 1 48.0141 0.813494 48.0141 0.556439L 50.0141 0.556439ZM 48.4504 -1L 0.563678 -1L 0.563678 1L 48.4504 1L 48.4504 -1ZM 0.563678 -1C -0.287756 -1 -1 -0.315371 -1 0.556439L 1 0.556439C 1 0.813494 0.792361 1 0.563678 1L 0.563678 -1ZM -1 0.556439L -1 37.3795L 1 37.3795L 1 0.556439L -1 0.556439ZM -1 37.3795C -1 39.9402 1.10532 42 3.66763 42L 3.66763 40C 2.18544 40 1 38.8113 1 37.3795L -1 37.3795ZM 3.66763 42L 51.4433 42L 51.4433 40L 3.66763 40L 3.66763 42ZM 51.4433 42C 53.9445 42 56 39.9895 56 37.4891L 54 37.4891C 54 38.8606 52.8644 40 51.4433 40L 51.4433 42ZM 56 37.4891L 56 4.98903L 54 4.98903L 54 37.4891L 56 37.4891ZM 56 4.98903C 56 4.11723 55.2878 3.43259 54.4363 3.43259L 54.4363 5.43259C 54.2076 5.43259 54 5.24609 54 4.98903L 56 4.98903ZM 52.8726 37.4891C 52.8726 38.2469 52.2428 38.8871 51.4433 38.8871L 51.4433 40.8871C 53.3228 40.8871 54.8726 39.3759 54.8726 37.4891L 52.8726 37.4891ZM 51.4433 38.8871C 50.6438 38.8871 50.0141 38.247 50.0141 37.4891L 48.0141 37.4891C 48.0141 39.3758 49.5637 40.8871 51.4433 40.8871L 51.4433 38.8871ZM 50.0141 37.4891L 50.0141 35.9481L 48.0141 35.9481L 48.0141 37.4891L 50.0141 37.4891ZM 50.0141 35.9481C 50.0141 35.0763 49.3018 34.3917 48.4504 34.3917L 48.4504 36.3917C 48.2217 36.3917 48.0141 36.2051 48.0141 35.9481L 50.0141 35.9481ZM 48.4504 34.3917C 47.599 34.3917 46.8867 35.0763 46.8867 35.9481L 48.8867 35.9481C 48.8867 36.2051 48.6791 36.3917 48.4504 36.3917L 48.4504 34.3917ZM 46.8867 35.9481L 46.8867 37.4891L 48.8867 37.4891L 48.8867 35.9481L 46.8867 35.9481ZM 46.8867 37.4891C 46.8867 38.6851 47.3605 39.7714 48.1237 40.5755L 49.5744 39.1987C 49.1452 38.7466 48.8867 38.1463 48.8867 37.4891L 46.8867 37.4891ZM 48.849 38.8871L 3.66763 38.8871L 3.66763 40.8871L 48.849 40.8871L 48.849 38.8871ZM 3.66763 38.8871C 2.80701 38.8871 2.12736 38.1977 2.12736 37.3794L 0.127356 37.3794C 0.127356 39.3265 1.72677 40.8871 3.66763 40.8871L 3.66763 38.8871ZM 2.12736 37.3794L 2.12736 1.11288L 0.127356 1.11288L 0.127356 37.3794L 2.12736 37.3794ZM 1.12736 2.11288L 47.8868 2.11288L 47.8868 0.112878L 1.12736 0.112878L 1.12736 2.11288ZM 46.8868 1.11288L 46.8868 30.7514L 48.8868 30.7514L 48.8868 1.11288L 46.8868 1.11288ZM 46.8868 30.7514C 46.8868 31.6232 47.5991 32.3078 48.4505 32.3078L 48.4505 30.3078C 48.6792 30.3078 48.8868 30.4943 48.8868 30.7514L 46.8868 30.7514ZM 48.4505 32.3078C 49.3019 32.3078 50.0142 31.6232 50.0142 30.7514L 48.0142 30.7514C 48.0142 30.4943 48.2218 30.3078 48.4505 30.3078L 48.4505 32.3078ZM 50.0142 30.7514L 50.0142 5.54547L 48.0142 5.54547L 48.0142 30.7514L 50.0142 30.7514ZM 49.0142 6.54547L 53.8728 6.54547L 53.8728 4.54547L 49.0142 4.54547L 49.0142 6.54547ZM 52.8728 5.54547L 52.8728 37.4891L 54.8728 37.4891L 54.8728 5.54547L 52.8728 5.54547ZM 53.8728 36.4891L 53.8726 36.4891L 53.8726 38.4891L 53.8728 38.4891L 53.8728 36.4891ZM 23.0106 6.38707L 5.05304 6.38707L 5.05304 8.38706L 23.0106 8.38706L 23.0106 6.38707ZM 5.05304 6.38707C 4.2016 6.38707 3.48936 7.07169 3.48936 7.9435L 5.48936 7.9435C 5.48936 8.20056 5.28172 8.38706 5.05304 8.38706L 5.05304 6.38707ZM 3.48936 7.9435L 3.48936 21.2381L 5.48936 21.2381L 5.48936 7.9435L 3.48936 7.9435ZM 3.48936 21.2381C 3.48936 22.1099 4.2016 22.7945 5.05304 22.7945L 5.05304 20.7945C 5.28172 20.7945 5.48936 20.981 5.48936 21.2381L 3.48936 21.2381ZM 5.05304 22.7945L 23.0106 22.7945L 23.0106 20.7945L 5.05304 20.7945L 5.05304 22.7945ZM 23.0106 22.7945C 23.862 22.7945 24.5743 22.1099 24.5743 21.2381L 22.5743 21.2381C 22.5743 20.981 22.7819 20.7945 23.0106 20.7945L 23.0106 22.7945ZM 24.5743 21.2381L 24.5743 7.9435L 22.5743 7.9435L 22.5743 21.2381L 24.5743 21.2381ZM 24.5743 7.9435C 24.5743 7.07193 23.8621 6.38707 23.0106 6.38707L 23.0106 8.38706C 22.7818 8.38706 22.5743 8.20054 22.5743 7.9435L 24.5743 7.9435ZM 22.4469 19.6816L 5.61671 19.6816L 5.61671 21.6816L 22.4469 21.6816L 22.4469 19.6816ZM 6.61671 20.6816L 6.61671 8.49994L 4.61671 8.49994L 4.61671 20.6816L 6.61671 20.6816ZM 5.61671 9.49994L 22.4469 9.49994L 22.4469 7.49994L 5.61671 7.49994L 5.61671 9.49994ZM 21.4469 8.49994L 21.4469 20.6816L 23.4469 20.6816L 23.4469 8.49994L 21.4469 8.49994ZM 26.4398 7.9435C 26.4398 8.20056 26.2322 8.38706 26.0035 8.38706L 26.0035 6.38707C 25.1521 6.38707 24.4398 7.07169 24.4398 7.9435L 26.4398 7.9435ZM 26.0035 8.38706L 43.961 8.38706L 43.961 6.38707L 26.0035 6.38707L 26.0035 8.38706ZM 43.961 8.38706C 43.7324 8.38706 43.5247 8.20056 43.5247 7.9435L 45.5247 7.9435C 45.5247 7.07169 44.8125 6.38707 43.961 6.38707L 43.961 8.38706ZM 43.5247 7.9435C 43.5247 7.68645 43.7324 7.49994 43.961 7.49994L 43.961 9.49994C 44.8125 9.49994 45.5247 8.81531 45.5247 7.9435L 43.5247 7.9435ZM 43.961 7.49994L 26.0035 7.49994L 26.0035 9.49994L 43.961 9.49994L 43.961 7.49994ZM 26.0035 7.49994C 26.2322 7.49994 26.4398 7.68645 26.4398 7.9435L 24.4398 7.9435C 24.4398 8.81531 25.1521 9.49994 26.0035 9.49994L 26.0035 7.49994ZM 26.4398 12.3763C 26.4398 12.6334 26.2322 12.8199 26.0035 12.8199L 26.0035 10.8199C 25.1521 10.8199 24.4398 11.5045 24.4398 12.3763L 26.4398 12.3763ZM 26.0035 12.8199L 43.961 12.8199L 43.961 10.8199L 26.0035 10.8199L 26.0035 12.8199ZM 43.961 12.8199C 43.7324 12.8199 43.5247 12.6334 43.5247 12.3763L 45.5247 12.3763C 45.5247 11.5045 44.8125 10.8199 43.961 10.8199L 43.961 12.8199ZM 43.5247 12.3763C 43.5247 12.1193 43.7324 11.9328 43.961 11.9328L 43.961 13.9328C 44.8125 13.9328 45.5247 13.2481 45.5247 12.3763L 43.5247 12.3763ZM 43.961 11.9328L 26.0035 11.9328L 26.0035 13.9328L 43.961 13.9328L 43.961 11.9328ZM 26.0035 11.9328C 26.2323 11.9328 26.4398 12.1193 26.4398 12.3763L 24.4398 12.3763C 24.4398 13.2479 25.1519 13.9328 26.0035 13.9328L 26.0035 11.9328ZM 26.4398 16.809C 26.4398 17.0661 26.2322 17.2526 26.0035 17.2526L 26.0035 15.2526C 25.1521 15.2526 24.4398 15.9372 24.4398 16.809L 26.4398 16.809ZM 26.0035 17.2526L 43.961 17.2526L 43.961 15.2526L 26.0035 15.2526L 26.0035 17.2526ZM 43.961 17.2526C 43.7324 17.2526 43.5247 17.0661 43.5247 16.809L 45.5247 16.809C 45.5247 15.9372 44.8125 15.2526 43.961 15.2526L 43.961 17.2526ZM 43.5247 16.809C 43.5247 16.552 43.7324 16.3655 43.961 16.3655L 43.961 18.3655C 44.8125 18.3655 45.5247 17.6808 45.5247 16.809L 43.5247 16.809ZM 43.961 16.3655L 26.0035 16.3655L 26.0035 18.3655L 43.961 18.3655L 43.961 16.3655ZM 26.0035 16.3655C 26.2323 16.3655 26.4398 16.552 26.4398 16.809L 24.4398 16.809C 24.4398 17.6806 25.1519 18.3655 26.0035 18.3655L 26.0035 16.3655ZM 26.0035 20.7981C 26.2322 20.7981 26.4398 20.9846 26.4398 21.2416L 24.4398 21.2416C 24.4398 22.1134 25.1521 22.7981 26.0035 22.7981L 26.0035 20.7981ZM 26.4398 21.2416C 26.4398 21.4987 26.2322 21.6852 26.0035 21.6852L 26.0035 19.6852C 25.1521 19.6852 24.4398 20.3698 24.4398 21.2416L 26.4398 21.2416ZM 26.0035 21.6852L 43.961 21.6852L 43.961 19.6852L 26.0035 19.6852L 26.0035 21.6852ZM 43.961 21.6852C 43.7324 21.6852 43.5247 21.4987 43.5247 21.2416L 45.5247 21.2416C 45.5247 20.3698 44.8125 19.6852 43.961 19.6852L 43.961 21.6852ZM 43.5247 21.2416C 43.5247 20.9846 43.7324 20.7981 43.961 20.7981L 43.961 22.7981C 44.8125 22.7981 45.5247 22.1134 45.5247 21.2416L 43.5247 21.2416ZM 43.961 20.7981L 26.0035 20.7981L 26.0035 22.7981L 43.961 22.7981L 43.961 20.7981ZM 22.5743 25.6743C 22.5743 25.4173 22.7819 25.2308 23.0106 25.2308L 23.0106 27.2308C 23.862 27.2308 24.5743 26.5461 24.5743 25.6743L 22.5743 25.6743ZM 23.0106 25.2308L 5.05304 25.2308L 5.05304 27.2308L 23.0106 27.2308L 23.0106 25.2308ZM 5.05304 25.2308C 5.28172 25.2308 5.48936 25.4173 5.48936 25.6743L 3.48936 25.6743C 3.48936 26.5461 4.2016 27.2308 5.05304 27.2308L 5.05304 25.2308ZM 5.48936 25.6743C 5.48936 25.9314 5.28172 26.1179 5.05304 26.1179L 5.05304 24.1179C 4.2016 24.1179 3.48936 24.8025 3.48936 25.6743L 5.48936 25.6743ZM 5.05304 26.1179L 23.0106 26.1179L 23.0106 24.1179L 5.05304 24.1179L 5.05304 26.1179ZM 23.0106 26.1179C 22.7819 26.1179 22.5743 25.9314 22.5743 25.6743L 24.5743 25.6743C 24.5743 24.8025 23.862 24.1179 23.0106 24.1179L 23.0106 26.1179ZM 22.5743 30.1036C 22.5743 29.8465 22.7819 29.66 23.0106 29.66L 23.0106 31.66C 23.862 31.66 24.5743 30.9754 24.5743 30.1036L 22.5743 30.1036ZM 23.0106 29.66L 5.05304 29.66L 5.05304 31.66L 23.0106 31.66L 23.0106 29.66ZM 5.05304 29.66C 5.28172 29.66 5.48936 29.8465 5.48936 30.1036L 3.48936 30.1036C 3.48936 30.9754 4.2016 31.66 5.05304 31.66L 5.05304 29.66ZM 5.48936 30.1036C 5.48936 30.3606 5.28172 30.5471 5.05304 30.5471L 5.05304 28.5471C 4.2016 28.5471 3.48936 29.2318 3.48936 30.1036L 5.48936 30.1036ZM 5.05304 30.5471L 23.0106 30.5471L 23.0106 28.5471L 5.05304 28.5471L 5.05304 30.5471ZM 23.0106 30.5471C 22.7819 30.5471 22.5743 30.3606 22.5743 30.1036L 24.5743 30.1036C 24.5743 29.2318 23.862 28.5471 23.0106 28.5471L 23.0106 30.5471ZM 22.5743 34.5327C 22.5743 34.2757 22.7819 34.0892 23.0106 34.0892L 23.0106 36.0892C 23.862 36.0892 24.5743 35.4045 24.5743 34.5327L 22.5743 34.5327ZM 23.0106 34.0892L 5.05304 34.0892L 5.05304 36.0892L 23.0106 36.0892L 23.0106 34.0892ZM 5.05304 34.0892C 5.28172 34.0892 5.48936 34.2757 5.48936 34.5327L 3.48936 34.5327C 3.48936 35.4045 4.2016 36.0892 5.05304 36.0892L 5.05304 34.0892ZM 5.48936 34.5327C 5.48936 34.7898 5.28172 34.9763 5.05304 34.9763L 5.05304 32.9763C 4.2016 32.9763 3.48936 33.6609 3.48936 34.5327L 5.48936 34.5327ZM 5.05304 34.9763L 23.0106 34.9763L 23.0106 32.9763L 5.05304 32.9763L 5.05304 34.9763ZM 23.0106 34.9763C 22.7818 34.9763 22.5743 34.7898 22.5743 34.5327L 24.5743 34.5327C 24.5743 33.6612 23.8622 32.9763 23.0106 32.9763L 23.0106 34.9763ZM 43.7386 25.6743C 43.7386 25.4173 43.9462 25.2308 44.1749 25.2308L 44.1749 27.2308C 45.0263 27.2308 45.7386 26.5461 45.7386 25.6743L 43.7386 25.6743ZM 44.1749 25.2308L 26.2174 25.2308L 26.2174 27.2308L 44.1749 27.2308L 44.1749 25.2308ZM 26.2174 25.2308C 26.446 25.2308 26.6537 25.4173 26.6537 25.6743L 24.6537 25.6743C 24.6537 26.5461 25.3659 27.2308 26.2174 27.2308L 26.2174 25.2308ZM 26.6537 25.6743C 26.6537 25.9314 26.446 26.1179 26.2174 26.1179L 26.2174 24.1179C 25.3659 24.1179 24.6537 24.8025 24.6537 25.6743L 26.6537 25.6743ZM 26.2174 26.1179L 44.1749 26.1179L 44.1749 24.1179L 26.2174 24.1179L 26.2174 26.1179ZM 44.1749 26.1179C 43.9462 26.1179 43.7386 25.9315 43.7386 25.6743L 45.7386 25.6743C 45.7386 24.8024 45.0261 24.1179 44.1749 24.1179L 44.1749 26.1179ZM 43.7386 30.1036C 43.7386 29.8465 43.9462 29.66 44.1749 29.66L 44.1749 31.66C 45.0263 31.66 45.7386 30.9754 45.7386 30.1036L 43.7386 30.1036ZM 44.1749 29.66L 26.2174 29.66L 26.2174 31.66L 44.1749 31.66L 44.1749 29.66ZM 26.2174 29.66C 26.446 29.66 26.6537 29.8465 26.6537 30.1036L 24.6537 30.1036C 24.6537 30.9754 25.3659 31.66 26.2174 31.66L 26.2174 29.66ZM 26.6537 30.1036C 26.6537 30.3606 26.446 30.5471 26.2174 30.5471L 26.2174 28.5471C 25.3659 28.5471 24.6537 29.2318 24.6537 30.1036L 26.6537 30.1036ZM 26.2174 30.5471L 44.1749 30.5471L 44.1749 28.5471L 26.2174 28.5471L 26.2174 30.5471ZM 44.1749 30.5471C 43.9462 30.5471 43.7386 30.3608 43.7386 30.1036L 45.7386 30.1036C 45.7386 29.2316 45.0261 28.5471 44.1749 28.5471L 44.1749 30.5471ZM 43.7386 34.5327C 43.7386 34.2757 43.9462 34.0892 44.1749 34.0892L 44.1749 36.0892C 45.0263 36.0892 45.7386 35.4045 45.7386 34.5327L 43.7386 34.5327ZM 44.1749 34.0892L 26.2174 34.0892L 26.2174 36.0892L 44.1749 36.0892L 44.1749 34.0892ZM 26.2174 34.0892C 26.446 34.0892 26.6537 34.2757 26.6537 34.5327L 24.6537 34.5327C 24.6537 35.4045 25.3659 36.0892 26.2174 36.0892L 26.2174 34.0892ZM 26.6537 34.5327C 26.6537 34.7898 26.446 34.9763 26.2174 34.9763L 26.2174 32.9763C 25.3659 32.9763 24.6537 33.6609 24.6537 34.5327L 26.6537 34.5327ZM 26.2174 34.9763L 44.1749 34.9763L 44.1749 32.9763L 26.2174 32.9763L 26.2174 34.9763ZM 44.1749 34.9763C 43.9461 34.9763 43.7386 34.7899 43.7386 34.5327L 45.7386 34.5327C 45.7386 33.661 45.0262 32.9763 44.1749 32.9763L 44.1749 34.9763Z"/>
</defs>
</svg>
