<svg width="23" height="17" viewBox="0 0 23 17" version="1.1" xmlns="http://www.w3.org/2000/svg" xmlns:xlink="http://www.w3.org/1999/xlink">
<title>folded-newspaper</title>
<desc>Created using Figma</desc>
<g id="Canvas" transform="translate(369 -2694)">
<g id="folded-newspaper">
<g id="Vector">
<use xlink:href="#path0_fill" transform="matrix(1 0 0 -1 -369 2711)" fill="#FFFFFF"/>
</g>
</g>
</g>
<defs>
<path id="path0_fill" d="M 22.7643 1.83791L 20.4968 1.83791L 20.4968 0.230719C 20.4968 0.10327 20.3913 5.49196e-08 20.2611 5.49196e-08L 0.23572 5.49196e-08C 0.105508 5.49196e-08 0 0.10327 0 0.230719L 0 15.4988C 0 16.3265 0.688067 17 1.53374 17L 21.5127 17C 22.3328 17 23 16.347 23 15.5443L 23 2.06862C 23 1.94117 22.8945 1.83791 22.7643 1.83791ZM 22.5286 15.5443C 22.5286 16.0925 22.0728 16.5386 21.5127 16.5386C 20.9525 16.5386 20.4968 16.0925 20.4968 15.5443L 20.4968 14.9053C 20.4968 14.7779 20.3913 14.6746 20.2611 14.6746C 20.1309 14.6746 20.0254 14.7779 20.0254 14.9053L 20.0254 15.5443C 20.0254 15.9284 20.1785 16.2781 20.4278 16.5386L 1.53374 16.5386C 0.947972 16.5386 0.47144 16.0721 0.47144 15.4988L 0.47144 0.461437L 20.0254 0.461437L 20.0254 12.7506C 20.0254 12.878 20.1309 12.9813 20.2611 12.9813C 20.3913 12.9813 20.4968 12.878 20.4968 12.7506L 20.4968 2.29934L 22.5286 2.29934L 22.5286 15.5443L 22.5286 15.5443ZM 9.62261 3.06293L 2.11309 3.06293C 1.98288 3.06293 1.87737 3.1662 1.87737 3.29365L 1.87737 8.80602C 1.87737 8.93347 1.98288 9.03674 2.11309 9.03674L 9.62261 9.03674C 9.75282 9.03674 9.85833 8.93347 9.85833 8.80602L 9.85833 3.29365C 9.85833 3.16624 9.75282 3.06293 9.62261 3.06293ZM 9.38689 8.57531L 2.34881 8.57531L 2.34881 3.52437L 9.38689 3.52437L 9.38689 8.57531ZM 10.6385 3.29365C 10.6385 3.1662 10.744 3.06293 10.8742 3.06293L 18.3837 3.06293C 18.5139 3.06293 18.6194 3.1662 18.6194 3.29365C 18.6194 3.4211 18.5139 3.52437 18.3837 3.52437L 10.8742 3.52437C 10.744 3.52437 10.6385 3.4211 10.6385 3.29365ZM 10.6385 5.13165C 10.6385 5.0042 10.744 4.90093 10.8742 4.90093L 18.3837 4.90093C 18.5139 4.90093 18.6194 5.0042 18.6194 5.13165C 18.6194 5.25909 18.5139 5.36236 18.3837 5.36236L 10.8742 5.36236C 10.744 5.36236 10.6385 5.25905 10.6385 5.13165ZM 10.6385 6.9696C 10.6385 6.84215 10.744 6.73888 10.8742 6.73888L 18.3837 6.73888C 18.5139 6.73888 18.6194 6.84215 18.6194 6.9696C 18.6194 7.09705 18.5139 7.20032 18.3837 7.20032L 10.8742 7.20032C 10.744 7.20032 10.6385 7.097 10.6385 6.9696ZM 10.8742 9.03822C 10.744 9.03822 10.6385 8.93495 10.6385 8.8075C 10.6385 8.68005 10.744 8.57678 10.8742 8.57678L 18.3837 8.57678C 18.5139 8.57678 18.6194 8.68005 18.6194 8.8075C 18.6194 8.93495 18.5139 9.03822 18.3837 9.03822L 10.8742 9.03822ZM 9.85833 10.6455C 9.85833 10.7729 9.75282 10.8762 9.62261 10.8762L 2.11309 10.8762C 1.98288 10.8762 1.87737 10.7729 1.87737 10.6455C 1.87737 10.518 1.98288 10.4147 2.11309 10.4147L 9.62261 10.4147C 9.75282 10.4147 9.85833 10.518 9.85833 10.6455ZM 9.85833 12.482C 9.85833 12.6094 9.75282 12.7127 9.62261 12.7127L 2.11309 12.7127C 1.98288 12.7127 1.87737 12.6094 1.87737 12.482C 1.87737 12.3545 1.98288 12.2513 2.11309 12.2513L 9.62261 12.2513C 9.75282 12.2513 9.85833 12.3545 9.85833 12.482ZM 9.85833 14.3184C 9.85833 14.4459 9.75282 14.5492 9.62261 14.5492L 2.11309 14.5492C 1.98288 14.5492 1.87737 14.4459 1.87737 14.3184C 1.87737 14.191 1.98288 14.0877 2.11309 14.0877L 9.62261 14.0877C 9.75282 14.0877 9.85833 14.191 9.85833 14.3184ZM 18.7089 10.6455C 18.7089 10.7729 18.6034 10.8762 18.4731 10.8762L 10.9636 10.8762C 10.8334 10.8762 10.7279 10.7729 10.7279 10.6455C 10.7279 10.518 10.8334 10.4147 10.9636 10.4147L 18.4731 10.4147C 18.6033 10.4147 18.7089 10.518 18.7089 10.6455ZM 18.7089 12.482C 18.7089 12.6094 18.6034 12.7127 18.4731 12.7127L 10.9636 12.7127C 10.8334 12.7127 10.7279 12.6094 10.7279 12.482C 10.7279 12.3545 10.8334 12.2513 10.9636 12.2513L 18.4731 12.2513C 18.6033 12.2513 18.7089 12.3545 18.7089 12.482ZM 18.7089 14.3184C 18.7089 14.4459 18.6034 14.5492 18.4731 14.5492L 10.9636 14.5492C 10.8334 14.5492 10.7279 14.4459 10.7279 14.3184C 10.7279 14.191 10.8334 14.0877 10.9636 14.0877L 18.4731 14.0877C 18.6033 14.0877 18.7089 14.191 18.7089 14.3184Z"/>
</defs>
</svg>
