<svg width="28" height="34" viewBox="0 0 28 34" version="1.1" xmlns="http://www.w3.org/2000/svg" xmlns:xlink="http://www.w3.org/1999/xlink">
<title>Vector</title>
<desc>Created using Figma</desc>
<g id="Canvas" transform="translate(-1311 -2261)">
<g id="Vector">
<use xlink:href="#path0_fill" transform="translate(1311 2261)" fill="#304A52"/>
</g>
</g>
<defs>
<path id="path0_fill" d="M 14 34C 15.8118 34 17.2941 32.47 17.2941 30.6L 10.7059 30.6C 10.7059 32.47 12.1882 34 14 34ZM 24.7059 23.8L 24.7059 14.45C 24.7059 9.18 21.2471 4.93 16.4706 3.74L 16.4706 2.55C 16.4706 1.19 15.3176 0 14 0C 12.6824 0 11.5294 1.19 11.5294 2.55L 11.5294 3.74C 6.75294 4.93 3.29412 9.18 3.29412 14.45L 3.29412 23.8L 0 27.2L 0 28.9L 28 28.9L 28 27.2L 24.7059 23.8Z"/>
</defs>
</svg>
