<svg width="26" height="16" viewBox="0 0 26 16" version="1.1" xmlns="http://www.w3.org/2000/svg" xmlns:xlink="http://www.w3.org/1999/xlink">
<title>eye (1)</title>
<desc>Created using Figma</desc>
<g id="Canvas" transform="translate(-221 -1733)">
<g id="eye (1)">
<g id="Group">
<g id="Group">
<g id="Vector">
<use xlink:href="#path0_fill" transform="translate(222 1734)" fill="#364A52"/>
<mask id="mask0_outline_out">
<rect id="mask0_outline_inv" fill="white" x="-1" y="-1" width="26" height="16" transform="translate(222 1734)"/>
<use xlink:href="#path0_fill" fill="black" transform="translate(222 1734)"/>
</mask>
<g mask="url(#mask0_outline_out)">
<use xlink:href="#path1_stroke_2x" transform="translate(222 1734)" fill="#364A52"/>
</g>
</g>
</g>
</g>
<g id="Group">
<g id="Group">
<g id="Vector">
<use xlink:href="#path2_fill" transform="translate(231.507 1738.43)" fill="#364A52"/>
<mask id="mask1_outline_out">
<rect id="mask1_outline_inv" fill="white" x="-1" y="-1" width="7" height="7" transform="translate(231.507 1738.43)"/>
<use xlink:href="#path2_fill" fill="black" transform="translate(231.507 1738.43)"/>
</mask>
<g mask="url(#mask1_outline_out)">
<use xlink:href="#path3_stroke_2x" transform="translate(231.507 1738.43)" fill="#364A52"/>
</g>
</g>
</g>
</g>
</g>
</g>
<defs>
<path id="path0_fill" d="M 23.6108 5.83712C 22.2639 4.05976 20.5191 2.5896 18.5654 1.5857C 16.5849 0.568093 14.4554 0.036672 12.2326 0.00196403C 12.2012 0.00147387 12.1699 0.000864556 12.1385 0.000555224C 12.0634 -0.000185058 11.9365 -0.000184843 11.8614 0.000555871C 11.83 0.000865074 11.7987 0.00147401 11.7674 0.00196402C 9.54461 0.0367093 7.41505 0.568084 5.4346 1.5857C 3.48081 2.5896 1.73617 4.05971 0.389178 5.83712C -0.129726 6.52181 -0.129726 7.47819 0.389178 8.16288C 1.73613 9.94024 3.48081 11.4104 5.4346 12.4143C 7.41503 13.4319 9.54453 13.9633 11.7673 13.998C 11.7987 13.9985 11.8301 13.9991 11.8614 13.9994C 11.9366 14.0002 12.0635 14.0002 12.1386 13.9994C 12.1699 13.9991 12.2012 13.9985 12.2326 13.998C 14.4553 13.9633 16.5849 13.4319 18.5654 12.4143C 20.5191 11.4104 22.2638 9.94029 23.6108 8.16288C 24.1297 7.4781 24.1297 6.52181 23.6108 5.83712ZM 5.87077 11.5153C 4.0464 10.5779 2.41712 9.20495 1.15905 7.54491C 0.91591 7.22406 0.91591 6.77594 1.15905 6.45509C 2.41708 4.79505 4.04635 3.4221 5.87077 2.48467C 6.21077 2.31 6.55244 2.79359 6.34391 3.11395C 5.61976 4.22642 5.19699 5.56328 5.19699 6.99998C 5.19699 8.43668 5.61975 9.77358 6.3439 10.8861C 6.55244 11.2064 6.21076 11.69 5.87077 11.5153ZM 12 12.9965C 8.78713 12.9965 6.1733 10.3065 6.1733 6.99993C 6.1733 3.69336 8.78713 1.00337 12 1.00337C 15.2129 1.00337 17.8267 3.69341 17.8267 6.99998C 17.8267 10.3065 15.2129 12.9965 12 12.9965ZM 22.841 7.54486C 21.583 9.2049 19.9537 10.5778 18.1293 11.5153C 17.7895 11.6898 17.4478 11.206 17.6562 10.8859C 18.3803 9.77342 18.8031 8.43657 18.8031 6.99993C 18.8031 5.5632 18.3803 4.22632 17.6561 3.11384C 17.4476 2.79341 17.7893 2.30983 18.1293 2.48458C 19.9537 3.42201 21.583 4.79496 22.841 6.45499C 23.0841 6.77589 23.0841 7.22401 22.841 7.54486Z"/>
<path id="path1_stroke_2x" d="M 23.6108 5.83712L 23.2123 6.13911L 23.2123 6.13912L 23.6108 5.83712ZM 18.5654 1.5857L 18.3368 2.03042L 18.3368 2.03042L 18.5654 1.5857ZM 5.4346 1.5857L 5.66311 2.03042L 5.66311 2.03042L 5.4346 1.5857ZM 0.389178 5.83712L 0.787668 6.13912L 0.787673 6.13911L 0.389178 5.83712ZM 0.389178 8.16288L 0.787674 7.86089L 0.787668 7.86088L 0.389178 8.16288ZM 5.4346 12.4143L 5.66311 11.9696L 5.66311 11.9696L 5.4346 12.4143ZM 18.5654 12.4143L 18.3368 11.9696L 18.3368 11.9696L 18.5654 12.4143ZM 23.6108 8.16288L 24.0093 8.46488L 24.0093 8.46486L 23.6108 8.16288ZM 1.15905 7.54491L 0.760545 7.84689L 0.760558 7.84691L 1.15905 7.54491ZM 1.15905 6.45509L 0.760553 6.1531L 0.760545 6.15311L 1.15905 6.45509ZM 22.841 7.54486L 23.2395 7.84686L 23.2395 7.84685L 22.841 7.54486ZM 22.841 6.45499L 23.2396 6.15308L 23.2395 6.15299L 22.841 6.45499ZM 6.3439 10.8861L 5.92486 11.1588L 6.3439 10.8861ZM 17.6561 3.11384L 17.2371 3.38661L 17.6561 3.11384ZM 6.34391 3.11395L 5.92487 2.84118L 6.34391 3.11395ZM 12.1386 13.9994L 12.1435 14.4994L 12.1386 13.9994ZM 12.2326 13.998L 12.2404 14.498L 12.2326 13.998ZM 11.7673 13.998L 11.7751 13.4981L 11.7673 13.998ZM 11.8614 13.9994L 11.8565 14.4994L 11.8614 13.9994ZM 17.6562 10.8859L 18.0752 11.1586L 17.6562 10.8859ZM 11.7674 0.00196402L 11.7596 -0.497975L 11.7674 0.00196402ZM 12.2326 0.00196403L 12.2248 0.501903L 12.2326 0.00196403ZM 24.0093 5.53512C 22.6178 3.69899 20.8153 2.17965 18.7939 1.14097L 18.3368 2.03042C 20.2229 2.99955 21.9099 4.42052 23.2123 6.13911L 24.0093 5.53512ZM 18.7939 1.14097C 16.745 0.0881857 14.5399 -0.462069 12.2404 -0.497975L 12.2248 0.501903C 14.3709 0.535413 16.4249 1.048 18.3368 2.03042L 18.7939 1.14097ZM 12.1434 -0.49942C 12.065 -0.500193 11.9348 -0.500193 11.8564 -0.49942L 11.8663 0.500532C 11.9381 0.499823 12.0617 0.499823 12.1336 0.500531L 12.1434 -0.49942ZM 11.7596 -0.497975C 9.46011 -0.462031 7.25501 0.0881717 5.20608 1.14097L 5.66311 2.03042C 7.57509 1.048 9.62911 0.53545 11.7752 0.501903L 11.7596 -0.497975ZM 5.20608 1.14097C 3.18461 2.17965 1.38221 3.69895 -0.00931676 5.53512L 0.787673 6.13911C 2.09013 4.42047 3.77701 2.99955 5.66311 2.03042L 5.20608 1.14097ZM -0.00931211 5.53511C -0.663563 6.39839 -0.663563 7.60161 -0.00931211 8.46489L 0.787668 7.86088C 0.404111 7.35478 0.404111 6.64522 0.787668 6.13912L -0.00931211 5.53511ZM -0.00931786 8.46488C 1.38216 10.301 3.18461 11.8203 5.20608 12.859L 5.66311 11.9696C 3.77701 11.0005 2.09009 9.57948 0.787674 7.86089L -0.00931786 8.46488ZM 5.20608 12.859C 7.25499 13.9118 9.46002 14.4621 11.7595 14.498L 11.7751 13.4981C 9.62903 13.4646 7.57508 12.952 5.66311 11.9696L 5.20608 12.859ZM 11.8565 14.4994C 11.9349 14.5002 12.0651 14.5002 12.1435 14.4994L 12.1336 13.4995C 12.0618 13.5002 11.9382 13.5002 11.8664 13.4995L 11.8565 14.4994ZM 12.2404 14.498C 14.5398 14.462 16.7449 13.9118 18.7939 12.859L 18.3368 11.9696C 16.4249 12.952 14.3708 13.4646 12.2248 13.4981L 12.2404 14.498ZM 18.7939 12.859C 20.8153 11.8203 22.6178 10.3011 24.0093 8.46488L 23.2123 7.86089C 21.9099 9.57953 20.2229 11.0005 18.3368 11.9696L 18.7939 12.859ZM 24.0093 8.46486C 24.6635 7.60151 24.6636 6.39841 24.0093 5.53511L 23.2123 6.13912C 23.5959 6.64521 23.5959 7.35469 23.2123 7.86091L 24.0093 8.46486ZM 6.09928 11.0706C 4.34261 10.168 2.77109 8.8442 1.55754 7.24291L 0.760558 7.84691C 2.06316 9.5657 3.75018 10.9878 5.64225 11.96L 6.09928 11.0706ZM 1.55756 7.24293C 1.44974 7.10065 1.44974 6.89934 1.55756 6.75707L 0.760545 6.15311C 0.382079 6.65254 0.382079 7.34746 0.760545 7.84689L 1.55756 7.24293ZM 1.55755 6.75708C 2.77105 5.1558 4.34256 3.83204 6.09928 2.9294L 5.64225 2.03995C 3.75014 3.01216 2.06311 4.4343 0.760553 6.1531L 1.55755 6.75708ZM 5.92487 2.84118C 5.1492 4.0328 4.69699 5.46406 4.69699 6.99998L 5.69699 6.99998C 5.69699 5.6625 6.09033 4.42004 6.76295 3.38672L 5.92487 2.84118ZM 4.69699 6.99998C 4.69699 8.5359 5.14919 9.9672 5.92486 11.1588L 6.76295 10.6133C 6.09032 9.57997 5.69699 8.33747 5.69699 6.99998L 4.69699 6.99998ZM 12 12.4965C 9.07672 12.4965 6.6733 10.044 6.6733 6.99993L 5.6733 6.99993C 5.6733 10.569 8.49754 13.4965 12 13.4965L 12 12.4965ZM 6.6733 6.99993C 6.6733 3.95587 9.07671 1.50337 12 1.50337L 12 0.503373C 8.49754 0.503373 5.6733 3.43086 5.6733 6.99993L 6.6733 6.99993ZM 12 1.50337C 14.9233 1.50337 17.3267 3.95591 17.3267 6.99998L 18.3267 6.99998C 18.3267 3.43091 15.5025 0.503373 12 0.503373L 12 1.50337ZM 17.3267 6.99998C 17.3267 10.044 14.9233 12.4965 12 12.4965L 12 13.4965C 15.5025 13.4965 18.3267 10.569 18.3267 6.99998L 17.3267 6.99998ZM 22.4425 7.24287C 21.229 8.84415 19.6575 10.1679 17.9008 11.0705L 18.3578 11.96C 20.2499 10.9878 21.9369 9.56565 23.2395 7.84686L 22.4425 7.24287ZM 18.0752 11.1586C 18.8509 9.96703 19.3031 8.53579 19.3031 6.99993L 18.3031 6.99993C 18.3031 8.33735 17.9097 9.5798 17.2371 10.6131L 18.0752 11.1586ZM 19.3031 6.99993C 19.3031 5.46398 18.8508 4.0327 18.0752 2.84108L 17.2371 3.38661C 17.9097 4.41993 18.3031 5.66242 18.3031 6.99993L 19.3031 6.99993ZM 17.9008 2.9293C 19.6575 3.83194 21.229 5.15571 22.4426 6.75699L 23.2395 6.15299C 21.9369 4.43421 20.2499 3.01207 18.3578 2.03985L 17.9008 2.9293ZM 22.4425 6.75691C 22.5503 6.89927 22.5503 7.10062 22.4425 7.24288L 23.2395 7.84685C 23.618 7.3474 23.6179 6.65252 23.2396 6.15308L 22.4425 6.75691ZM 5.92486 11.1588C 5.90883 11.1342 5.90682 11.1097 5.90784 11.0985C 5.90828 11.0938 5.90912 11.0917 5.90912 11.0917C 5.90914 11.0917 5.90915 11.0916 5.90916 11.0916C 5.90916 11.0916 5.90916 11.0916 5.90917 11.0916C 5.90917 11.0916 5.90917 11.0916 5.90917 11.0916C 5.90917 11.0916 5.90917 11.0916 5.90917 11.0916C 5.90917 11.0916 5.90917 11.0916 5.90916 11.0916C 5.90916 11.0916 5.90916 11.0916 5.90916 11.0916C 5.90916 11.0916 5.90919 11.0916 5.90925 11.0915C 5.90931 11.0914 5.90942 11.0912 5.90961 11.091C 5.91009 11.0903 5.91276 11.0867 5.91936 11.0816C 5.92599 11.0765 5.93855 11.0684 5.95795 11.0619C 5.97803 11.0551 6.00346 11.0508 6.03177 11.0528C 6.06051 11.0548 6.08375 11.0626 6.09926 11.0706L 5.64227 11.9601C 6.09915 12.1948 6.51982 11.9503 6.71646 11.6817C 6.90921 11.4185 7.00748 10.9889 6.76295 10.6133L 5.92486 11.1588ZM 18.0752 2.84108C 18.0912 2.86567 18.0932 2.89014 18.0922 2.9013C 18.0918 2.90604 18.0909 2.90812 18.0909 2.90813C 18.0909 2.90818 18.0909 2.90821 18.0909 2.90822C 18.0909 2.90824 18.0909 2.90824 18.0909 2.90825C 18.0909 2.90825 18.0909 2.90824 18.0909 2.90824C 18.0909 2.90824 18.0909 2.90824 18.0909 2.90824C 18.0909 2.90824 18.0908 2.90829 18.0908 2.90838C 18.0907 2.90848 18.0906 2.90865 18.0904 2.90891C 18.0899 2.90958 18.0872 2.91315 18.0806 2.91824C 18.074 2.92337 18.0614 2.93149 18.042 2.93802C 18.0219 2.94477 17.9965 2.94907 17.9682 2.9471C 17.9395 2.94511 17.9163 2.93726 17.9008 2.9293L 18.3579 2.03986C 17.901 1.8051 17.4803 2.04948 17.2836 2.31812C 17.0908 2.58143 16.9926 3.01095 17.2371 3.38661L 18.0752 2.84108ZM 6.09925 2.92942C 6.08374 2.93739 6.06049 2.94525 6.03176 2.94723C 6.00345 2.94919 5.97803 2.94489 5.95795 2.93813C 5.93856 2.9316 5.926 2.92348 5.91936 2.91836C 5.91277 2.91327 5.9101 2.90971 5.90961 2.90905C 5.90942 2.90879 5.90931 2.90862 5.90925 2.90853C 5.90919 2.90843 5.90917 2.90839 5.90917 2.90839C 5.90917 2.90839 5.90917 2.90839 5.90917 2.90839C 5.90917 2.90839 5.90917 2.9084 5.90917 2.9084C 5.90917 2.9084 5.90917 2.9084 5.90917 2.9084C 5.90917 2.9084 5.90917 2.9084 5.90917 2.90839C 5.90917 2.90839 5.90917 2.90838 5.90916 2.90838C 5.90916 2.90836 5.90914 2.90833 5.90913 2.90829C 5.90913 2.90829 5.90828 2.9062 5.90785 2.90146C 5.90683 2.89031 5.90883 2.86581 5.92487 2.84118L 6.76295 3.38672C 7.00748 3.01106 6.90922 2.58156 6.71647 2.3183C 6.51983 2.04973 6.09916 1.80521 5.64228 2.03993L 6.09925 2.92942ZM 12.1435 14.4994C 12.1768 14.4991 12.2116 14.4984 12.2404 14.498L 12.2248 13.4981C 12.1908 13.4986 12.1631 13.4992 12.1336 13.4995L 12.1435 14.4994ZM 11.7595 14.498C 11.7883 14.4984 11.8232 14.4991 11.8565 14.4994L 11.8664 13.4995C 11.8369 13.4992 11.8091 13.4986 11.7751 13.4981L 11.7595 14.498ZM 17.9008 11.0705C 17.9164 11.0625 17.9397 11.0546 17.9685 11.0527C 17.9969 11.0507 18.0224 11.055 18.0425 11.0618C 18.0619 11.0683 18.0744 11.0765 18.081 11.0816C 18.0876 11.0866 18.0902 11.0902 18.0907 11.0908C 18.091 11.0912 18.0911 11.0914 18.0911 11.0914C 18.091 11.0913 18.091 11.0913 18.0911 11.0914C 18.0911 11.0915 18.0913 11.092 18.0915 11.093C 18.0918 11.094 18.0921 11.0957 18.0923 11.0982C 18.0933 11.1093 18.0914 11.1339 18.0752 11.1586L 17.2371 10.6131C 16.9926 10.9888 17.0912 11.4183 17.2837 11.6814C 17.4801 11.9497 17.9007 12.1949 18.3578 11.96L 17.9008 11.0705ZM 11.8564 -0.49942C 11.8232 -0.499092 11.7883 -0.498425 11.7596 -0.497975L 11.7752 0.501903C 11.8091 0.501373 11.8369 0.500822 11.8663 0.500532L 11.8564 -0.49942ZM 12.2404 -0.497975C 12.2116 -0.498425 12.1767 -0.499093 12.1434 -0.49942L 12.1336 0.500531C 12.1631 0.500822 12.1909 0.501373 12.2248 0.501903L 12.2404 -0.497975Z"/>
<path id="path2_fill" d="M 2.49351 4.12219e-08C 1.11857 4.12219e-08 -3.43321e-07 1.15118 -3.43321e-07 2.5662C -3.43321e-07 3.98122 1.11857 5.13241 2.49351 5.13241C 3.86844 5.13241 4.98701 3.98122 4.98701 2.5662C 4.98706 1.15118 3.86848 4.12219e-08 2.49351 4.12219e-08ZM 2.49351 4.12768C 1.65693 4.12768 0.976262 3.42726 0.976262 2.5662C 0.976262 1.70519 1.65684 1.00477 2.49351 1.00477C 3.33008 1.00477 4.0107 1.70519 4.0107 2.5662C 4.01075 3.42726 3.33008 4.12768 2.49351 4.12768Z"/>
<path id="path3_stroke_2x" d="M 4.98701 2.5662L 4.48701 2.56619L 4.48701 2.5662L 4.98701 2.5662ZM 4.0107 2.5662L 3.5107 2.5662L 3.5107 2.56623L 4.0107 2.5662ZM 2.49351 -0.5C 0.828984 -0.5 -0.5 0.888684 -0.5 2.5662L 0.5 2.5662C 0.5 1.41369 1.40816 0.5 2.49351 0.5L 2.49351 -0.5ZM -0.5 2.5662C -0.5 4.24372 0.828984 5.63241 2.49351 5.63241L 2.49351 4.63241C 1.40816 4.63241 0.5 3.71872 0.5 2.5662L -0.5 2.5662ZM 2.49351 5.63241C 4.15803 5.63241 5.48701 4.24372 5.48701 2.5662L 4.48701 2.5662C 4.48701 3.71872 3.57885 4.63241 2.49351 4.63241L 2.49351 5.63241ZM 5.48701 2.56622C 5.48707 0.888679 4.15807 -0.5 2.49351 -0.5L 2.49351 0.5C 3.5789 0.5 4.48705 1.41369 4.48701 2.56619L 5.48701 2.56622ZM 2.49351 3.62768C 1.9465 3.62768 1.47626 3.16474 1.47626 2.5662L 0.476262 2.5662C 0.476262 3.68978 1.36736 4.62768 2.49351 4.62768L 2.49351 3.62768ZM 1.47626 2.5662C 1.47626 1.9677 1.94642 1.50477 2.49351 1.50477L 2.49351 0.504773C 1.36726 0.504773 0.476262 1.44268 0.476262 2.5662L 1.47626 2.5662ZM 2.49351 1.50477C 3.0405 1.50477 3.5107 1.9677 3.5107 2.5662L 4.5107 2.5662C 4.5107 1.44268 3.61966 0.504773 2.49351 0.504773L 2.49351 1.50477ZM 3.5107 2.56623C 3.51074 3.16474 3.04052 3.62768 2.49351 3.62768L 2.49351 4.62768C 3.61965 4.62768 4.51076 3.68978 4.5107 2.56618L 3.5107 2.56623Z"/>
</defs>
</svg>
