<svg width="12" height="16" viewBox="0 0 12 16" version="1.1" xmlns="http://www.w3.org/2000/svg" xmlns:xlink="http://www.w3.org/1999/xlink">
<title>man-user</title>
<desc>Created using Figma</desc>
<g id="Canvas" transform="translate(-513 -1733)">
<g id="man-user">
<g id="Group">
<g id="Vector">
<use xlink:href="#path0_fill" transform="translate(515.824 1733)" fill="#384A52"/>
</g>
<g id="Vector">
<use xlink:href="#path1_fill" transform="translate(513 1746.73)" fill="#384A52"/>
</g>
<g id="Vector">
<use xlink:href="#path2_fill" transform="translate(524.999 1746.78)" fill="#384A52"/>
</g>
<g id="Vector">
<use xlink:href="#path3_fill" transform="translate(513.001 1741.13)" fill="#384A52"/>
</g>
</g>
</g>
</g>
<defs>
<path id="path0_fill" d="M 3.17636 7.82505C 4.9305 7.82505 6.35264 6.07337 6.35264 3.91255C 6.35264 1.75168 5.88573 0 3.17636 0C 0.467 0 1.65078e-07 1.75168 1.65078e-07 3.91255C 1.65078e-07 6.07337 1.42214 7.82505 3.17636 7.82505Z"/>
<path id="path1_fill" d="M 0.000624626 0.0677071C 8.36995e-05 -0.0640415 -0.000457227 0.0305871 0.000624626 0.0677071L 0.000624626 0.0677071Z"/>
<path id="path2_fill" d="M -3.85181e-07 0.119676C 0.00171255 0.0836072 0.000585618 -0.130564 -3.85181e-07 0.119676L -3.85181e-07 0.119676Z"/>
<path id="path3_fill" d="M 11.9918 5.51575C 11.9329 1.75154 11.4482 0.678949 7.73863 2.51116e-07C 7.73863 2.51116e-07 7.21645 0.674789 5.99937 0.674789C 4.78228 0.674789 4.26002 2.51116e-07 4.26002 2.51116e-07C 0.590962 0.671543 0.0767214 1.72823 0.00910562 5.39346C 0.00356113 5.69275 0.000991741 5.70848 4.2645e-08 5.67374C 0.000225429 5.73883 0.000495791 5.85925 0.000495791 6.06921C 0.000495791 6.06921 0.883648 7.87474 5.99937 7.87474C 11.115 7.87474 11.9982 6.06921 11.9982 6.06921C 11.9982 5.93431 11.9983 5.8405 11.9985 5.77669C 11.9975 5.79817 11.9955 5.75653 11.9918 5.51575Z"/>
</defs>
</svg>
