<svg width="22" height="18" viewBox="0 0 22 18" version="1.1" xmlns="http://www.w3.org/2000/svg" xmlns:xlink="http://www.w3.org/1999/xlink">
<title>picture (1)</title>
<desc>Created using Figma</desc>
<g id="Canvas" transform="translate(368 -2749)">
<g id="picture (1)">
<g id="Group">
<g id="Vector">
<use xlink:href="#path0_fill" transform="translate(-368 2749)" fill="#FFFFFF"/>
</g>
<g id="Vector">
<use xlink:href="#path1_fill" transform="translate(-364.043 2753.3)" fill="#FFFFFF"/>
</g>
<g id="Vector">
<use xlink:href="#path2_fill" transform="translate(-365.724 2755.65)" fill="#FFFFFF"/>
</g>
</g>
</g>
</g>
<defs>
<path id="path0_fill" d="M 21.6207 0L 0.37931 0C 0.169931 0 0 0.174913 0 0.391304L 0 17.6087C 0 17.8251 0.169931 18 0.37931 18L 21.6207 18C 21.8301 18 22 17.8251 22 17.6087L 22 0.391304C 22 0.174913 21.8301 0 21.6207 0ZM 21.2414 17.2174L 0.758621 17.2174L 0.758621 0.782609L 21.2414 0.782609L 21.2414 17.2174Z"/>
<path id="path1_fill" d="M 2.11238 4.35835C 3.27724 4.35835 4.22476 3.38087 4.22476 2.17956C 4.22476 0.977478 3.27724 0 2.11238 0C 0.947517 0 -9.26051e-08 0.977478 -9.26051e-08 2.17917C -9.26051e-08 3.38087 0.947517 4.35835 2.11238 4.35835ZM 2.11238 0.782609C 2.85886 0.782609 3.46614 1.40948 3.46614 2.17917C 3.46614 2.94887 2.85886 3.57574 2.11238 3.57574C 1.3659 3.57574 0.758621 2.94926 0.758621 2.17956C 0.758621 1.40987 1.3659 0.782609 2.11238 0.782609Z"/>
<path id="path2_fill" d="M 0.379511 8.99972C 0.46827 8.99972 0.557787 8.96763 0.629856 8.90229L 6.81754 3.28237L 10.7252 7.3132C 10.8735 7.4662 11.1132 7.4662 11.2615 7.3132C 11.4099 7.1602 11.4099 6.91289 11.2615 6.75989L 9.4382 4.87889L 12.9206 0.94472L 17.1921 4.98415C 17.3464 5.13011 17.5865 5.11915 17.728 4.95989C 17.8695 4.80063 17.8593 4.55294 17.7045 4.40698L 13.1528 0.102633C 13.0784 0.0325897 12.9794 -0.00223677 12.8797 0.00011106C 12.7792 0.00480671 12.6843 0.0505896 12.6164 0.127285L 8.90148 4.32481L 7.10241 2.46885C 6.96055 2.32289 6.73372 2.31546 6.58351 2.45163L 0.128787 8.31455C -0.0286268 8.45737 -0.0437993 8.70468 0.094649 8.86707C 0.169752 8.95511 0.274442 8.99972 0.379511 8.99972Z"/>
</defs>
</svg>
