<svg width="56" height="56" viewBox="0 0 56 56" version="1.1" xmlns="http://www.w3.org/2000/svg" xmlns:xlink="http://www.w3.org/1999/xlink">
<title>Group</title>
<desc>Created using Figma</desc>
<g id="Canvas" transform="translate(-116 -2252)">
<g id="Group">
<g id="Vector">
<use xlink:href="#path0_fill" transform="translate(117 2253)" fill="#304A52"/>
<mask id="mask0_outline_out">
<rect id="mask0_outline_inv" fill="white" x="-1" y="-1" width="57" height="57" transform="translate(117 2253)"/>
<use xlink:href="#path0_fill" fill="black" transform="translate(117 2253)"/>
</mask>
<g mask="url(#mask0_outline_out)">
<use xlink:href="#path1_stroke_2x" transform="translate(117 2253)" fill="#304A52"/>
</g>
</g>
<g id="Vector">
<use xlink:href="#path2_fill" transform="translate(131.464 2268.43)" fill="#304A52"/>
<mask id="mask1_outline_out">
<rect id="mask1_outline_inv" fill="white" x="-1" y="-1" width="28" height="4" transform="translate(131.464 2268.43)"/>
<use xlink:href="#path2_fill" fill="black" transform="translate(131.464 2268.43)"/>
</mask>
<g mask="url(#mask1_outline_out)">
<use xlink:href="#path3_stroke_2x" transform="translate(131.464 2268.43)" fill="#304A52"/>
</g>
</g>
<g id="Vector">
<use xlink:href="#path2_fill" transform="translate(131.464 2279.04)" fill="#304A52"/>
<mask id="mask2_outline_out">
<rect id="mask2_outline_inv" fill="white" x="-1" y="-1" width="28" height="4" transform="translate(131.464 2279.04)"/>
<use xlink:href="#path2_fill" fill="black" transform="translate(131.464 2279.04)"/>
</mask>
<g mask="url(#mask2_outline_out)">
<use xlink:href="#path3_stroke_2x" transform="translate(131.464 2279.04)" fill="#304A52"/>
</g>
</g>
<g id="Vector">
<use xlink:href="#path2_fill" transform="translate(131.464 2289.64)" fill="#304A52"/>
<mask id="mask3_outline_out">
<rect id="mask3_outline_inv" fill="white" x="-1" y="-1" width="28" height="4" transform="translate(131.464 2289.64)"/>
<use xlink:href="#path2_fill" fill="black" transform="translate(131.464 2289.64)"/>
</mask>
<g mask="url(#mask3_outline_out)">
<use xlink:href="#path3_stroke_2x" transform="translate(131.464 2289.64)" fill="#304A52"/>
</g>
</g>
</g>
</g>
<defs>
<path id="path0_fill" d="M 27 0C 12.1124 0 0 12.1124 0 27C 0 41.8876 12.1124 54 27 54C 41.8876 54 54 41.8876 54 27C 54 12.1124 41.8876 0 27 0ZM 27 52.0714C 13.175 52.0714 1.92857 40.824 1.92857 27C 1.92857 13.176 13.175 1.92857 27 1.92857C 40.825 1.92857 52.0714 13.176 52.0714 27C 52.0714 40.824 40.825 52.0714 27 52.0714Z"/>
<path id="path1_stroke_2x" d="M 27 -1C 11.5601 -1 -1 11.5601 -1 27L 1 27C 1 12.6647 12.6647 1 27 1L 27 -1ZM -1 27C -1 42.4399 11.5601 55 27 55L 27 53C 12.6647 53 1 41.3353 1 27L -1 27ZM 27 55C 42.4399 55 55 42.4399 55 27L 53 27C 53 41.3353 41.3353 53 27 53L 27 55ZM 55 27C 55 11.5601 42.4399 -1 27 -1L 27 1C 41.3353 1 53 12.6647 53 27L 55 27ZM 27 51.0714C 13.7273 51.0714 2.92857 40.2717 2.92857 27L 0.928571 27C 0.928571 41.3763 12.6227 53.0714 27 53.0714L 27 51.0714ZM 2.92857 27C 2.92857 13.7283 13.7273 2.92857 27 2.92857L 27 0.928571C 12.6227 0.928571 0.928571 12.6237 0.928571 27L 2.92857 27ZM 27 2.92857C 40.2727 2.92857 51.0714 13.7283 51.0714 27L 53.0714 27C 53.0714 12.6237 41.3773 0.928571 27 0.928571L 27 2.92857ZM 51.0714 27C 51.0714 40.2717 40.2727 51.0714 27 51.0714L 27 53.0714C 41.3773 53.0714 53.0714 41.3763 53.0714 27L 51.0714 27Z"/>
<path id="path2_fill" d="M 24.1071 0L 0.964286 0C 0.431036 0 0 0.432 0 0.964286C 0 1.49657 0.431036 1.92857 0.964286 1.92857L 24.1071 1.92857C 24.6404 1.92857 25.0714 1.49657 25.0714 0.964286C 25.0714 0.432 24.6404 0 24.1071 0Z"/>
<path id="path3_stroke_2x" d="M 24.1071 -1L 0.964286 -1L 0.964286 1L 24.1071 1L 24.1071 -1ZM 0.964286 -1C -0.1219 -1 -1 -0.119633 -1 0.964286L 1 0.964286C 1 0.983633 0.983972 1 0.964286 1L 0.964286 -1ZM -1 0.964286C -1 2.0482 -0.1219 2.92857 0.964286 2.92857L 0.964286 0.928571C 0.983972 0.928571 1 0.944938 1 0.964286L -1 0.964286ZM 0.964286 2.92857L 24.1071 2.92857L 24.1071 0.928571L 0.964286 0.928571L 0.964286 2.92857ZM 24.1071 2.92857C 25.1933 2.92857 26.0714 2.0482 26.0714 0.964286L 24.0714 0.964286C 24.0714 0.944938 24.0875 0.928571 24.1071 0.928571L 24.1071 2.92857ZM 26.0714 0.964286C 26.0714 -0.119633 25.1933 -1 24.1071 -1L 24.1071 1C 24.0875 1 24.0714 0.983633 24.0714 0.964286L 26.0714 0.964286Z"/>
</defs>
</svg>
