<svg width="64" height="64" viewBox="0 0 64 64" version="1.1" xmlns="http://www.w3.org/2000/svg" xmlns:xlink="http://www.w3.org/1999/xlink">
<title>speedometer</title>
<desc>Created using Figma</desc>
<g id="Canvas" transform="translate(-121 -2247)">
<g id="speedometer">
<g id="Group">
<g id="Group">
<g id="Vector">
<use xlink:href="#path0_fill" transform="translate(121 2247)" fill="#304A52"/>
</g>
</g>
</g>
<g id="Group">
<g id="Group">
<g id="Vector">
<use xlink:href="#path1_fill" transform="translate(139.075 2307.25)" fill="#304A52"/>
</g>
</g>
</g>
<g id="Group">
<g id="Group">
<g id="Vector">
<use xlink:href="#path2_fill" transform="translate(145.1 2266.7)" fill="#304A52"/>
</g>
</g>
</g>
</g>
</g>
<defs>
<path id="path0_fill" d="M 54.6275 9.3725C 48.5835 3.32863 40.5476 0 32 0C 23.4525 0 15.4166 3.3285 9.37263 9.3725L 9.37237 9.37263L 9.37225 9.37275C 3.3285 15.4169 0 23.4526 0 32C 0 32.0001 0 32.0003 0 32.0003L 0 32.0004C 0.000125 38.9883 2.213 45.6276 6.39962 51.201C 6.75375 51.6725 7.30912 51.9499 7.89875 51.9499L 56.1015 51.9499C 56.6912 51.9499 57.2465 51.6725 57.6006 51.2009C 61.787 45.6274 63.9997 38.988 63.9999 32.0004L 63.9999 32.0003L 64 32.0003C 64 32.0003 64 32.0001 64 32C 64 23.4525 60.6714 15.4165 54.6275 9.3725ZM 55.1464 48.2L 8.85388 48.2C 5.87025 43.9508 4.14738 39.0468 3.81188 33.8751L 5.89175 33.875C 6.92725 33.875 7.76675 33.0354 7.76662 31.9999C 7.76662 30.9644 6.927 30.125 5.8915 30.125L 3.81375 30.1251C 4.234 23.7445 6.781 17.9361 10.7524 13.4041L 12.2129 14.8645C 12.579 15.2306 13.0588 15.4136 13.5386 15.4136C 14.0185 15.4136 14.4984 15.2305 14.8645 14.8644C 15.5968 14.1321 15.5966 12.945 14.8644 12.2128L 13.404 10.7525C 17.936 6.78112 23.7444 4.234 30.125 3.81375L 30.125 5.89175C 30.125 6.92725 30.9645 7.76675 32 7.76675C 33.0355 7.76675 33.875 6.92725 33.875 5.89175L 33.875 3.81375C 40.2556 4.234 46.064 6.78113 50.5961 10.7526L 49.1356 12.2128C 48.4034 12.9449 48.4033 14.1321 49.1354 14.8644C 49.5015 15.2305 49.9815 15.4136 50.4613 15.4136C 50.941 15.4136 51.4209 15.2306 51.7869 14.8645L 53.2475 13.4041C 57.219 17.9361 59.766 23.7445 60.1862 30.1251L 58.1084 30.125C 58.1082 30.125 58.1082 30.125 58.1082 30.125C 57.0729 30.125 56.2334 30.9644 56.2332 31.9999C 56.2331 33.0354 57.0726 33.875 58.1081 33.875L 60.1881 33.8751C 59.8525 39.0466 58.1299 43.9505 55.1464 48.2Z"/>
<path id="path1_fill" d="M 25.9749 0L 1.875 0C 0.839501 0 7.62939e-07 0.8395 7.62939e-07 1.875C 7.62939e-07 2.9105 0.839501 3.75 1.875 3.75L 25.975 3.75C 27.0105 3.75 27.85 2.9105 27.85 1.875C 27.85 0.8395 27.0105 0 25.9749 0Z"/>
<path id="path2_fill" d="M 19.6537 0.549281C 18.9217 -0.183094 17.7345 -0.183094 17.0022 0.549281L 11.9992 5.55216C 10.8035 4.82341 9.39987 4.40303 7.9 4.40303C 3.54387 4.40303 -5.0354e-07 7.94691 -5.0354e-07 12.303C -5.0354e-07 16.6592 3.544 20.203 7.9 20.203C 12.2561 20.203 15.7999 16.659 15.7999 12.303C 15.7999 10.8032 15.3796 9.39966 14.6509 8.20378L 19.6537 3.20091C 20.386 2.46866 20.386 1.28153 19.6537 0.549281ZM 7.90013 16.453C 5.61175 16.453 3.75013 14.5913 3.75013 12.303C 3.75013 10.0148 5.61188 8.15303 7.90013 8.15303C 10.1884 8.15303 12.05 10.0147 12.05 12.303C 12.05 14.5914 10.1884 16.453 7.90013 16.453Z"/>
</defs>
</svg>
