<svg width="26" height="49" viewBox="0 0 26 49" version="1.1" xmlns="http://www.w3.org/2000/svg" xmlns:xlink="http://www.w3.org/1999/xlink">
<title>Vector</title>
<desc>Created using Figma</desc>
<g id="Canvas" transform="translate(-1041 -1898)">
<g id="Vector">
<use xlink:href="#path0_stroke" transform="matrix(6.22222e-17 -1 1 6.02582e-17 1044.38 1944)" fill="#304A52" fill-opacity="0.8"/>
</g>
</g>
<defs>
<path id="path0_stroke" d="M 44.7044 1.82895C 45.7145 0.887648 45.7703 -0.694281 44.829 -1.70438C 43.8876 -2.71449 42.3057 -2.77026 41.2956 -1.82895L 44.7044 1.82895ZM 21.9479 19.6182L 20.2818 21.4822C 21.2455 22.3435 22.7068 22.3283 23.6523 21.4472L 21.9479 19.6182ZM 1.66607 -1.86392C 0.636658 -2.78407 -0.943774 -2.69549 -1.86392 -1.66607C -2.78407 -0.636658 -2.69549 0.943774 -1.66607 1.86392L 1.66607 -1.86392ZM 41.2956 -1.82895L 20.2435 17.7893L 23.6523 21.4472L 44.7044 1.82895L 41.2956 -1.82895ZM 23.614 17.7543L 1.66607 -1.86392L -1.66607 1.86392L 20.2818 21.4822L 23.614 17.7543Z"/>
</defs>
</svg>
