<svg width="21" height="21" viewBox="0 0 21 21" version="1.1" xmlns="http://www.w3.org/2000/svg" xmlns:xlink="http://www.w3.org/1999/xlink">
<title>settings</title>
<desc>Created using Figma</desc>
<g id="Canvas" transform="translate(367 -2802)">
<g id="settings">
<g id="Group">
<g id="Group">
<g id="Vector">
<use xlink:href="#path0_fill" transform="translate(-367 2802)" fill="#FFFFFF"/>
</g>
<g id="Vector">
<use xlink:href="#path1_fill" transform="translate(-361.029 2807.97)" fill="#FFFFFF"/>
</g>
</g>
</g>
</g>
</g>
<defs>
<path id="path0_fill" d="M 19.9251 8.29559L 18.4511 8.04554C 18.2976 7.54982 18.1002 7.07165 17.8589 6.61542L 18.7275 5.40025C 19.096 4.8826 19.039 4.17631 18.5871 3.72885L 17.2798 2.42156C 17.0342 2.17589 16.7095 2.0399 16.363 2.0399C 16.091 2.0399 15.8322 2.12325 15.6128 2.28118L 14.3933 3.14978C 13.9195 2.89973 13.4238 2.69355 12.9105 2.54L 12.6649 1.08356C 12.5596 0.456236 12.02 2.0836e-12 11.3839 2.0836e-12L 9.53702 2.0836e-12C 8.90093 2.0836e-12 8.36135 0.456236 8.25606 1.08356L 8.00162 2.5751C 7.5103 2.72864 7.03213 2.93044 6.5759 3.1761L 5.36951 2.3075C 5.15017 2.14957 4.88696 2.06622 4.61497 2.06622C 4.26841 2.06622 3.9394 2.20221 3.69812 2.44788L 2.38645 3.75517C 1.93899 4.20263 1.87757 4.90892 2.24607 5.42657L 3.12344 6.65928C 2.88216 7.11991 2.68914 7.59808 2.53999 8.0938L 1.08355 8.33946C 0.456233 8.44475 0 8.98433 0 9.62043L 0 11.4673C 0 12.1034 0.456233 12.643 1.08355 12.7483L 2.57508 13.0027C 2.72862 13.494 2.93042 13.9722 3.17608 14.4285L 2.31187 15.6305C 1.94338 16.1481 2.00041 16.8544 2.45225 17.3019L 3.75953 18.6091C 4.0052 18.8548 4.32983 18.9908 4.67639 18.9908C 4.94837 18.9908 5.2072 18.9075 5.42654 18.7495L 6.65925 17.8722C 7.10232 18.1047 7.56732 18.2933 8.04549 18.4424L 8.29116 19.9164C 8.39644 20.5438 8.93602 21 9.57212 21L 11.4234 21C 12.0595 21 12.599 20.5438 12.7043 19.9164L 12.9544 18.4424C 13.4501 18.2889 13.9283 18.0915 14.3845 17.8502L 15.5997 18.7188C 15.819 18.8767 16.0822 18.9601 16.3542 18.9601C 16.7008 18.9601 17.0254 18.8241 17.271 18.5784L 18.5783 17.2711C 19.0258 16.8237 19.0872 16.1174 18.7187 15.5997L 17.8501 14.3802C 18.0914 13.9196 18.2932 13.4414 18.4423 12.9501L 19.9163 12.7044C 20.5436 12.5991 20.9999 12.0595 20.9999 11.4234L 20.9999 9.57656C 21.0086 8.94046 20.5524 8.40088 19.9251 8.29559ZM 19.8242 11.4234C 19.8242 11.4805 19.7847 11.5287 19.7277 11.5375L 17.8852 11.8446C 17.6527 11.8841 17.4685 12.0551 17.4114 12.2789C 17.2447 12.9238 16.9903 13.5423 16.6481 14.117C 16.5297 14.3188 16.5384 14.5688 16.6744 14.7619L 17.758 16.2885C 17.7887 16.3324 17.7843 16.3982 17.7448 16.4376L 16.4375 17.7449C 16.4068 17.7756 16.3761 17.78 16.3542 17.78C 16.3279 17.78 16.3059 17.7713 16.2884 17.7581L 14.7662 16.6745C 14.5775 16.5385 14.3231 16.5298 14.1213 16.6482C 13.5466 16.9904 12.9281 17.2448 12.2832 17.4115C 12.0551 17.4686 11.884 17.6572 11.8489 17.8853L 11.5374 19.7278C 11.5287 19.7848 11.4804 19.8243 11.4234 19.8243L 9.5765 19.8243C 9.51948 19.8243 9.47122 19.7848 9.46245 19.7278L 9.15537 17.8853C 9.11588 17.6528 8.9448 17.4686 8.72107 17.4115C 8.09375 17.2492 7.48836 16.9992 6.92246 16.6745C 6.83033 16.6219 6.72505 16.5956 6.62415 16.5956C 6.50571 16.5956 6.38287 16.6307 6.28198 16.7052L 4.74658 17.7976C 4.72464 17.8107 4.70271 17.8195 4.68077 17.8195C 4.66323 17.8195 4.62813 17.8151 4.59742 17.7844L 3.29014 16.4771C 3.25066 16.4376 3.24627 16.3762 3.27698 16.328L 4.35615 14.8145C 4.49214 14.6215 4.50091 14.367 4.38247 14.1652C 4.04029 13.5949 3.77708 12.9764 3.61038 12.3315C 3.54897 12.1078 3.36472 11.9367 3.1366 11.8972L 1.28096 11.5814C 1.22393 11.5726 1.18445 11.5243 1.18445 11.4673L 1.18445 9.62043C 1.18445 9.5634 1.22393 9.51514 1.28096 9.50637L 3.11028 9.19929C 3.34278 9.15981 3.53142 8.98872 3.58845 8.7606C 3.75076 8.11573 4.00081 7.49279 4.3386 6.91811C 4.45704 6.71631 4.44388 6.46626 4.30789 6.27763L 3.21556 4.74222C 3.18486 4.69835 3.18924 4.63255 3.22873 4.59306L 4.53601 3.28577C 4.56672 3.25507 4.59742 3.25068 4.61936 3.25068C 4.64568 3.25068 4.66761 3.25945 4.68516 3.27261L 6.19863 4.35179C 6.39165 4.48778 6.64609 4.49655 6.84788 4.37811C 7.41817 4.03593 8.03672 3.77272 8.68159 3.60602C 8.90532 3.5446 9.0764 3.36035 9.11588 3.13223L 9.43174 1.27658C 9.44051 1.21955 9.48877 1.18007 9.5458 1.18007L 11.3927 1.18007C 11.4497 1.18007 11.4979 1.21955 11.5067 1.27658L 11.8138 3.10591C 11.8533 3.33842 12.0244 3.52705 12.2525 3.58408C 12.9149 3.75078 13.5466 4.00961 14.1344 4.35617C 14.3362 4.47462 14.5863 4.46584 14.7793 4.32985L 16.2928 3.24191C 16.3147 3.22874 16.3366 3.21997 16.3586 3.21997C 16.3761 3.21997 16.4112 3.22436 16.4419 3.25507L 17.7492 4.56236C 17.7887 4.60184 17.7931 4.66325 17.7624 4.71151L 16.6788 6.23376C 16.5428 6.42239 16.5341 6.67683 16.6525 6.87863C 16.9947 7.45331 17.2491 8.07186 17.4158 8.71673C 17.4728 8.94485 17.6615 9.11594 17.8896 9.15103L 19.7321 9.4625C 19.7891 9.47128 19.8286 9.51953 19.8286 9.57656L 19.8286 11.4234L 19.8242 11.4234L 19.8242 11.4234Z"/>
<path id="path1_fill" d="M 4.53162 3.10595e-07C 2.03111 3.10595e-07 2.67752e-07 2.03113 2.67752e-07 4.53165C 2.67752e-07 7.03217 2.03111 9.0633 4.53162 9.0633C 7.03213 9.0633 9.06324 7.03217 9.06324 4.53165C 9.06324 2.03113 7.03213 3.10595e-07 4.53162 3.10595e-07ZM 4.53162 7.87884C 2.68475 7.87884 1.18445 6.37853 1.18445 4.53165C 1.18445 2.68477 2.68475 1.18446 4.53162 1.18446C 6.37849 1.18446 7.87879 2.68477 7.87879 4.53165C 7.87879 6.37853 6.37849 7.87884 4.53162 7.87884Z"/>
</defs>
</svg>
