<svg width="52" height="53" viewBox="0 0 52 53" version="1.1" xmlns="http://www.w3.org/2000/svg" xmlns:xlink="http://www.w3.org/1999/xlink">
<title>settings</title>
<desc>Created using Figma</desc>
<g id="Canvas" transform="translate(-127 -5897)">
<g id="settings">
<g id="Group">
<g id="Group">
<g id="Vector">
<use xlink:href="#path0_fill" transform="translate(127 5897.5)" fill="#304A52"/>
</g>
<g id="Vector">
<use xlink:href="#path1_fill" transform="translate(141.784 5912.27)" fill="#304A52"/>
</g>
</g>
</g>
</g>
</g>
<defs>
<path id="path0_fill" d="M 49.3383 20.5415L 45.6885 19.9223C 45.3083 18.6948 44.8195 17.5108 44.222 16.381L 46.3728 13.372C 47.2853 12.0902 47.1441 10.3413 46.0252 9.23334L 42.7881 5.99624C 42.1798 5.38793 41.376 5.05118 40.5178 5.05118C 39.8443 5.05118 39.2034 5.25757 38.6603 5.64863L 35.6405 7.79946C 34.4673 7.18028 33.2398 6.66973 31.9689 6.28953L 31.3606 2.6831C 31.0999 1.12973 29.7638 5.1594e-12 28.1887 5.1594e-12L 23.6155 5.1594e-12C 22.0404 5.1594e-12 20.7043 1.12973 20.4436 2.6831L 19.8135 6.37644C 18.5969 6.75663 17.4129 7.25632 16.2832 7.86463L 13.2959 5.71381C 12.7528 5.32275 12.101 5.11636 11.4275 5.11636C 10.5694 5.11636 9.75469 5.4531 9.15725 6.06142L 5.9093 9.29852C 4.80131 10.4065 4.64923 12.1554 5.5617 13.4372L 7.73423 16.4897C 7.13679 17.6302 6.65883 18.8143 6.2895 20.0418L 2.68308 20.6501C 1.12972 20.9108 0 22.2469 0 23.822L 0 28.3952C 0 29.9703 1.12972 31.3065 2.68308 31.5672L 6.3764 32.1972C 6.75659 33.4138 7.25628 34.5979 7.86459 35.7276L 5.72464 38.704C 4.81217 39.9858 4.95339 41.7347 6.07224 42.8427L 9.30932 46.0798C 9.91763 46.6881 10.7215 47.0249 11.5796 47.0249C 12.2531 47.0249 12.894 46.8185 13.4371 46.4274L 16.4896 44.2549C 17.5867 44.8306 18.7381 45.2977 19.9222 45.667L 20.5305 49.3169C 20.7912 50.8703 22.1273 52 23.7024 52L 28.2864 52C 29.8615 52 31.1976 50.8703 31.4583 49.3169L 32.0775 45.667C 33.305 45.2868 34.489 44.798 35.6188 44.2005L 38.6277 46.3514C 39.1709 46.7424 39.8226 46.9488 40.4961 46.9488C 41.3543 46.9488 42.1581 46.6121 42.7664 46.0038L 46.0035 42.7667C 47.1115 41.6587 47.2636 39.9098 46.3511 38.6279L 44.2003 35.6081C 44.7977 34.4675 45.2974 33.2835 45.6667 32.0668L 49.3166 31.4585C 50.87 31.1978 51.9997 29.8617 51.9997 28.2866L 51.9997 23.7134C 52.0214 22.1383 50.8917 20.8022 49.3383 20.5415ZM 49.0885 28.2866C 49.0885 28.4278 48.9907 28.5473 48.8495 28.569L 44.2872 29.3294C 43.7115 29.4272 43.2552 29.8508 43.114 30.4048C 42.7012 32.0017 42.0712 33.5333 41.2239 34.9563C 40.9306 35.456 40.9523 36.0752 41.2891 36.5532L 43.9722 40.3334C 44.0482 40.442 44.0373 40.605 43.9396 40.7027L 40.7025 43.9398C 40.6265 44.0159 40.5504 44.0267 40.4961 44.0267C 40.4309 44.0267 40.3766 44.005 40.3332 43.9724L 36.5638 41.2893C 36.0967 40.9526 35.4667 40.9309 34.967 41.2241C 33.544 42.0714 32.0123 42.7015 30.4155 43.1143C 29.8507 43.2555 29.427 43.7226 29.3401 44.2874L 28.5689 48.8498C 28.5471 48.991 28.4277 49.0888 28.2864 49.0888L 23.7132 49.0888C 23.572 49.0888 23.4525 48.991 23.4308 48.8498L 22.6704 44.2874C 22.5727 43.7117 22.149 43.2555 21.595 43.1143C 20.0417 42.7123 18.5426 42.0932 17.1413 41.2893C 16.9132 41.159 16.6525 41.0938 16.4027 41.0938C 16.1094 41.0938 15.8052 41.1807 15.5554 41.3654L 11.7534 44.0702C 11.6991 44.1028 11.6448 44.1245 11.5905 44.1245C 11.547 44.1245 11.4601 44.1136 11.3841 44.0376L 8.14702 40.8005C 8.04925 40.7027 8.03839 40.5507 8.11443 40.4312L 10.7866 36.6835C 11.1234 36.2056 11.1451 35.5755 10.8518 35.0758C 10.0045 33.6637 9.35278 32.132 8.93999 30.5352C 8.78792 29.9812 8.33168 29.5575 7.76682 29.4598L 3.17191 28.6777C 3.03069 28.6559 2.93293 28.5365 2.93293 28.3952L 2.93293 23.822C 2.93293 23.6808 3.03069 23.5613 3.17191 23.5396L 7.70165 22.7792C 8.27737 22.6814 8.74446 22.2578 8.88568 21.6929C 9.2876 20.0961 9.90677 18.5536 10.7432 17.1306C 11.0365 16.6309 11.0039 16.0117 10.6672 15.5446L 7.96235 11.7426C 7.88631 11.634 7.89717 11.4711 7.99494 11.3733L 11.232 8.1362C 11.3081 8.06016 11.3841 8.0493 11.4384 8.0493C 11.5036 8.0493 11.5579 8.07102 11.6014 8.10361L 15.349 10.7759C 15.8269 11.1126 16.457 11.1343 16.9567 10.841C 18.3688 9.99373 19.9004 9.34197 21.4973 8.92918C 22.0513 8.7771 22.4749 8.32087 22.5727 7.75601L 23.3548 3.16106C 23.3765 3.01985 23.496 2.92208 23.6372 2.92208L 28.2104 2.92208C 28.3516 2.92208 28.4711 3.01985 28.4928 3.16106L 29.2532 7.69083C 29.351 8.26656 29.7746 8.73365 30.3395 8.87487C 31.9798 9.28765 33.544 9.92856 34.9996 10.7867C 35.4993 11.08 36.1184 11.0583 36.5964 10.7215L 40.344 8.02757C 40.3983 7.99499 40.4527 7.97326 40.507 7.97326C 40.5504 7.97326 40.6373 7.98412 40.7134 8.06016L 43.9504 11.2973C 44.0482 11.395 44.0591 11.5471 43.983 11.6666L 41.2999 15.436C 40.9632 15.9031 40.9415 16.5331 41.2348 17.0328C 42.0821 18.4558 42.7121 19.9875 43.1249 21.5843C 43.2661 22.1492 43.7332 22.5728 44.298 22.6597L 48.8604 23.431C 49.0016 23.4527 49.0994 23.5722 49.0994 23.7134L 49.0994 28.2866L 49.0885 28.2866Z"/>
<path id="path1_fill" d="M 11.2212 7.69091e-07C 5.02942 7.69091e-07 6.63006e-07 5.02945 6.63006e-07 11.2212C 6.63006e-07 17.413 5.02942 22.4424 11.2212 22.4424C 17.4129 22.4424 22.4423 17.413 22.4423 11.2212C 22.4423 5.02945 17.4129 7.69091e-07 11.2212 7.69091e-07ZM 11.2212 19.5095C 6.64796 19.5095 2.93293 15.7944 2.93293 11.2212C 2.93293 6.64801 6.64796 2.93294 11.2212 2.93294C 15.7943 2.93294 19.5094 6.64801 19.5094 11.2212C 19.5094 15.7944 15.7943 19.5095 11.2212 19.5095Z"/>
</defs>
</svg>
