<svg width="24" height="24" viewBox="0 0 24 24" fill="none" xmlns="http://www.w3.org/2000/svg">
<path d="M20.4853 3.51469C18.2188 1.24823 15.2054 0 12 0C8.79469 0 5.78123 1.24819 3.51473 3.51469L3.51464 3.51473L3.51459 3.51478C1.24819 5.78133 0 8.79473 0 12C0 12 0 12.0001 0 12.0001V12.0001C4.6875e-05 14.6206 0.829875 17.1104 2.39986 19.2004C2.53266 19.3772 2.74092 19.4812 2.96203 19.4812H21.0381C21.2592 19.4812 21.4674 19.3772 21.6002 19.2003C23.1701 17.1103 23.9999 14.6205 24 12.0001V12.0001H24C24 12.0001 24 12 24 12C24 8.79469 22.7518 5.78119 20.4853 3.51469ZM20.6799 18.075H3.3202C2.20134 16.4815 1.55527 14.6425 1.42945 12.7032L2.20941 12.7031C2.59772 12.7031 2.91253 12.3883 2.91248 12C2.91248 11.6116 2.59763 11.2969 2.20931 11.2969L1.43016 11.2969C1.58775 8.90419 2.54287 6.72605 4.03214 5.02655L4.57983 5.57419C4.71712 5.71148 4.89703 5.78011 5.07698 5.78011C5.25694 5.78011 5.43689 5.71144 5.57419 5.57414C5.84878 5.29955 5.84873 4.85438 5.57414 4.57978L5.0265 4.03219C6.726 2.54292 8.90414 1.58775 11.2969 1.43016V2.20941C11.2969 2.59772 11.6117 2.91253 12 2.91253C12.3883 2.91253 12.7031 2.59772 12.7031 2.20941V1.43016C15.0959 1.58775 17.274 2.54292 18.9735 4.03223L18.4259 4.57978C18.1513 4.85433 18.1512 5.29955 18.4258 5.57414C18.5631 5.71144 18.7431 5.78011 18.923 5.78011C19.1029 5.78011 19.2828 5.71148 19.4201 5.57419L19.9678 5.02655C21.4571 6.72605 22.4122 8.90419 22.5698 11.2969L21.7906 11.2969C21.7906 11.2969 21.7906 11.2969 21.7906 11.2969C21.4023 11.2969 21.0875 11.6116 21.0875 12C21.0874 12.3883 21.4022 12.7031 21.7905 12.7031L22.5705 12.7032C22.4447 14.6425 21.7987 16.4814 20.6799 18.075Z" fill="white"/>
<path d="M9.74058 0H0.703125C0.314813 0 2.86102e-07 0.314812 2.86102e-07 0.703125C2.86102e-07 1.09144 0.314813 1.40625 0.703125 1.40625H9.74062C10.1289 1.40625 10.4437 1.09144 10.4437 0.703125C10.4437 0.314812 10.1289 0 9.74058 0Z" transform="translate(6.77814 22.5938)" fill="white"/>
<path d="M7.37016 0.205981C7.09566 -0.0686601 6.65044 -0.0686601 6.37584 0.205981L4.49972 2.08206C4.05131 1.80878 3.52495 1.65114 2.9625 1.65114C1.32895 1.65114 -1.88828e-07 2.98009 -1.88828e-07 4.61364C-1.88828e-07 6.24718 1.329 7.57614 2.9625 7.57614C4.59605 7.57614 5.92495 6.24714 5.92495 4.61364C5.92495 4.05118 5.76736 3.52487 5.49408 3.07642L7.37016 1.20034C7.64475 0.925746 7.64475 0.480574 7.37016 0.205981ZM2.96255 6.16989C2.10441 6.16989 1.4063 5.47173 1.4063 4.61364C1.4063 3.75554 2.10445 3.05739 2.96255 3.05739C3.82064 3.05739 4.51875 3.7555 4.51875 4.61364C4.51875 5.47178 3.82064 6.16989 2.96255 6.16989Z" transform="translate(9.03745 7.38647)" fill="white"/>
</svg>
