<svg width="64" height="64" viewBox="0 0 64 64" fill="none" xmlns="http://www.w3.org/2000/svg">
<path d="M54.6275 9.3725C48.5835 3.32863 40.5476 0 32 0C23.4525 0 15.4166 3.3285 9.37263 9.3725L9.37237 9.37263L9.37225 9.37275C3.3285 15.4169 0 23.4526 0 32C0 32.0001 0 32.0003 0 32.0003V32.0004C0.000125 38.9883 2.213 45.6276 6.39962 51.201C6.75375 51.6725 7.30912 51.9499 7.89875 51.9499H56.1015C56.6912 51.9499 57.2465 51.6725 57.6006 51.2009C61.787 45.6274 63.9997 38.988 63.9999 32.0004V32.0003H64C64 32.0003 64 32.0001 64 32C64 23.4525 60.6714 15.4165 54.6275 9.3725ZM55.1464 48.2H8.85388C5.87025 43.9508 4.14738 39.0468 3.81188 33.8751L5.89175 33.875C6.92725 33.875 7.76675 33.0354 7.76662 31.9999C7.76662 30.9644 6.927 30.125 5.8915 30.125L3.81375 30.1251C4.234 23.7445 6.781 17.9361 10.7524 13.4041L12.2129 14.8645C12.579 15.2306 13.0588 15.4136 13.5386 15.4136C14.0185 15.4136 14.4984 15.2305 14.8645 14.8644C15.5968 14.1321 15.5966 12.945 14.8644 12.2128L13.404 10.7525C17.936 6.78112 23.7444 4.234 30.125 3.81375V5.89175C30.125 6.92725 30.9645 7.76675 32 7.76675C33.0355 7.76675 33.875 6.92725 33.875 5.89175V3.81375C40.2556 4.234 46.064 6.78113 50.5961 10.7526L49.1356 12.2128C48.4034 12.9449 48.4033 14.1321 49.1354 14.8644C49.5015 15.2305 49.9815 15.4136 50.4613 15.4136C50.941 15.4136 51.4209 15.2306 51.7869 14.8645L53.2475 13.4041C57.219 17.9361 59.766 23.7445 60.1862 30.1251L58.1084 30.125C58.1082 30.125 58.1082 30.125 58.1082 30.125C57.0729 30.125 56.2334 30.9644 56.2332 31.9999C56.2331 33.0354 57.0726 33.875 58.1081 33.875L60.1881 33.8751C59.8525 39.0466 58.1299 43.9505 55.1464 48.2Z" fill="#304A52"/>
<path d="M25.9749 0H1.875C0.839501 0 7.62939e-07 0.8395 7.62939e-07 1.875C7.62939e-07 2.9105 0.839501 3.75 1.875 3.75H25.975C27.0105 3.75 27.85 2.9105 27.85 1.875C27.85 0.8395 27.0105 0 25.9749 0Z" transform="translate(18.075 60.25)" fill="#304A52"/>
<path d="M19.6537 0.549281C18.9217 -0.183094 17.7345 -0.183094 17.0022 0.549281L11.9992 5.55216C10.8035 4.82341 9.39987 4.40303 7.9 4.40303C3.54387 4.40303 -5.0354e-07 7.94691 -5.0354e-07 12.303C-5.0354e-07 16.6592 3.544 20.203 7.9 20.203C12.2561 20.203 15.7999 16.659 15.7999 12.303C15.7999 10.8032 15.3796 9.39966 14.6509 8.20378L19.6537 3.20091C20.386 2.46866 20.386 1.28153 19.6537 0.549281ZM7.90013 16.453C5.61175 16.453 3.75013 14.5913 3.75013 12.303C3.75013 10.0148 5.61188 8.15303 7.90013 8.15303C10.1884 8.15303 12.05 10.0147 12.05 12.303C12.05 14.5914 10.1884 16.453 7.90013 16.453Z" transform="translate(24.0999 19.697)" fill="#304A52"/>
</svg>
