<svg width="24" height="24" viewBox="0 0 24 24" version="1.1" xmlns="http://www.w3.org/2000/svg" xmlns:xlink="http://www.w3.org/1999/xlink">
<title>speedometer</title>
<desc>Created using Figma</desc>
<g id="Canvas" transform="translate(370 -2533)">
<g id="speedometer">
<g id="Group">
<g id="Group">
<g id="Vector">
<use xlink:href="#path0_fill" transform="translate(-370 2533)" fill="#FFFFFF"/>
</g>
</g>
</g>
<g id="Group">
<g id="Group">
<g id="Vector">
<use xlink:href="#path1_fill" transform="translate(-363.222 2555.59)" fill="#FFFFFF"/>
</g>
</g>
</g>
<g id="Group">
<g id="Group">
<g id="Vector">
<use xlink:href="#path2_fill" transform="translate(-360.963 2540.39)" fill="#FFFFFF"/>
</g>
</g>
</g>
</g>
</g>
<defs>
<path id="path0_fill" d="M 20.4853 3.51469C 18.2188 1.24823 15.2054 0 12 0C 8.79469 0 5.78123 1.24819 3.51473 3.51469L 3.51464 3.51473L 3.51459 3.51478C 1.24819 5.78133 0 8.79473 0 12C 0 12 0 12.0001 0 12.0001L 0 12.0001C 4.6875e-05 14.6206 0.829875 17.1104 2.39986 19.2004C 2.53266 19.3772 2.74092 19.4812 2.96203 19.4812L 21.0381 19.4812C 21.2592 19.4812 21.4674 19.3772 21.6002 19.2003C 23.1701 17.1103 23.9999 14.6205 24 12.0001L 24 12.0001L 24 12.0001C 24 12.0001 24 12 24 12C 24 8.79469 22.7518 5.78119 20.4853 3.51469ZM 20.6799 18.075L 3.3202 18.075C 2.20134 16.4815 1.55527 14.6425 1.42945 12.7032L 2.20941 12.7031C 2.59772 12.7031 2.91253 12.3883 2.91248 12C 2.91248 11.6116 2.59763 11.2969 2.20931 11.2969L 1.43016 11.2969C 1.58775 8.90419 2.54287 6.72605 4.03214 5.02655L 4.57983 5.57419C 4.71712 5.71148 4.89703 5.78011 5.07698 5.78011C 5.25694 5.78011 5.43689 5.71144 5.57419 5.57414C 5.84878 5.29955 5.84873 4.85438 5.57414 4.57978L 5.0265 4.03219C 6.726 2.54292 8.90414 1.58775 11.2969 1.43016L 11.2969 2.20941C 11.2969 2.59772 11.6117 2.91253 12 2.91253C 12.3883 2.91253 12.7031 2.59772 12.7031 2.20941L 12.7031 1.43016C 15.0959 1.58775 17.274 2.54292 18.9735 4.03223L 18.4259 4.57978C 18.1513 4.85433 18.1512 5.29955 18.4258 5.57414C 18.5631 5.71144 18.7431 5.78011 18.923 5.78011C 19.1029 5.78011 19.2828 5.71148 19.4201 5.57419L 19.9678 5.02655C 21.4571 6.72605 22.4122 8.90419 22.5698 11.2969L 21.7906 11.2969C 21.7906 11.2969 21.7906 11.2969 21.7906 11.2969C 21.4023 11.2969 21.0875 11.6116 21.0875 12C 21.0874 12.3883 21.4022 12.7031 21.7905 12.7031L 22.5705 12.7032C 22.4447 14.6425 21.7987 16.4814 20.6799 18.075Z"/>
<path id="path1_fill" d="M 9.74058 0L 0.703125 0C 0.314813 0 2.86102e-07 0.314812 2.86102e-07 0.703125C 2.86102e-07 1.09144 0.314813 1.40625 0.703125 1.40625L 9.74062 1.40625C 10.1289 1.40625 10.4437 1.09144 10.4437 0.703125C 10.4437 0.314812 10.1289 0 9.74058 0Z"/>
<path id="path2_fill" d="M 7.37016 0.205981C 7.09566 -0.0686601 6.65044 -0.0686601 6.37584 0.205981L 4.49972 2.08206C 4.05131 1.80878 3.52495 1.65114 2.9625 1.65114C 1.32895 1.65114 -1.88828e-07 2.98009 -1.88828e-07 4.61364C -1.88828e-07 6.24718 1.329 7.57614 2.9625 7.57614C 4.59605 7.57614 5.92495 6.24714 5.92495 4.61364C 5.92495 4.05118 5.76736 3.52487 5.49408 3.07642L 7.37016 1.20034C 7.64475 0.925746 7.64475 0.480574 7.37016 0.205981ZM 2.96255 6.16989C 2.10441 6.16989 1.4063 5.47173 1.4063 4.61364C 1.4063 3.75554 2.10445 3.05739 2.96255 3.05739C 3.82064 3.05739 4.51875 3.7555 4.51875 4.61364C 4.51875 5.47178 3.82064 6.16989 2.96255 6.16989Z"/>
</defs>
</svg>
