<svg width="16" height="16" viewBox="0 0 16 16" version="1.1" xmlns="http://www.w3.org/2000/svg" xmlns:xlink="http://www.w3.org/1999/xlink">
<title>star</title>
<desc>Created using Figma</desc>
<g id="Canvas" transform="translate(-817 -1733)">
<g id="star">
<g id="Vector">
<use xlink:href="#path0_fill" transform="translate(817 1733)" fill="#384A52"/>
</g>
</g>
</g>
<defs>
<path id="path0_fill" d="M 15.6528 7.25093C 15.9677 6.93057 16.0789 6.46039 15.943 6.02332C 15.8069 5.58626 15.4522 5.27425 15.0165 5.20804L 11.1425 4.62049C 10.9775 4.59541 10.8349 4.4874 10.7612 4.33123L 9.02922 0.667475C 8.83475 0.255821 8.44004 1.69025e-08 8.00016 1.69025e-08C 7.5606 1.69025e-08 7.16589 0.255821 6.97142 0.667475L 5.23912 4.33156C 5.16543 4.48773 5.02254 4.59574 4.85755 4.62082L 0.983502 5.20838C 0.548105 5.27425 0.193123 5.58659 0.0569613 6.02366C -0.0788801 6.46073 0.032292 6.9309 0.347226 7.25126L 3.15024 10.1031C 3.26974 10.2248 3.32452 10.4 3.29633 10.5712L 2.63506 14.5982C 2.57644 14.9526 2.6655 15.2974 2.88528 15.5693C 3.22681 15.993 3.82304 16.1221 4.29976 15.8606L 7.76436 13.9591C 7.90917 13.8799 8.09147 13.8805 8.23596 13.9591L 11.7009 15.8606C 11.8694 15.9532 12.0491 16 12.2346 16C 12.5733 16 12.8943 15.8428 13.115 15.5693C 13.3351 15.2974 13.4239 14.952 13.3653 14.5982L 12.7037 10.5712C 12.6755 10.3997 12.7303 10.2248 12.8498 10.1031L 15.6528 7.25093Z"/>
</defs>
</svg>
