<svg width="737" height="212" viewBox="0 0 737 212" version="1.1" xmlns="http://www.w3.org/2000/svg" xmlns:xlink="http://www.w3.org/1999/xlink">
<title>Group 2</title>
<desc>Created using Figma</desc>
<g id="Canvas" transform="translate(-115 -459)">
<g id="Group 2">
<g id="1239">
<use xlink:href="#path0_fill" transform="translate(166 527)" fill="#304A52"/>
</g>
<g id="sign up">
<use xlink:href="#path1_fill" transform="translate(182 584)" fill="#304A52" fill-opacity="0.3"/>
</g>
<g id="likes">
<use xlink:href="#path2_fill" transform="translate(457 584)" fill="#304A52" fill-opacity="0.3"/>
</g>
<g id="Comments">
<use xlink:href="#path3_fill" transform="translate(696 584)" fill="#304A52" fill-opacity="0.3"/>
</g>
<g id="6930">
<use xlink:href="#path4_fill" transform="translate(429 527)" fill="#304A52"/>
</g>
<g id="103">
<use xlink:href="#path5_fill" transform="translate(705 527)" fill="#304A52"/>
</g>
<g id="Group">
<g id="Vector">
<use xlink:href="#path6_stroke" transform="translate(120 464)" fill="#D5DCE2"/>
</g>
<g id="Vector">
<use xlink:href="#path7_stroke" transform="translate(120 464)" fill="#49C5B5"/>
</g>
</g>
<g id="Group">
<g id="Vector">
<use xlink:href="#path6_stroke" transform="translate(382.172 464)" fill="#D5DCE2"/>
</g>
<g id="Vector">
<use xlink:href="#path8_stroke" transform="translate(382.172 464)" fill="#4C84C1"/>
</g>
<g id="Vector">
<use xlink:href="#path9_stroke" transform="translate(644.96 464)" fill="#D5DCE2"/>
</g>
<g id="Vector">
<use xlink:href="#path10_stroke" transform="translate(665.437 625.736)" fill="#BF4C4C"/>
</g>
</g>
</g>
</g>
<defs>
<path id="path0_fill" d="M 23.2875 39.8375L 23.2875 44L 5.2875 44L 5.2875 39.8375L 11.88 39.8375L 11.88 20.87C 11.88 20.12 11.9025 19.3475 11.9475 18.5525L 7.2675 22.4675C 6.9975 22.6775 6.7275 22.8125 6.4575 22.8725C 6.2025 22.9175 5.955 22.9175 5.715 22.8725C 5.49 22.8275 5.2875 22.7525 5.1075 22.6475C 4.9275 22.5275 4.7925 22.4 4.7025 22.265L 2.9475 19.8575L 12.87 11.42L 17.4375 11.42L 17.4375 39.8375L 23.2875 39.8375ZM 48.176 38.825C 48.776 38.825 49.2485 38.9975 49.5935 39.3425C 49.9535 39.6725 50.1335 40.115 50.1335 40.67L 50.1335 44L 27.8135 44L 27.8135 42.155C 27.8135 41.78 27.8885 41.39 28.0385 40.985C 28.2035 40.565 28.4585 40.19 28.8035 39.86L 38.681 29.96C 39.506 29.12 40.241 28.3175 40.886 27.5525C 41.546 26.7875 42.0935 26.03 42.5285 25.28C 42.9635 24.53 43.2935 23.7725 43.5185 23.0075C 43.7585 22.2275 43.8785 21.41 43.8785 20.555C 43.8785 19.775 43.766 19.0925 43.541 18.5075C 43.316 17.9075 42.9935 17.405 42.5735 17C 42.1685 16.595 41.6735 16.295 41.0885 16.1C 40.5185 15.89 39.8735 15.785 39.1535 15.785C 38.4935 15.785 37.8785 15.8825 37.3085 16.0775C 36.7535 16.2575 36.2585 16.52 35.8235 16.865C 35.3885 17.195 35.021 17.585 34.721 18.035C 34.421 18.485 34.196 18.98 34.046 19.52C 33.791 20.21 33.461 20.6675 33.056 20.8925C 32.651 21.1175 32.066 21.17 31.301 21.05L 28.376 20.5325C 28.601 18.9725 29.036 17.6075 29.681 16.4375C 30.326 15.2525 31.1285 14.27 32.0885 13.49C 33.0635 12.695 34.1735 12.1025 35.4185 11.7125C 36.6785 11.3075 38.0285 11.105 39.4685 11.105C 40.9685 11.105 42.341 11.33 43.586 11.78C 44.831 12.215 45.896 12.8375 46.781 13.6475C 47.666 14.4575 48.356 15.4325 48.851 16.5725C 49.346 17.7125 49.5935 18.98 49.5935 20.375C 49.5935 21.575 49.4135 22.685 49.0535 23.705C 48.7085 24.725 48.236 25.7 47.636 26.63C 47.051 27.56 46.361 28.46 45.566 29.33C 44.771 30.2 43.9385 31.085 43.0685 31.985L 35.7335 39.4775C 36.4385 39.2675 37.136 39.11 37.826 39.005C 38.531 38.885 39.1985 38.825 39.8285 38.825L 48.176 38.825ZM 54.637 20.5325C 54.862 18.9725 55.297 17.6075 55.942 16.4375C 56.587 15.2525 57.3895 14.27 58.3495 13.49C 59.3245 12.695 60.4345 12.1025 61.6795 11.7125C 62.9395 11.3075 64.2895 11.105 65.7295 11.105C 67.2295 11.105 68.5795 11.3225 69.7795 11.7575C 70.9945 12.1775 72.0295 12.77 72.8845 13.535C 73.7395 14.285 74.392 15.17 74.842 16.19C 75.307 17.21 75.5395 18.3125 75.5395 19.4975C 75.5395 20.5325 75.4195 21.4475 75.1795 22.2425C 74.9545 23.0225 74.6245 23.705 74.1895 24.29C 73.7545 24.875 73.2145 25.37 72.5695 25.775C 71.9245 26.18 71.197 26.5175 70.387 26.7875C 72.337 27.4025 73.792 28.34 74.752 29.6C 75.712 30.86 76.192 32.4425 76.192 34.3475C 76.192 35.9675 75.892 37.4 75.292 38.645C 74.692 39.89 73.882 40.94 72.862 41.795C 71.842 42.635 70.657 43.2725 69.307 43.7075C 67.972 44.1425 66.5545 44.36 65.0545 44.36C 63.4195 44.36 61.9945 44.1725 60.7795 43.7975C 59.5645 43.4225 58.507 42.8675 57.607 42.1325C 56.707 41.3975 55.942 40.4975 55.312 39.4325C 54.682 38.3675 54.142 37.1375 53.692 35.7425L 56.1445 34.73C 56.7895 34.46 57.3895 34.3925 57.9445 34.5275C 58.5145 34.6475 58.927 34.9475 59.182 35.4275C 59.452 35.9525 59.7445 36.47 60.0595 36.98C 60.3895 37.49 60.7795 37.9475 61.2295 38.3525C 61.6795 38.7425 62.2045 39.065 62.8045 39.32C 63.4195 39.56 64.147 39.68 64.987 39.68C 65.932 39.68 66.757 39.53 67.462 39.23C 68.167 38.915 68.752 38.51 69.217 38.015C 69.697 37.52 70.0495 36.9725 70.2745 36.3725C 70.5145 35.7575 70.6345 35.1425 70.6345 34.5275C 70.6345 33.7475 70.552 33.0425 70.387 32.4125C 70.222 31.7675 69.877 31.22 69.352 30.77C 68.827 30.32 68.0695 29.9675 67.0795 29.7125C 66.1045 29.4575 64.792 29.33 63.142 29.33L 63.142 25.37C 64.507 25.355 65.6395 25.2275 66.5395 24.9875C 67.4395 24.7475 68.152 24.4175 68.677 23.9975C 69.217 23.5625 69.592 23.045 69.802 22.445C 70.012 21.845 70.117 21.185 70.117 20.465C 70.117 18.935 69.6895 17.7725 68.8345 16.9775C 67.9795 16.1825 66.8395 15.785 65.4145 15.785C 64.7545 15.785 64.147 15.8825 63.592 16.0775C 63.037 16.2575 62.5345 16.52 62.0845 16.865C 61.6495 17.195 61.282 17.585 60.982 18.035C 60.682 18.485 60.457 18.98 60.307 19.52C 60.052 20.21 59.7145 20.6675 59.2945 20.8925C 58.8895 21.1175 58.312 21.17 57.562 21.05L 54.637 20.5325ZM 85.7355 21.23C 85.7355 23.045 86.2005 24.4325 87.1305 25.3925C 88.0755 26.3375 89.4105 26.81 91.1355 26.81C 92.0355 26.81 92.838 26.6675 93.543 26.3825C 94.248 26.0975 94.8405 25.7075 95.3205 25.2125C 95.8005 24.7175 96.1605 24.1325 96.4005 23.4575C 96.6555 22.7825 96.783 22.055 96.783 21.275C 96.783 20.39 96.648 19.6025 96.378 18.9125C 96.108 18.2075 95.7255 17.615 95.2305 17.135C 94.7355 16.655 94.143 16.2875 93.453 16.0325C 92.778 15.7775 92.0355 15.65 91.2255 15.65C 90.3855 15.65 89.628 15.7925 88.953 16.0775C 88.278 16.3475 87.7005 16.73 87.2205 17.225C 86.7405 17.72 86.373 18.3125 86.118 19.0025C 85.863 19.6775 85.7355 20.42 85.7355 21.23ZM 93.1155 31.3775C 93.3705 31.0625 93.6105 30.755 93.8355 30.455C 94.0605 30.155 94.278 29.855 94.488 29.555C 93.738 30.035 92.913 30.4025 92.013 30.6575C 91.113 30.8975 90.168 31.0175 89.178 31.0175C 88.053 31.0175 86.9505 30.8225 85.8705 30.4325C 84.7905 30.0425 83.8305 29.4575 82.9905 28.6775C 82.1505 27.8825 81.468 26.9075 80.943 25.7525C 80.433 24.5825 80.178 23.2175 80.178 21.6575C 80.178 20.2025 80.448 18.8375 80.988 17.5625C 81.528 16.2875 82.2855 15.17 83.2605 14.21C 84.2355 13.25 85.4055 12.4925 86.7705 11.9375C 88.1355 11.3825 89.643 11.105 91.293 11.105C 92.958 11.105 94.4505 11.3675 95.7705 11.8925C 97.1055 12.4175 98.238 13.1525 99.168 14.0975C 100.113 15.0425 100.833 16.175 101.328 17.495C 101.838 18.815 102.093 20.2625 102.093 21.8375C 102.093 22.8425 102.003 23.795 101.823 24.695C 101.658 25.595 101.418 26.465 101.103 27.305C 100.788 28.13 100.406 28.94 99.9555 29.735C 99.5055 30.53 99.003 31.3175 98.448 32.0975L 91.0005 42.7175C 90.7455 43.0775 90.363 43.385 89.853 43.64C 89.343 43.88 88.7655 44 88.1205 44L 83.013 44L 93.1155 31.3775Z"/>
<path id="path1_fill" d="M 8.379 7.353C 8.307 7.479 8.229 7.572 8.145 7.632C 8.067 7.686 7.968 7.713 7.848 7.713C 7.722 7.713 7.584 7.668 7.434 7.578C 7.29 7.482 7.116 7.377 6.912 7.263C 6.708 7.149 6.468 7.047 6.192 6.957C 5.922 6.861 5.601 6.813 5.229 6.813C 4.893 6.813 4.599 6.855 4.347 6.939C 4.095 7.017 3.882 7.128 3.708 7.272C 3.54 7.416 3.414 7.59 3.33 7.794C 3.246 7.992 3.204 8.211 3.204 8.451C 3.204 8.757 3.288 9.012 3.456 9.216C 3.63 9.42 3.858 9.594 4.14 9.738C 4.422 9.882 4.743 10.011 5.103 10.125C 5.463 10.239 5.832 10.362 6.21 10.494C 6.588 10.62 6.957 10.77 7.317 10.944C 7.677 11.112 7.998 11.328 8.28 11.592C 8.562 11.85 8.787 12.168 8.955 12.546C 9.129 12.924 9.216 13.383 9.216 13.923C 9.216 14.511 9.114 15.063 8.91 15.579C 8.712 16.089 8.418 16.536 8.028 16.92C 7.644 17.298 7.173 17.598 6.615 17.82C 6.057 18.036 5.418 18.144 4.698 18.144C 4.284 18.144 3.876 18.102 3.474 18.018C 3.072 17.94 2.685 17.826 2.313 17.676C 1.947 17.526 1.602 17.346 1.278 17.136C 0.954 16.926 0.666 16.692 0.414 16.434L 1.125 15.273C 1.185 15.189 1.263 15.12 1.359 15.066C 1.455 15.006 1.557 14.976 1.665 14.976C 1.815 14.976 1.977 15.039 2.151 15.165C 2.325 15.285 2.532 15.42 2.772 15.57C 3.012 15.72 3.291 15.858 3.609 15.984C 3.933 16.104 4.32 16.164 4.77 16.164C 5.46 16.164 5.994 16.002 6.372 15.678C 6.75 15.348 6.939 14.877 6.939 14.265C 6.939 13.923 6.852 13.644 6.678 13.428C 6.51 13.212 6.285 13.032 6.003 12.888C 5.721 12.738 5.4 12.612 5.04 12.51C 4.68 12.408 4.314 12.297 3.942 12.177C 3.57 12.057 3.204 11.913 2.844 11.745C 2.484 11.577 2.163 11.358 1.881 11.088C 1.599 10.818 1.371 10.482 1.197 10.08C 1.029 9.672 0.945 9.171 0.945 8.577C 0.945 8.103 1.038 7.641 1.224 7.191C 1.416 6.741 1.692 6.342 2.052 5.994C 2.412 5.646 2.856 5.367 3.384 5.157C 3.912 4.947 4.518 4.842 5.202 4.842C 5.97 4.842 6.678 4.962 7.326 5.202C 7.974 5.442 8.526 5.778 8.982 6.21L 8.379 7.353ZM 13.7579 18L 11.3279 18L 11.3279 4.986L 13.7579 4.986L 13.7579 18ZM 27.3997 11.475L 27.3997 16.74C 26.7397 17.226 26.0347 17.583 25.2847 17.811C 24.5407 18.033 23.7427 18.144 22.8907 18.144C 21.8287 18.144 20.8657 17.979 20.0017 17.649C 19.1437 17.319 18.4087 16.86 17.7967 16.272C 17.1907 15.684 16.7227 14.982 16.3927 14.166C 16.0627 13.35 15.8977 12.459 15.8977 11.493C 15.8977 10.515 16.0567 9.618 16.3747 8.802C 16.6927 7.986 17.1427 7.284 17.7247 6.696C 18.3127 6.108 19.0237 5.652 19.8577 5.328C 20.6917 5.004 21.6277 4.842 22.6657 4.842C 23.1937 4.842 23.6857 4.884 24.1417 4.968C 24.6037 5.052 25.0297 5.169 25.4197 5.319C 25.8157 5.463 26.1757 5.64 26.4997 5.85C 26.8237 6.06 27.1207 6.291 27.3907 6.543L 26.6977 7.641C 26.5897 7.815 26.4487 7.923 26.2747 7.965C 26.1007 8.001 25.9117 7.956 25.7077 7.83C 25.5097 7.716 25.3117 7.602 25.1137 7.488C 24.9157 7.374 24.6937 7.275 24.4477 7.191C 24.2077 7.107 23.9347 7.038 23.6287 6.984C 23.3287 6.93 22.9807 6.903 22.5847 6.903C 21.9427 6.903 21.3607 7.011 20.8387 7.227C 20.3227 7.443 19.8817 7.752 19.5157 8.154C 19.1497 8.556 18.8677 9.039 18.6697 9.603C 18.4717 10.167 18.3727 10.797 18.3727 11.493C 18.3727 12.237 18.4777 12.903 18.6877 13.491C 18.9037 14.073 19.2037 14.568 19.5877 14.976C 19.9777 15.378 20.4457 15.687 20.9917 15.903C 21.5377 16.113 22.1467 16.218 22.8187 16.218C 23.2987 16.218 23.7277 16.167 24.1057 16.065C 24.4837 15.963 24.8527 15.825 25.2127 15.651L 25.2127 13.293L 23.5747 13.293C 23.4187 13.293 23.2957 13.251 23.2057 13.167C 23.1217 13.077 23.0797 12.969 23.0797 12.843L 23.0797 11.475L 27.3997 11.475ZM 40.7032 4.986L 40.7032 18L 39.4612 18C 39.2692 18 39.1072 17.97 38.9752 17.91C 38.8492 17.844 38.7262 17.736 38.6062 17.586L 31.8112 8.91C 31.8472 9.306 31.8652 9.672 31.8652 10.008L 31.8652 18L 29.7322 18L 29.7322 4.986L 31.0012 4.986C 31.1032 4.986 31.1902 4.992 31.2622 5.004C 31.3402 5.01 31.4062 5.028 31.4602 5.058C 31.5202 5.082 31.5772 5.121 31.6312 5.175C 31.6852 5.223 31.7452 5.289 31.8112 5.373L 38.6332 14.085C 38.6152 13.875 38.6002 13.668 38.5882 13.464C 38.5762 13.26 38.5702 13.071 38.5702 12.897L 38.5702 4.986L 40.7032 4.986ZM 53.2163 16.047C 53.6843 16.047 54.1013 15.969 54.4673 15.813C 54.8393 15.657 55.1513 15.438 55.4033 15.156C 55.6553 14.874 55.8473 14.532 55.9793 14.13C 56.1173 13.728 56.1863 13.278 56.1863 12.78L 56.1863 4.986L 58.6073 4.986L 58.6073 12.78C 58.6073 13.554 58.4813 14.271 58.2293 14.931C 57.9833 15.585 57.6263 16.152 57.1583 16.632C 56.6963 17.106 56.1323 17.478 55.4663 17.748C 54.8003 18.012 54.0503 18.144 53.2163 18.144C 52.3763 18.144 51.6233 18.012 50.9573 17.748C 50.2913 17.478 49.7243 17.106 49.2563 16.632C 48.7943 16.152 48.4373 15.585 48.1853 14.931C 47.9393 14.271 47.8163 13.554 47.8163 12.78L 47.8163 4.986L 50.2373 4.986L 50.2373 12.771C 50.2373 13.269 50.3033 13.719 50.4353 14.121C 50.5733 14.523 50.7683 14.868 51.0203 15.156C 51.2783 15.438 51.5903 15.657 51.9563 15.813C 52.3283 15.969 52.7483 16.047 53.2163 16.047ZM 65.5677 11.529C 66.0117 11.529 66.3987 11.475 66.7287 11.367C 67.0587 11.253 67.3317 11.094 67.5477 10.89C 67.7697 10.68 67.9347 10.428 68.0427 10.134C 68.1507 9.834 68.2047 9.501 68.2047 9.135C 68.2047 8.787 68.1507 8.472 68.0427 8.19C 67.9347 7.908 67.7727 7.668 67.5567 7.47C 67.3407 7.272 67.0677 7.122 66.7377 7.02C 66.4077 6.912 66.0177 6.858 65.5677 6.858L 63.7587 6.858L 63.7587 11.529L 65.5677 11.529ZM 65.5677 4.986C 66.4377 4.986 67.1907 5.088 67.8267 5.292C 68.4627 5.496 68.9877 5.781 69.4017 6.147C 69.8157 6.513 70.1217 6.951 70.3197 7.461C 70.5237 7.971 70.6257 8.529 70.6257 9.135C 70.6257 9.765 70.5207 10.344 70.3107 10.872C 70.1007 11.394 69.7857 11.844 69.3657 12.222C 68.9457 12.6 68.4177 12.894 67.7817 13.104C 67.1517 13.314 66.4137 13.419 65.5677 13.419L 63.7587 13.419L 63.7587 18L 61.3377 18L 61.3377 4.986L 65.5677 4.986Z"/>
<path id="path2_fill" d="M 9.072 16.002L 9.072 18L 1.449 18L 1.449 4.986L 3.87 4.986L 3.87 16.002L 9.072 16.002ZM 13.2306 18L 10.8006 18L 10.8006 4.986L 13.2306 4.986L 13.2306 18ZM 18.5653 10.44L 19.1323 10.44C 19.3603 10.44 19.5493 10.41 19.6993 10.35C 19.8493 10.284 19.9783 10.182 20.0863 10.044L 23.6773 5.499C 23.8273 5.307 23.9833 5.175 24.1453 5.103C 24.3133 5.025 24.5233 4.986 24.7753 4.986L 26.8633 4.986L 22.4803 10.395C 22.2223 10.725 21.9553 10.959 21.6793 11.097C 21.8773 11.169 22.0543 11.271 22.2103 11.403C 22.3723 11.529 22.5253 11.697 22.6693 11.907L 27.1873 18L 25.0543 18C 24.7663 18 24.5503 17.961 24.4063 17.883C 24.2683 17.799 24.1513 17.679 24.0553 17.523L 20.3743 12.717C 20.2603 12.555 20.1283 12.441 19.9783 12.375C 19.8283 12.309 19.6123 12.276 19.3303 12.276L 18.5653 12.276L 18.5653 18L 16.1443 18L 16.1443 4.986L 18.5653 4.986L 18.5653 10.44ZM 30.9142 6.912L 30.9142 10.521L 35.4682 10.521L 35.4682 12.384L 30.9142 12.384L 30.9142 16.065L 36.6922 16.065L 36.6922 18L 28.4842 18L 28.4842 4.986L 36.6922 4.986L 36.6922 6.912L 30.9142 6.912ZM 45.7677 7.353C 45.6957 7.479 45.6177 7.572 45.5337 7.632C 45.4557 7.686 45.3567 7.713 45.2367 7.713C 45.1107 7.713 44.9727 7.668 44.8227 7.578C 44.6787 7.482 44.5047 7.377 44.3007 7.263C 44.0967 7.149 43.8567 7.047 43.5807 6.957C 43.3107 6.861 42.9897 6.813 42.6177 6.813C 42.2817 6.813 41.9877 6.855 41.7357 6.939C 41.4837 7.017 41.2707 7.128 41.0967 7.272C 40.9287 7.416 40.8027 7.59 40.7187 7.794C 40.6347 7.992 40.5927 8.211 40.5927 8.451C 40.5927 8.757 40.6767 9.012 40.8447 9.216C 41.0187 9.42 41.2467 9.594 41.5287 9.738C 41.8107 9.882 42.1317 10.011 42.4917 10.125C 42.8517 10.239 43.2207 10.362 43.5987 10.494C 43.9767 10.62 44.3457 10.77 44.7057 10.944C 45.0657 11.112 45.3867 11.328 45.6687 11.592C 45.9507 11.85 46.1757 12.168 46.3437 12.546C 46.5177 12.924 46.6047 13.383 46.6047 13.923C 46.6047 14.511 46.5027 15.063 46.2987 15.579C 46.1007 16.089 45.8067 16.536 45.4167 16.92C 45.0327 17.298 44.5617 17.598 44.0037 17.82C 43.4457 18.036 42.8067 18.144 42.0867 18.144C 41.6727 18.144 41.2647 18.102 40.8627 18.018C 40.4607 17.94 40.0737 17.826 39.7017 17.676C 39.3357 17.526 38.9907 17.346 38.6667 17.136C 38.3427 16.926 38.0547 16.692 37.8027 16.434L 38.5137 15.273C 38.5737 15.189 38.6517 15.12 38.7477 15.066C 38.8437 15.006 38.9457 14.976 39.0537 14.976C 39.2037 14.976 39.3657 15.039 39.5397 15.165C 39.7137 15.285 39.9207 15.42 40.1607 15.57C 40.4007 15.72 40.6797 15.858 40.9977 15.984C 41.3217 16.104 41.7087 16.164 42.1587 16.164C 42.8487 16.164 43.3827 16.002 43.7607 15.678C 44.1387 15.348 44.3277 14.877 44.3277 14.265C 44.3277 13.923 44.2407 13.644 44.0667 13.428C 43.8987 13.212 43.6737 13.032 43.3917 12.888C 43.1097 12.738 42.7887 12.612 42.4287 12.51C 42.0687 12.408 41.7027 12.297 41.3307 12.177C 40.9587 12.057 40.5927 11.913 40.2327 11.745C 39.8727 11.577 39.5517 11.358 39.2697 11.088C 38.9877 10.818 38.7597 10.482 38.5857 10.08C 38.4177 9.672 38.3337 9.171 38.3337 8.577C 38.3337 8.103 38.4267 7.641 38.6127 7.191C 38.8047 6.741 39.0807 6.342 39.4407 5.994C 39.8007 5.646 40.2447 5.367 40.7727 5.157C 41.3007 4.947 41.9067 4.842 42.5907 4.842C 43.3587 4.842 44.0667 4.962 44.7147 5.202C 45.3627 5.442 45.9147 5.778 46.3707 6.21L 45.7677 7.353Z"/>
<path id="path3_fill" d="M 10.386 14.931C 10.518 14.931 10.635 14.982 10.737 15.084L 11.691 16.119C 11.163 16.773 10.512 17.274 9.738 17.622C 8.97 17.97 8.046 18.144 6.966 18.144C 6 18.144 5.13 17.979 4.356 17.649C 3.588 17.319 2.931 16.86 2.385 16.272C 1.839 15.684 1.419 14.982 1.125 14.166C 0.837 13.35 0.693 12.459 0.693 11.493C 0.693 10.515 0.849 9.621 1.161 8.811C 1.473 7.995 1.911 7.293 2.475 6.705C 3.045 6.117 3.723 5.661 4.509 5.337C 5.295 5.007 6.165 4.842 7.119 4.842C 8.067 4.842 8.907 4.998 9.639 5.31C 10.377 5.622 11.004 6.03 11.52 6.534L 10.71 7.659C 10.662 7.731 10.599 7.794 10.521 7.848C 10.449 7.902 10.347 7.929 10.215 7.929C 10.125 7.929 10.032 7.905 9.936 7.857C 9.84 7.803 9.735 7.74 9.621 7.668C 9.507 7.59 9.375 7.506 9.225 7.416C 9.075 7.326 8.901 7.245 8.703 7.173C 8.505 7.095 8.274 7.032 8.01 6.984C 7.752 6.93 7.452 6.903 7.11 6.903C 6.528 6.903 5.994 7.008 5.508 7.218C 5.028 7.422 4.614 7.722 4.266 8.118C 3.918 8.508 3.648 8.988 3.456 9.558C 3.264 10.122 3.168 10.767 3.168 11.493C 3.168 12.225 3.27 12.876 3.474 13.446C 3.684 14.016 3.966 14.496 4.32 14.886C 4.674 15.276 5.091 15.576 5.571 15.786C 6.051 15.99 6.567 16.092 7.119 16.092C 7.449 16.092 7.746 16.074 8.01 16.038C 8.28 16.002 8.526 15.945 8.748 15.867C 8.976 15.789 9.189 15.69 9.387 15.57C 9.591 15.444 9.792 15.291 9.99 15.111C 10.05 15.057 10.113 15.015 10.179 14.985C 10.245 14.949 10.314 14.931 10.386 14.931ZM 25.4791 11.493C 25.4791 12.447 25.3201 13.332 25.0021 14.148C 24.6901 14.958 24.2461 15.66 23.6701 16.254C 23.0941 16.848 22.4011 17.313 21.5911 17.649C 20.7811 17.979 19.8811 18.144 18.8911 18.144C 17.9071 18.144 17.0101 17.979 16.2001 17.649C 15.3901 17.313 14.6941 16.848 14.1121 16.254C 13.5361 15.66 13.0891 14.958 12.7711 14.148C 12.4531 13.332 12.2941 12.447 12.2941 11.493C 12.2941 10.539 12.4531 9.657 12.7711 8.847C 13.0891 8.031 13.5361 7.326 14.1121 6.732C 14.6941 6.138 15.3901 5.676 16.2001 5.346C 17.0101 5.01 17.9071 4.842 18.8911 4.842C 19.5511 4.842 20.1721 4.92 20.7541 5.076C 21.3361 5.226 21.8701 5.442 22.3561 5.724C 22.8421 6 23.2771 6.339 23.6611 6.741C 24.0511 7.137 24.3811 7.581 24.6511 8.073C 24.9211 8.565 25.1251 9.099 25.2631 9.675C 25.4071 10.251 25.4791 10.857 25.4791 11.493ZM 23.0041 11.493C 23.0041 10.779 22.9081 10.14 22.7161 9.576C 22.5241 9.006 22.2511 8.523 21.8971 8.127C 21.5431 7.731 21.1111 7.428 20.6011 7.218C 20.0971 7.008 19.5271 6.903 18.8911 6.903C 18.2551 6.903 17.6821 7.008 17.1721 7.218C 16.6681 7.428 16.2361 7.731 15.8761 8.127C 15.5221 8.523 15.2491 9.006 15.0571 9.576C 14.8651 10.14 14.7691 10.779 14.7691 11.493C 14.7691 12.207 14.8651 12.849 15.0571 13.419C 15.2491 13.983 15.5221 14.463 15.8761 14.859C 16.2361 15.249 16.6681 15.549 17.1721 15.759C 17.6821 15.969 18.2551 16.074 18.8911 16.074C 19.5271 16.074 20.0971 15.969 20.6011 15.759C 21.1111 15.549 21.5431 15.249 21.8971 14.859C 22.2511 14.463 22.5241 13.983 22.7161 13.419C 22.9081 12.849 23.0041 12.207 23.0041 11.493ZM 41.7172 4.986L 41.7172 18L 39.5842 18L 39.5842 9.594C 39.5842 9.258 39.6022 8.895 39.6383 8.505L 35.7052 15.894C 35.5193 16.248 35.2342 16.425 34.8503 16.425L 34.5082 16.425C 34.1243 16.425 33.8392 16.248 33.6533 15.894L 29.6753 8.478C 29.6933 8.676 29.7083 8.871 29.7202 9.063C 29.7322 9.255 29.7383 9.432 29.7383 9.594L 29.7383 18L 27.6052 18L 27.6052 4.986L 29.4322 4.986C 29.5402 4.986 29.6333 4.989 29.7113 4.995C 29.7893 5.001 29.8582 5.016 29.9183 5.04C 29.9842 5.064 30.0413 5.103 30.0893 5.157C 30.1432 5.211 30.1942 5.283 30.2422 5.373L 34.1393 12.6C 34.2412 12.792 34.3343 12.99 34.4182 13.194C 34.5082 13.398 34.5952 13.608 34.6793 13.824C 34.7633 13.602 34.8503 13.389 34.9403 13.185C 35.0303 12.975 35.1263 12.774 35.2283 12.582L 39.0712 5.373C 39.1193 5.283 39.1702 5.211 39.2243 5.157C 39.2782 5.103 39.3352 5.064 39.3952 5.04C 39.4613 5.016 39.5333 5.001 39.6113 4.995C 39.6892 4.989 39.7823 4.986 39.8903 4.986L 41.7172 4.986ZM 58.7329 4.986L 58.7329 18L 56.5999 18L 56.5999 9.594C 56.5999 9.258 56.6179 8.895 56.6539 8.505L 52.7209 15.894C 52.5349 16.248 52.2499 16.425 51.8659 16.425L 51.5239 16.425C 51.1399 16.425 50.8549 16.248 50.6689 15.894L 46.6909 8.478C 46.7089 8.676 46.7239 8.871 46.7359 9.063C 46.7479 9.255 46.7539 9.432 46.7539 9.594L 46.7539 18L 44.6209 18L 44.6209 4.986L 46.4479 4.986C 46.5559 4.986 46.6489 4.989 46.7269 4.995C 46.8049 5.001 46.8739 5.016 46.9339 5.04C 46.9999 5.064 47.0569 5.103 47.1049 5.157C 47.1589 5.211 47.2099 5.283 47.2579 5.373L 51.1549 12.6C 51.2569 12.792 51.3499 12.99 51.4339 13.194C 51.5239 13.398 51.6109 13.608 51.6949 13.824C 51.7789 13.602 51.8659 13.389 51.9559 13.185C 52.0459 12.975 52.1419 12.774 52.2439 12.582L 56.0869 5.373C 56.1349 5.283 56.1859 5.211 56.2399 5.157C 56.2939 5.103 56.3509 5.064 56.4109 5.04C 56.4769 5.016 56.5489 5.001 56.6269 4.995C 56.7049 4.989 56.7979 4.986 56.9059 4.986L 58.7329 4.986ZM 64.0665 6.912L 64.0665 10.521L 68.6205 10.521L 68.6205 12.384L 64.0665 12.384L 64.0665 16.065L 69.8445 16.065L 69.8445 18L 61.6365 18L 61.6365 4.986L 69.8445 4.986L 69.8445 6.912L 64.0665 6.912ZM 82.961 4.986L 82.961 18L 81.719 18C 81.527 18 81.365 17.97 81.233 17.91C 81.107 17.844 80.984 17.736 80.864 17.586L 74.069 8.91C 74.105 9.306 74.123 9.672 74.123 10.008L 74.123 18L 71.99 18L 71.99 4.986L 73.259 4.986C 73.361 4.986 73.448 4.992 73.52 5.004C 73.598 5.01 73.664 5.028 73.718 5.058C 73.778 5.082 73.835 5.121 73.889 5.175C 73.943 5.223 74.003 5.289 74.069 5.373L 80.891 14.085C 80.873 13.875 80.858 13.668 80.846 13.464C 80.834 13.26 80.828 13.071 80.828 12.897L 80.828 4.986L 82.961 4.986ZM 94.9492 6.975L 91.0252 6.975L 91.0252 18L 88.6042 18L 88.6042 6.975L 84.6802 6.975L 84.6802 4.986L 94.9492 4.986L 94.9492 6.975ZM 103.547 7.353C 103.475 7.479 103.397 7.572 103.313 7.632C 103.235 7.686 103.136 7.713 103.016 7.713C 102.89 7.713 102.752 7.668 102.602 7.578C 102.458 7.482 102.284 7.377 102.08 7.263C 101.876 7.149 101.636 7.047 101.36 6.957C 101.09 6.861 100.769 6.813 100.397 6.813C 100.061 6.813 99.767 6.855 99.515 6.939C 99.263 7.017 99.05 7.128 98.876 7.272C 98.708 7.416 98.582 7.59 98.498 7.794C 98.414 7.992 98.372 8.211 98.372 8.451C 98.372 8.757 98.456 9.012 98.624 9.216C 98.798 9.42 99.026 9.594 99.308 9.738C 99.59 9.882 99.911 10.011 100.271 10.125C 100.631 10.239 101 10.362 101.378 10.494C 101.756 10.62 102.125 10.77 102.485 10.944C 102.845 11.112 103.166 11.328 103.448 11.592C 103.73 11.85 103.955 12.168 104.123 12.546C 104.297 12.924 104.384 13.383 104.384 13.923C 104.384 14.511 104.282 15.063 104.078 15.579C 103.88 16.089 103.586 16.536 103.196 16.92C 102.812 17.298 102.341 17.598 101.783 17.82C 101.225 18.036 100.586 18.144 99.866 18.144C 99.452 18.144 99.044 18.102 98.642 18.018C 98.24 17.94 97.853 17.826 97.481 17.676C 97.115 17.526 96.77 17.346 96.446 17.136C 96.122 16.926 95.834 16.692 95.582 16.434L 96.293 15.273C 96.353 15.189 96.431 15.12 96.527 15.066C 96.623 15.006 96.725 14.976 96.833 14.976C 96.983 14.976 97.145 15.039 97.319 15.165C 97.493 15.285 97.7 15.42 97.94 15.57C 98.18 15.72 98.459 15.858 98.777 15.984C 99.101 16.104 99.488 16.164 99.938 16.164C 100.628 16.164 101.162 16.002 101.54 15.678C 101.918 15.348 102.107 14.877 102.107 14.265C 102.107 13.923 102.02 13.644 101.846 13.428C 101.678 13.212 101.453 13.032 101.171 12.888C 100.889 12.738 100.568 12.612 100.208 12.51C 99.848 12.408 99.482 12.297 99.11 12.177C 98.738 12.057 98.372 11.913 98.012 11.745C 97.652 11.577 97.331 11.358 97.049 11.088C 96.767 10.818 96.539 10.482 96.365 10.08C 96.197 9.672 96.113 9.171 96.113 8.577C 96.113 8.103 96.206 7.641 96.392 7.191C 96.584 6.741 96.86 6.342 97.22 5.994C 97.58 5.646 98.024 5.367 98.552 5.157C 99.08 4.947 99.686 4.842 100.37 4.842C 101.138 4.842 101.846 4.962 102.494 5.202C 103.142 5.442 103.694 5.778 104.15 6.21L 103.547 7.353Z"/>
<path id="path4_fill" d="M 11.745 23.2775L 10.62 24.6725C 11.25 24.3575 11.925 24.1175 12.645 23.9525C 13.38 23.7725 14.1675 23.6825 15.0075 23.6825C 16.2375 23.6825 17.43 23.885 18.585 24.29C 19.755 24.695 20.7825 25.31 21.6675 26.135C 22.5525 26.945 23.265 27.9575 23.805 29.1725C 24.345 30.3875 24.615 31.805 24.615 33.425C 24.615 34.94 24.3375 36.365 23.7825 37.7C 23.2275 39.02 22.4475 40.175 21.4425 41.165C 20.4375 42.155 19.2225 42.935 17.7975 43.505C 16.3875 44.075 14.8275 44.36 13.1175 44.36C 11.3775 44.36 9.8175 44.0825 8.4375 43.5275C 7.0575 42.9725 5.88 42.2 4.905 41.21C 3.93 40.205 3.18 39.005 2.655 37.61C 2.145 36.2 1.89 34.64 1.89 32.93C 1.89 31.4 2.1975 29.8325 2.8125 28.2275C 3.4425 26.6075 4.41 24.9275 5.715 23.1875L 13.4775 12.77C 13.7475 12.41 14.1375 12.1025 14.6475 11.8475C 15.1725 11.5925 15.7725 11.465 16.4475 11.465L 21.3975 11.465L 11.745 23.2775ZM 13.005 39.815C 13.89 39.815 14.7 39.665 15.435 39.365C 16.185 39.065 16.8225 38.645 17.3475 38.105C 17.8875 37.565 18.3075 36.935 18.6075 36.215C 18.9075 35.48 19.0575 34.685 19.0575 33.83C 19.0575 32.9 18.915 32.0675 18.63 31.3325C 18.345 30.5825 17.94 29.9525 17.415 29.4425C 16.89 28.9175 16.26 28.52 15.525 28.25C 14.79 27.98 13.98 27.845 13.095 27.845C 12.21 27.845 11.4075 27.995 10.6875 28.295C 9.9675 28.595 9.3525 29.015 8.8425 29.555C 8.3325 30.08 7.935 30.71 7.65 31.445C 7.365 32.165 7.2225 32.945 7.2225 33.785C 7.2225 34.685 7.3425 35.51 7.5825 36.26C 7.8375 36.995 8.205 37.625 8.685 38.15C 9.18 38.675 9.7875 39.0875 10.5075 39.3875C 11.2275 39.6725 12.06 39.815 13.005 39.815ZM 33.5285 21.23C 33.5285 23.045 33.9935 24.4325 34.9235 25.3925C 35.8685 26.3375 37.2035 26.81 38.9285 26.81C 39.8285 26.81 40.631 26.6675 41.336 26.3825C 42.041 26.0975 42.6335 25.7075 43.1135 25.2125C 43.5935 24.7175 43.9535 24.1325 44.1935 23.4575C 44.4485 22.7825 44.576 22.055 44.576 21.275C 44.576 20.39 44.441 19.6025 44.171 18.9125C 43.901 18.2075 43.5185 17.615 43.0235 17.135C 42.5285 16.655 41.936 16.2875 41.246 16.0325C 40.571 15.7775 39.8285 15.65 39.0185 15.65C 38.1785 15.65 37.421 15.7925 36.746 16.0775C 36.071 16.3475 35.4935 16.73 35.0135 17.225C 34.5335 17.72 34.166 18.3125 33.911 19.0025C 33.656 19.6775 33.5285 20.42 33.5285 21.23ZM 40.9085 31.3775C 41.1635 31.0625 41.4035 30.755 41.6285 30.455C 41.8535 30.155 42.071 29.855 42.281 29.555C 41.531 30.035 40.706 30.4025 39.806 30.6575C 38.906 30.8975 37.961 31.0175 36.971 31.0175C 35.846 31.0175 34.7435 30.8225 33.6635 30.4325C 32.5835 30.0425 31.6235 29.4575 30.7835 28.6775C 29.9435 27.8825 29.261 26.9075 28.736 25.7525C 28.226 24.5825 27.971 23.2175 27.971 21.6575C 27.971 20.2025 28.241 18.8375 28.781 17.5625C 29.321 16.2875 30.0785 15.17 31.0535 14.21C 32.0285 13.25 33.1985 12.4925 34.5635 11.9375C 35.9285 11.3825 37.436 11.105 39.086 11.105C 40.751 11.105 42.2435 11.3675 43.5635 11.8925C 44.8985 12.4175 46.031 13.1525 46.961 14.0975C 47.906 15.0425 48.626 16.175 49.121 17.495C 49.631 18.815 49.886 20.2625 49.886 21.8375C 49.886 22.8425 49.796 23.795 49.616 24.695C 49.451 25.595 49.211 26.465 48.896 27.305C 48.581 28.13 48.1985 28.94 47.7485 29.735C 47.2985 30.53 46.796 31.3175 46.241 32.0975L 38.7935 42.7175C 38.5385 43.0775 38.156 43.385 37.646 43.64C 37.136 43.88 36.5585 44 35.9135 44L 30.806 44L 40.9085 31.3775ZM 54.637 20.5325C 54.862 18.9725 55.297 17.6075 55.942 16.4375C 56.587 15.2525 57.3895 14.27 58.3495 13.49C 59.3245 12.695 60.4345 12.1025 61.6795 11.7125C 62.9395 11.3075 64.2895 11.105 65.7295 11.105C 67.2295 11.105 68.5795 11.3225 69.7795 11.7575C 70.9945 12.1775 72.0295 12.77 72.8845 13.535C 73.7395 14.285 74.392 15.17 74.842 16.19C 75.307 17.21 75.5395 18.3125 75.5395 19.4975C 75.5395 20.5325 75.4195 21.4475 75.1795 22.2425C 74.9545 23.0225 74.6245 23.705 74.1895 24.29C 73.7545 24.875 73.2145 25.37 72.5695 25.775C 71.9245 26.18 71.197 26.5175 70.387 26.7875C 72.337 27.4025 73.792 28.34 74.752 29.6C 75.712 30.86 76.192 32.4425 76.192 34.3475C 76.192 35.9675 75.892 37.4 75.292 38.645C 74.692 39.89 73.882 40.94 72.862 41.795C 71.842 42.635 70.657 43.2725 69.307 43.7075C 67.972 44.1425 66.5545 44.36 65.0545 44.36C 63.4195 44.36 61.9945 44.1725 60.7795 43.7975C 59.5645 43.4225 58.507 42.8675 57.607 42.1325C 56.707 41.3975 55.942 40.4975 55.312 39.4325C 54.682 38.3675 54.142 37.1375 53.692 35.7425L 56.1445 34.73C 56.7895 34.46 57.3895 34.3925 57.9445 34.5275C 58.5145 34.6475 58.927 34.9475 59.182 35.4275C 59.452 35.9525 59.7445 36.47 60.0595 36.98C 60.3895 37.49 60.7795 37.9475 61.2295 38.3525C 61.6795 38.7425 62.2045 39.065 62.8045 39.32C 63.4195 39.56 64.147 39.68 64.987 39.68C 65.932 39.68 66.757 39.53 67.462 39.23C 68.167 38.915 68.752 38.51 69.217 38.015C 69.697 37.52 70.0495 36.9725 70.2745 36.3725C 70.5145 35.7575 70.6345 35.1425 70.6345 34.5275C 70.6345 33.7475 70.552 33.0425 70.387 32.4125C 70.222 31.7675 69.877 31.22 69.352 30.77C 68.827 30.32 68.0695 29.9675 67.0795 29.7125C 66.1045 29.4575 64.792 29.33 63.142 29.33L 63.142 25.37C 64.507 25.355 65.6395 25.2275 66.5395 24.9875C 67.4395 24.7475 68.152 24.4175 68.677 23.9975C 69.217 23.5625 69.592 23.045 69.802 22.445C 70.012 21.845 70.117 21.185 70.117 20.465C 70.117 18.935 69.6895 17.7725 68.8345 16.9775C 67.9795 16.1825 66.8395 15.785 65.4145 15.785C 64.7545 15.785 64.147 15.8825 63.592 16.0775C 63.037 16.2575 62.5345 16.52 62.0845 16.865C 61.6495 17.195 61.282 17.585 60.982 18.035C 60.682 18.485 60.457 18.98 60.307 19.52C 60.052 20.21 59.7145 20.6675 59.2945 20.8925C 58.8895 21.1175 58.312 21.17 57.562 21.05L 54.637 20.5325ZM 103.286 27.7325C 103.286 30.5675 102.978 33.035 102.363 35.135C 101.763 37.22 100.923 38.945 99.843 40.31C 98.778 41.675 97.5105 42.695 96.0405 43.37C 94.5855 44.03 93.0105 44.36 91.3155 44.36C 89.6205 44.36 88.0455 44.03 86.5905 43.37C 85.1505 42.695 83.898 41.675 82.833 40.31C 81.768 38.945 80.9355 37.22 80.3355 35.135C 79.7355 33.035 79.4355 30.5675 79.4355 27.7325C 79.4355 24.8825 79.7355 22.415 80.3355 20.33C 80.9355 18.245 81.768 16.52 82.833 15.155C 83.898 13.79 85.1505 12.7775 86.5905 12.1175C 88.0455 11.4425 89.6205 11.105 91.3155 11.105C 93.0105 11.105 94.5855 11.4425 96.0405 12.1175C 97.5105 12.7775 98.778 13.79 99.843 15.155C 100.923 16.52 101.763 18.245 102.363 20.33C 102.978 22.415 103.286 24.8825 103.286 27.7325ZM 97.548 27.7325C 97.548 25.3775 97.3755 23.4275 97.0305 21.8825C 96.6855 20.3375 96.2205 19.1075 95.6355 18.1925C 95.0655 17.2775 94.4055 16.64 93.6555 16.28C 92.9055 15.905 92.1255 15.7175 91.3155 15.7175C 90.5205 15.7175 89.748 15.905 88.998 16.28C 88.263 16.64 87.6105 17.2775 87.0405 18.1925C 86.4705 19.1075 86.013 20.3375 85.668 21.8825C 85.338 23.4275 85.173 25.3775 85.173 27.7325C 85.173 30.0875 85.338 32.0375 85.668 33.5825C 86.013 35.1275 86.4705 36.3575 87.0405 37.2725C 87.6105 38.1875 88.263 38.8325 88.998 39.2075C 89.748 39.5675 90.5205 39.7475 91.3155 39.7475C 92.1255 39.7475 92.9055 39.5675 93.6555 39.2075C 94.4055 38.8325 95.0655 38.1875 95.6355 37.2725C 96.2205 36.3575 96.6855 35.1275 97.0305 33.5825C 97.3755 32.0375 97.548 30.0875 97.548 27.7325Z"/>
<path id="path5_fill" d="M 23.2875 39.8375L 23.2875 44L 5.2875 44L 5.2875 39.8375L 11.88 39.8375L 11.88 20.87C 11.88 20.12 11.9025 19.3475 11.9475 18.5525L 7.2675 22.4675C 6.9975 22.6775 6.7275 22.8125 6.4575 22.8725C 6.2025 22.9175 5.955 22.9175 5.715 22.8725C 5.49 22.8275 5.2875 22.7525 5.1075 22.6475C 4.9275 22.5275 4.7925 22.4 4.7025 22.265L 2.9475 19.8575L 12.87 11.42L 17.4375 11.42L 17.4375 39.8375L 23.2875 39.8375ZM 51.0785 27.7325C 51.0785 30.5675 50.771 33.035 50.156 35.135C 49.556 37.22 48.716 38.945 47.636 40.31C 46.571 41.675 45.3035 42.695 43.8335 43.37C 42.3785 44.03 40.8035 44.36 39.1085 44.36C 37.4135 44.36 35.8385 44.03 34.3835 43.37C 32.9435 42.695 31.691 41.675 30.626 40.31C 29.561 38.945 28.7285 37.22 28.1285 35.135C 27.5285 33.035 27.2285 30.5675 27.2285 27.7325C 27.2285 24.8825 27.5285 22.415 28.1285 20.33C 28.7285 18.245 29.561 16.52 30.626 15.155C 31.691 13.79 32.9435 12.7775 34.3835 12.1175C 35.8385 11.4425 37.4135 11.105 39.1085 11.105C 40.8035 11.105 42.3785 11.4425 43.8335 12.1175C 45.3035 12.7775 46.571 13.79 47.636 15.155C 48.716 16.52 49.556 18.245 50.156 20.33C 50.771 22.415 51.0785 24.8825 51.0785 27.7325ZM 45.341 27.7325C 45.341 25.3775 45.1685 23.4275 44.8235 21.8825C 44.4785 20.3375 44.0135 19.1075 43.4285 18.1925C 42.8585 17.2775 42.1985 16.64 41.4485 16.28C 40.6985 15.905 39.9185 15.7175 39.1085 15.7175C 38.3135 15.7175 37.541 15.905 36.791 16.28C 36.056 16.64 35.4035 17.2775 34.8335 18.1925C 34.2635 19.1075 33.806 20.3375 33.461 21.8825C 33.131 23.4275 32.966 25.3775 32.966 27.7325C 32.966 30.0875 33.131 32.0375 33.461 33.5825C 33.806 35.1275 34.2635 36.3575 34.8335 37.2725C 35.4035 38.1875 36.056 38.8325 36.791 39.2075C 37.541 39.5675 38.3135 39.7475 39.1085 39.7475C 39.9185 39.7475 40.6985 39.5675 41.4485 39.2075C 42.1985 38.8325 42.8585 38.1875 43.4285 37.2725C 44.0135 36.3575 44.4785 35.1275 44.8235 33.5825C 45.1685 32.0375 45.341 30.0875 45.341 27.7325ZM 54.637 20.5325C 54.862 18.9725 55.297 17.6075 55.942 16.4375C 56.587 15.2525 57.3895 14.27 58.3495 13.49C 59.3245 12.695 60.4345 12.1025 61.6795 11.7125C 62.9395 11.3075 64.2895 11.105 65.7295 11.105C 67.2295 11.105 68.5795 11.3225 69.7795 11.7575C 70.9945 12.1775 72.0295 12.77 72.8845 13.535C 73.7395 14.285 74.392 15.17 74.842 16.19C 75.307 17.21 75.5395 18.3125 75.5395 19.4975C 75.5395 20.5325 75.4195 21.4475 75.1795 22.2425C 74.9545 23.0225 74.6245 23.705 74.1895 24.29C 73.7545 24.875 73.2145 25.37 72.5695 25.775C 71.9245 26.18 71.197 26.5175 70.387 26.7875C 72.337 27.4025 73.792 28.34 74.752 29.6C 75.712 30.86 76.192 32.4425 76.192 34.3475C 76.192 35.9675 75.892 37.4 75.292 38.645C 74.692 39.89 73.882 40.94 72.862 41.795C 71.842 42.635 70.657 43.2725 69.307 43.7075C 67.972 44.1425 66.5545 44.36 65.0545 44.36C 63.4195 44.36 61.9945 44.1725 60.7795 43.7975C 59.5645 43.4225 58.507 42.8675 57.607 42.1325C 56.707 41.3975 55.942 40.4975 55.312 39.4325C 54.682 38.3675 54.142 37.1375 53.692 35.7425L 56.1445 34.73C 56.7895 34.46 57.3895 34.3925 57.9445 34.5275C 58.5145 34.6475 58.927 34.9475 59.182 35.4275C 59.452 35.9525 59.7445 36.47 60.0595 36.98C 60.3895 37.49 60.7795 37.9475 61.2295 38.3525C 61.6795 38.7425 62.2045 39.065 62.8045 39.32C 63.4195 39.56 64.147 39.68 64.987 39.68C 65.932 39.68 66.757 39.53 67.462 39.23C 68.167 38.915 68.752 38.51 69.217 38.015C 69.697 37.52 70.0495 36.9725 70.2745 36.3725C 70.5145 35.7575 70.6345 35.1425 70.6345 34.5275C 70.6345 33.7475 70.552 33.0425 70.387 32.4125C 70.222 31.7675 69.877 31.22 69.352 30.77C 68.827 30.32 68.0695 29.9675 67.0795 29.7125C 66.1045 29.4575 64.792 29.33 63.142 29.33L 63.142 25.37C 64.507 25.355 65.6395 25.2275 66.5395 24.9875C 67.4395 24.7475 68.152 24.4175 68.677 23.9975C 69.217 23.5625 69.592 23.045 69.802 22.445C 70.012 21.845 70.117 21.185 70.117 20.465C 70.117 18.935 69.6895 17.7725 68.8345 16.9775C 67.9795 16.1825 66.8395 15.785 65.4145 15.785C 64.7545 15.785 64.147 15.8825 63.592 16.0775C 63.037 16.2575 62.5345 16.52 62.0845 16.865C 61.6495 17.195 61.282 17.585 60.982 18.035C 60.682 18.485 60.457 18.98 60.307 19.52C 60.052 20.21 59.7145 20.6675 59.2945 20.8925C 58.8895 21.1175 58.312 21.17 57.562 21.05L 54.637 20.5325Z"/>
<path id="path6_stroke" d="M 197.04 101C 197.04 154.018 154.052 197 101.02 197L 101.02 207C 159.573 207 207.04 159.543 207.04 101L 197.04 101ZM 101.02 197C 47.9887 197 5 154.018 5 101L -5 101C -5 159.543 42.4678 207 101.02 207L 101.02 197ZM 5 101C 5 47.9816 47.9887 5 101.02 5L 101.02 -5C 42.4678 -5 -5 42.4569 -5 101L 5 101ZM 101.02 5C 154.052 5 197.04 47.9816 197.04 101L 207.04 101C 207.04 42.4569 159.573 -5 101.02 -5L 101.02 5Z"/>
<path id="path7_stroke" d="M 125.986 203.985C 128.665 203.315 130.294 200.6 129.624 197.921C 128.955 195.242 126.24 193.613 123.561 194.283L 125.986 203.985ZM 186.92 144.077C 185.685 146.547 186.686 149.55 189.156 150.785C 191.626 152.021 194.629 151.02 195.864 148.55L 186.92 144.077ZM 123.561 194.283C 116.221 196.128 108.911 197.009 101.02 197L 101.02 207C 109.511 206.991 118.036 205.962 125.986 203.985L 123.561 194.283ZM 101.02 197C 47.9465 197 5 154.061 5 101L -5 101C -5 159.585 42.4256 207 101.02 207L 101.02 197ZM 5 101C 5 47.9394 47.9465 5 101.02 5L 101.02 -5C 42.4256 -5 -5 42.4147 -5 101L 5 101ZM 101.02 5C 154.094 5 197.04 47.9394 197.04 101L 207.04 101C 207.04 42.4147 159.615 -5 101.02 -5L 101.02 5ZM 197.04 101C 197.077 116.636 193.527 130.935 186.92 144.077L 195.864 148.55C 202.909 134.395 207.003 117.848 207.04 101L 197.04 101Z"/>
<path id="path8_stroke" d="M 125.986 203.985C 128.665 203.315 130.294 200.6 129.624 197.921C 128.955 195.242 126.24 193.613 123.561 194.283L 125.986 203.985ZM 176.137 41.3148C 177.849 43.482 180.993 43.8516 183.16 42.1403C 185.327 40.429 185.697 37.2848 183.986 35.1176L 176.137 41.3148ZM 123.561 194.283C 116.221 196.128 108.911 197.009 101.02 197L 101.02 207C 109.511 206.991 118.036 205.962 125.986 203.985L 123.561 194.283ZM 101.02 197C 47.9465 197 5 154.061 5 101L -5 101C -5 159.585 42.4256 207 101.02 207L 101.02 197ZM 5 101C 5 47.9394 47.9465 5 101.02 5L 101.02 -5C 42.4256 -5 -5 42.4147 -5 101L 5 101ZM 101.02 5C 131.517 5 158.623 19.1338 176.137 41.3148L 183.986 35.1176C 164.642 10.6202 134.684 -5 101.02 -5L 101.02 5Z"/>
<path id="path9_stroke" d="M 197.04 101C 197.04 154.018 154.052 197 101.02 197L 101.02 207C 159.572 207 207.04 159.543 207.04 101L 197.04 101ZM 101.02 197C 47.9887 197 5 154.018 5 101L -5 101C -5 159.543 42.4678 207 101.02 207L 101.02 197ZM 5 101C 5 47.9816 47.9887 5 101.02 5L 101.02 -5C 42.4678 -5 -5 42.4569 -5 101L 5 101ZM 101.02 5C 154.052 5 197.04 47.9816 197.04 101L 207.04 101C 207.04 42.4569 159.572 -5 101.02 -5L 101.02 5Z"/>
<path id="path10_stroke" d="M 105.563 42.2678C 108.253 41.6435 109.928 38.9568 109.303 36.2668C 108.679 33.5769 105.992 31.9024 103.303 32.5267L 105.563 42.2678ZM 3.99167 -3.01108C 2.3287 -5.21561 -0.806535 -5.65464 -3.01107 -3.99167C -5.21561 -2.3287 -5.65464 0.806539 -3.99166 3.01108L 3.99167 -3.01108ZM 103.303 32.5267C 95.8805 34.2547 88.5281 35.2752 80.6796 35.2635L 80.6796 45.2635C 89.2127 45.2518 97.6959 44.0885 105.563 42.2678L 103.303 32.5267ZM 80.6796 35.2635C 49.4167 35.2635 21.5179 20.2228 3.99167 -3.01108L -3.99166 3.01108C 15.3408 28.6394 46.1429 45.2635 80.6796 45.2635L 80.6796 35.2635Z"/>
</defs>
</svg>
