<svg width="25" height="21" viewBox="0 0 25 21" version="1.1" xmlns="http://www.w3.org/2000/svg" xmlns:xlink="http://www.w3.org/1999/xlink">
<title>bar-chart</title>
<desc>Created using Figma</desc>
<g id="Canvas" transform="translate(371 -2587)">
<g id="bar-chart">
<g id="Group">
<g id="Group">
<g id="Vector">
<use xlink:href="#path0_fill" transform="translate(-371 2593.02)" fill="#FFFFFF"/>
</g>
</g>
</g>
<g id="Group">
<g id="Group">
<g id="Vector">
<use xlink:href="#path1_fill" transform="translate(-366.578 2587)" fill="#FFFFFF"/>
</g>
</g>
</g>
<g id="Group">
<g id="Group">
<g id="Vector">
<use xlink:href="#path2_fill" transform="translate(-368.316 2599.03)" fill="#FFFFFF"/>
</g>
</g>
</g>
</g>
</g>
<defs>
<path id="path0_fill" d="M 24.4843 14.1646L 23.3533 14.1646L 23.3533 1.10258C 23.3533 0.494607 22.7314 2.85387e-07 21.967 2.85387e-07L 19.439 2.85387e-07C 18.6746 2.85387e-07 18.0527 0.494648 18.0527 1.10258L 18.0527 14.1646L 15.1808 14.1646L 15.1808 7.02069C 15.1808 6.41271 14.5589 5.9181 13.7946 5.9181L 11.2665 5.9181C 10.5021 5.9181 9.88025 6.41275 9.88025 7.02069L 9.88025 14.1646L 7.00833 14.1646L 7.00833 10.4648C 7.00833 9.85683 6.38642 9.36223 5.62208 9.36223L 3.09397 9.36223C 2.32958 9.36223 1.70772 9.85687 1.70772 10.4648L 1.70772 14.1646L 0.515679 14.1646C 0.230869 14.1646 -8.6555e-09 14.3482 -8.6555e-09 14.5747C -8.6555e-09 14.8013 0.230869 14.9849 0.515679 14.9849L 24.4843 14.9849C 24.7691 14.9849 25 14.8013 25 14.5747C 25 14.3482 24.7691 14.1646 24.4843 14.1646ZM 5.97687 14.1646L 2.73903 14.1646L 2.73903 10.4648C 2.73903 10.3092 2.89822 10.1825 3.09392 10.1825L 5.62198 10.1825C 5.81768 10.1825 5.97687 10.3092 5.97687 10.4648L 5.97687 14.1646ZM 14.1494 14.1646L 10.9116 14.1646L 10.9116 7.02069C 10.9116 6.86503 11.0707 6.73842 11.2664 6.73842L 13.7945 6.73842C 13.9902 6.73842 14.1494 6.86503 14.1494 7.02069L 14.1494 14.1646ZM 22.3219 14.1646L 19.0841 14.1646L 19.0841 1.10258C 19.0841 0.946928 19.2433 0.820313 19.439 0.820313L 21.967 0.820313C 22.1627 0.820313 22.3219 0.946928 22.3219 1.10258L 22.3219 14.1646Z"/>
<path id="path1_fill" d="M 18.9303 0.43132C 18.9376 0.319389 18.8881 0.20557 18.7806 0.120094C 18.6731 0.0346172 18.53 -0.00479883 18.3893 0.000984375C 18.381 0.000697266 18.3728 0 18.3643 0L 15.2445 0C 14.9597 0 14.7288 0.183627 14.7288 0.410156C 14.7288 0.636686 14.9597 0.820313 15.2445 0.820313L 17.1709 0.820313L 12.0731 4.87504L 10.1506 3.34597C 10.0539 3.26907 9.92273 3.22584 9.78597 3.22584C 9.64921 3.22584 9.51802 3.26907 9.42133 3.34597L 0.151029 10.7194C -0.0503431 10.8795 -0.0503431 11.1392 0.151029 11.2994C 0.251742 11.3795 0.383704 11.4195 0.515666 11.4195C 0.647628 11.4195 0.779642 11.3795 0.880302 11.2994L 9.78597 4.216L 11.7084 5.74506C 11.9098 5.90523 12.2363 5.90523 12.4377 5.74506L 17.9002 1.4004L 17.9002 2.78714C 17.9002 3.01366 18.1311 3.19729 18.4159 3.19729C 18.7007 3.19729 18.9316 3.01366 18.9316 2.78714L 18.9316 0.451172C 18.9316 0.444486 18.9307 0.437965 18.9303 0.43132Z"/>
<path id="path2_fill" d="M 0.515679 0.820312C 0.80048 0.820312 1.03136 0.636679 1.03136 0.410156C 1.03136 0.183633 0.80048 0 0.515679 0C 0.230877 0 0 0.183633 0 0.410156C 0 0.636679 0.230877 0.820312 0.515679 0.820312Z"/>
</defs>
</svg>
