<svg width="55" height="45" viewBox="0 0 55 45" version="1.1" xmlns="http://www.w3.org/2000/svg" xmlns:xlink="http://www.w3.org/1999/xlink">
<title>bar-chart</title>
<desc>Created using Figma</desc>
<g id="Canvas" transform="translate(-120 -1024)">
<g id="bar-chart">
<g id="Group">
<g id="Group">
<g id="Vector">
<use xlink:href="#path0_fill" transform="translate(121 1037.32)" fill="#304A52"/>
<mask id="mask0_outline_out">
<rect id="mask0_outline_inv" fill="white" x="-1" y="-1" width="55" height="33" transform="translate(121 1037.32)"/>
<use xlink:href="#path0_fill" fill="black" transform="translate(121 1037.32)"/>
</mask>
<g mask="url(#mask0_outline_out)">
<use xlink:href="#path1_stroke_2x" transform="translate(121 1037.32)" fill="#304A52"/>
</g>
</g>
</g>
</g>
<g id="Group">
<g id="Group">
<g id="Vector">
<use xlink:href="#path2_fill" transform="translate(130.374 1025)" fill="#304A52"/>
<mask id="mask1_outline_out">
<rect id="mask1_outline_inv" fill="white" x="-1" y="-1" width="43" height="26" transform="translate(130.374 1025)"/>
<use xlink:href="#path2_fill" fill="black" transform="translate(130.374 1025)"/>
</mask>
<g mask="url(#mask1_outline_out)">
<use xlink:href="#path3_stroke_2x" transform="translate(130.374 1025)" fill="#304A52"/>
</g>
</g>
</g>
</g>
<g id="Group">
<g id="Group">
<g id="Vector">
<use xlink:href="#path4_fill" transform="translate(126.689 1049.63)" fill="#304A52"/>
<mask id="mask2_outline_out">
<rect id="mask2_outline_inv" fill="white" x="-1" y="-1" width="5" height="4" transform="translate(126.689 1049.63)"/>
<use xlink:href="#path4_fill" fill="black" transform="translate(126.689 1049.63)"/>
</mask>
<g mask="url(#mask2_outline_out)">
<use xlink:href="#path5_stroke_2x" transform="translate(126.689 1049.63)" fill="#304A52"/>
</g>
</g>
</g>
</g>
</g>
</g>
<defs>
<path id="path0_fill" d="M 51.9068 29.0036L 49.509 29.0036L 49.509 2.25766C 49.509 1.01277 48.1905 5.84363e-07 46.5701 5.84363e-07L 41.2106 5.84363e-07C 39.5901 5.84363e-07 38.2718 1.01285 38.2718 2.25766L 38.2718 29.0036L 32.1833 29.0036L 32.1833 14.3757C 32.1833 13.1308 30.865 12.118 29.2445 12.118L 23.885 12.118C 22.2645 12.118 20.9461 13.1309 20.9461 14.3757L 20.9461 29.0036L 14.8577 29.0036L 14.8577 21.4279C 14.8577 20.183 13.5392 19.1702 11.9188 19.1702L 6.55921 19.1702C 4.93871 19.1702 3.62037 20.1831 3.62037 21.4279L 3.62037 29.0036L 1.09324 29.0036C 0.489443 29.0036 -1.83497e-08 29.3796 -1.83497e-08 29.8435C -1.83497e-08 30.3073 0.489443 30.6833 1.09324 30.6833L 51.9068 30.6833C 52.5106 30.6833 53 30.3073 53 29.8435C 53 29.3796 52.5106 29.0036 51.9068 29.0036ZM 12.671 29.0036L 5.80674 29.0036L 5.80674 21.4279C 5.80674 21.1092 6.14422 20.8499 6.5591 20.8499L 11.9186 20.8499C 12.3335 20.8499 12.671 21.1092 12.671 21.4279L 12.671 29.0036ZM 29.9967 29.0036L 23.1325 29.0036L 23.1325 14.3757C 23.1325 14.0569 23.47 13.7977 23.8849 13.7977L 29.2444 13.7977C 29.6591 13.7977 29.9967 14.0569 29.9967 14.3757L 29.9967 29.0036ZM 47.3225 29.0036L 40.4583 29.0036L 40.4583 2.25766C 40.4583 1.93894 40.7957 1.67969 41.2106 1.67969L 46.5701 1.67969C 46.985 1.67969 47.3225 1.93894 47.3225 2.25766L 47.3225 29.0036Z"/>
<path id="path1_stroke_2x" d="M 49.509 29.0036L 48.509 29.0036L 48.509 30.0036L 49.509 30.0036L 49.509 29.0036ZM 38.2718 29.0036L 38.2718 30.0036L 39.2718 30.0036L 39.2718 29.0036L 38.2718 29.0036ZM 32.1833 29.0036L 31.1833 29.0036L 31.1833 30.0036L 32.1833 30.0036L 32.1833 29.0036ZM 20.9461 29.0036L 20.9461 30.0036L 21.9461 30.0036L 21.9461 29.0036L 20.9461 29.0036ZM 14.8577 29.0036L 13.8577 29.0036L 13.8577 30.0036L 14.8577 30.0036L 14.8577 29.0036ZM 3.62037 29.0036L 3.62037 30.0036L 4.62037 30.0036L 4.62037 29.0036L 3.62037 29.0036ZM 12.671 29.0036L 12.671 30.0036L 13.671 30.0036L 13.671 29.0036L 12.671 29.0036ZM 5.80674 29.0036L 4.80674 29.0036L 4.80674 30.0036L 5.80674 30.0036L 5.80674 29.0036ZM 29.9967 29.0036L 29.9967 30.0036L 30.9967 30.0036L 30.9967 29.0036L 29.9967 29.0036ZM 23.1325 29.0036L 22.1325 29.0036L 22.1325 30.0036L 23.1325 30.0036L 23.1325 29.0036ZM 47.3225 29.0036L 47.3225 30.0036L 48.3225 30.0036L 48.3225 29.0036L 47.3225 29.0036ZM 40.4583 29.0036L 39.4583 29.0036L 39.4583 30.0036L 40.4583 30.0036L 40.4583 29.0036ZM 51.9068 28.0036L 49.509 28.0036L 49.509 30.0036L 51.9068 30.0036L 51.9068 28.0036ZM 50.509 29.0036L 50.509 2.25766L 48.509 2.25766L 48.509 29.0036L 50.509 29.0036ZM 50.509 2.25766C 50.509 1.25915 49.978 0.423319 49.2564 -0.131025C 48.5354 -0.684865 47.5822 -0.999999 46.5701 -0.999999L 46.5701 1C 47.1784 1 47.6946 1.19125 48.038 1.45502C 48.3807 1.71828 48.509 2.01128 48.509 2.25766L 50.509 2.25766ZM 46.5701 -0.999999L 41.2106 -0.999999L 41.2106 1L 46.5701 1L 46.5701 -0.999999ZM 41.2106 -0.999999C 40.1985 -0.999999 39.2452 -0.684839 38.5243 -0.130979C 37.8027 0.423382 37.2718 1.25921 37.2718 2.25766L 39.2718 2.25766C 39.2718 2.01131 39.4 1.7183 39.7427 1.45503C 40.0861 1.19126 40.6023 1 41.2106 1L 41.2106 -0.999999ZM 37.2718 2.25766L 37.2718 29.0036L 39.2718 29.0036L 39.2718 2.25766L 37.2718 2.25766ZM 38.2718 28.0036L 32.1833 28.0036L 32.1833 30.0036L 38.2718 30.0036L 38.2718 28.0036ZM 33.1833 29.0036L 33.1833 14.3757L 31.1833 14.3757L 31.1833 29.0036L 33.1833 29.0036ZM 33.1833 14.3757C 33.1833 13.3772 32.6524 12.5413 31.9308 11.987C 31.2098 11.4331 30.2566 11.118 29.2445 11.118L 29.2445 13.118C 29.8529 13.118 30.369 13.3093 30.7124 13.573C 31.055 13.8363 31.1833 14.1293 31.1833 14.3757L 33.1833 14.3757ZM 29.2445 11.118L 23.885 11.118L 23.885 13.118L 29.2445 13.118L 29.2445 11.118ZM 23.885 11.118C 22.8728 11.118 21.9196 11.4332 21.1986 11.987C 20.477 12.5414 19.9461 13.3772 19.9461 14.3757L 21.9461 14.3757C 21.9461 14.1293 22.0744 13.8363 22.4171 13.573C 22.7604 13.3093 23.2766 13.118 23.885 13.118L 23.885 11.118ZM 19.9461 14.3757L 19.9461 29.0036L 21.9461 29.0036L 21.9461 14.3757L 19.9461 14.3757ZM 20.9461 28.0036L 14.8577 28.0036L 14.8577 30.0036L 20.9461 30.0036L 20.9461 28.0036ZM 15.8577 29.0036L 15.8577 21.4279L 13.8577 21.4279L 13.8577 29.0036L 15.8577 29.0036ZM 15.8577 21.4279C 15.8577 20.4294 15.3267 19.5936 14.6051 19.0392C 13.8841 18.4854 12.9309 18.1702 11.9188 18.1702L 11.9188 20.1702C 12.5271 20.1702 13.0433 20.3615 13.3867 20.6253C 13.7294 20.8885 13.8577 21.1815 13.8577 21.4279L 15.8577 21.4279ZM 11.9188 18.1702L 6.55921 18.1702L 6.55921 20.1702L 11.9188 20.1702L 11.9188 18.1702ZM 6.55921 18.1702C 5.54707 18.1702 4.59384 18.4854 3.87289 19.0393C 3.15128 19.5936 2.62037 20.4295 2.62037 21.4279L 4.62037 21.4279C 4.62037 21.1815 4.74862 20.8885 5.09132 20.6253C 5.43466 20.3615 5.95085 20.1702 6.55921 20.1702L 6.55921 18.1702ZM 2.62037 21.4279L 2.62037 29.0036L 4.62037 29.0036L 4.62037 21.4279L 2.62037 21.4279ZM 3.62037 28.0036L 1.09324 28.0036L 1.09324 30.0036L 3.62037 30.0036L 3.62037 28.0036ZM 1.09324 28.0036C 0.590214 28.0036 0.0981849 28.1591 -0.289009 28.4566C -0.677257 28.7549 -1 29.2365 -1 29.8435L 1 29.8435C 1 29.9079 0.982079 29.9622 0.961917 29.9989C 0.943147 30.0329 0.926777 30.0446 0.929401 30.0426C 0.937878 30.0361 0.992468 30.0036 1.09324 30.0036L 1.09324 28.0036ZM -1 29.8435C -1 30.4504 -0.677257 30.9321 -0.289009 31.2303C 0.0981849 31.5278 0.590214 31.6833 1.09324 31.6833L 1.09324 29.6833C 0.992468 29.6833 0.937878 29.6508 0.929401 29.6443C 0.926777 29.6423 0.943147 29.654 0.961917 29.6881C 0.982079 29.7247 1 29.779 1 29.8435L -1 29.8435ZM 1.09324 31.6833L 51.9068 31.6833L 51.9068 29.6833L 1.09324 29.6833L 1.09324 31.6833ZM 51.9068 31.6833C 52.4098 31.6833 52.9018 31.5278 53.289 31.2303C 53.6773 30.9321 54 30.4504 54 29.8435L 52 29.8435C 52 29.779 52.0179 29.7247 52.0381 29.6881C 52.0569 29.654 52.0732 29.6423 52.0706 29.6443C 52.0621 29.6508 52.0075 29.6833 51.9068 29.6833L 51.9068 31.6833ZM 54 29.8435C 54 29.2365 53.6773 28.7549 53.289 28.4566C 52.9018 28.1591 52.4098 28.0036 51.9068 28.0036L 51.9068 30.0036C 52.0075 30.0036 52.0621 30.0361 52.0706 30.0426C 52.0732 30.0446 52.0569 30.0329 52.0381 29.9989C 52.0179 29.9622 52 29.9079 52 29.8435L 54 29.8435ZM 12.671 28.0036L 5.80674 28.0036L 5.80674 30.0036L 12.671 30.0036L 12.671 28.0036ZM 6.80674 29.0036L 6.80674 21.4279L 4.80674 21.4279L 4.80674 29.0036L 6.80674 29.0036ZM 6.80674 21.4279C 6.80674 21.6446 6.68982 21.7715 6.63654 21.8124C 6.60835 21.8341 6.5866 21.8429 6.576 21.8463C 6.56474 21.85 6.55911 21.8499 6.5591 21.8499L 6.5591 19.8499C 6.14982 19.8499 5.7432 19.9767 5.41814 20.2264C 5.0924 20.4766 4.80674 20.8925 4.80674 21.4279L 6.80674 21.4279ZM 6.5591 21.8499L 11.9186 21.8499L 11.9186 19.8499L 6.5591 19.8499L 6.5591 21.8499ZM 11.9186 21.8499C 11.9186 21.8499 11.913 21.85 11.9017 21.8463C 11.8911 21.8429 11.8694 21.8341 11.8412 21.8124C 11.7879 21.7715 11.671 21.6446 11.671 21.4279L 13.671 21.4279C 13.671 20.8925 13.3853 20.4766 13.0596 20.2264C 12.7345 19.9767 12.3279 19.8499 11.9186 19.8499L 11.9186 21.8499ZM 11.671 21.4279L 11.671 29.0036L 13.671 29.0036L 13.671 21.4279L 11.671 21.4279ZM 29.9967 28.0036L 23.1325 28.0036L 23.1325 30.0036L 29.9967 30.0036L 29.9967 28.0036ZM 24.1325 29.0036L 24.1325 14.3757L 22.1325 14.3757L 22.1325 29.0036L 24.1325 29.0036ZM 24.1325 14.3757C 24.1325 14.5923 24.0156 14.7192 23.9623 14.7602C 23.9341 14.7818 23.9124 14.7906 23.9018 14.7941C 23.8905 14.7977 23.8849 14.7977 23.8849 14.7977L 23.8849 12.7977C 23.4756 12.7977 23.069 12.9244 22.7439 13.1741C 22.4182 13.4244 22.1325 13.8403 22.1325 14.3757L 24.1325 14.3757ZM 23.8849 14.7977L 29.2444 14.7977L 29.2444 12.7977L 23.8849 12.7977L 23.8849 14.7977ZM 29.2444 14.7977C 29.2443 14.7977 29.2386 14.7977 29.2274 14.7941C 29.2168 14.7906 29.1951 14.7818 29.1669 14.7602C 29.1137 14.7193 28.9967 14.5924 28.9967 14.3757L 30.9967 14.3757C 30.9967 13.8402 30.7109 13.4243 30.3852 13.1741C 30.0602 12.9245 29.6536 12.7977 29.2444 12.7977L 29.2444 14.7977ZM 28.9967 14.3757L 28.9967 29.0036L 30.9967 29.0036L 30.9967 14.3757L 28.9967 14.3757ZM 47.3225 28.0036L 40.4583 28.0036L 40.4583 30.0036L 47.3225 30.0036L 47.3225 28.0036ZM 41.4583 29.0036L 41.4583 2.25766L 39.4583 2.25766L 39.4583 29.0036L 41.4583 29.0036ZM 41.4583 2.25766C 41.4583 2.47431 41.3413 2.60124 41.2881 2.64217C 41.2599 2.66383 41.2381 2.67263 41.2275 2.67608C 41.2163 2.67974 41.2106 2.67969 41.2106 2.67969L 41.2106 0.679686C 40.8013 0.679686 40.3947 0.806423 40.0697 1.05614C 39.7439 1.30638 39.4583 1.7223 39.4583 2.25766L 41.4583 2.25766ZM 41.2106 2.67969L 46.5701 2.67969L 46.5701 0.679686L 41.2106 0.679686L 41.2106 2.67969ZM 46.5701 2.67969C 46.5701 2.67969 46.5645 2.67974 46.5532 2.67608C 46.5426 2.67263 46.5209 2.66383 46.4927 2.64217C 46.4394 2.60124 46.3225 2.47431 46.3225 2.25766L 48.3225 2.25766C 48.3225 1.7223 48.0368 1.30638 47.7111 1.05614C 47.386 0.806423 46.9794 0.679686 46.5701 0.679686L 46.5701 2.67969ZM 46.3225 2.25766L 46.3225 29.0036L 48.3225 29.0036L 48.3225 2.25766L 46.3225 2.25766Z"/>
<path id="path2_fill" d="M 40.1323 0.883178C 40.1476 0.653985 40.0427 0.420929 39.8149 0.245906C 39.587 0.0708827 39.2837 -0.00982616 38.9853 0.00201562C 38.9677 0.00142773 38.9503 0 38.9324 0L 32.3183 0C 31.7145 0 31.2251 0.375998 31.2251 0.839843C 31.2251 1.30369 31.7145 1.67969 32.3183 1.67969L 36.4023 1.67969L 25.5949 9.9822L 21.5193 6.85127C 21.3143 6.6938 21.0362 6.60528 20.7463 6.60528C 20.4563 6.60528 20.1782 6.6938 19.9732 6.85127L 0.320182 21.9491C -0.106727 22.2771 -0.106727 22.8089 0.320182 23.1369C 0.533692 23.3008 0.813452 23.3827 1.09321 23.3827C 1.37297 23.3827 1.65284 23.3008 1.86624 23.1367L 20.7463 8.63274L 24.8218 11.7637C 25.2488 12.0916 25.941 12.0916 26.368 11.7637L 37.9485 2.86747L 37.9485 5.70698C 37.9485 6.17083 38.4379 6.54683 39.0417 6.54683C 39.6455 6.54683 40.135 6.17083 40.135 5.70698L 40.135 0.923827C 40.135 0.910137 40.1331 0.896784 40.1323 0.883178Z"/>
<path id="path3_stroke_2x" d="M 40.1323 0.883178L 39.1346 0.816548L 39.1305 0.877922L 39.1339 0.939337L 40.1323 0.883178ZM 38.9853 0.00201562L 38.9519 1.00146L 38.9884 1.00268L 39.025 1.00123L 38.9853 0.00201562ZM 36.4023 1.67969L 37.0115 2.4727L 39.3455 0.679685L 36.4023 0.679685L 36.4023 1.67969ZM 25.5949 9.9822L 24.9857 10.7752L 25.5949 11.2432L 26.2041 10.7752L 25.5949 9.9822ZM 21.5193 6.85127L 20.9101 7.64428L 21.5193 6.85127ZM 19.9732 6.85127L 19.364 6.05826L 19.364 6.05826L 19.9732 6.85127ZM 0.320182 21.9491L 0.929387 22.7421L 0.929389 22.7421L 0.320182 21.9491ZM 0.320182 23.1369L -0.28912 23.9298L -0.28863 23.9302L 0.320182 23.1369ZM 1.86624 23.1367L 1.25703 22.3437L 1.25684 22.3439L 1.86624 23.1367ZM 20.7463 8.63274L 21.3555 7.83973L 20.7463 7.37173L 20.137 7.83973L 20.7463 8.63274ZM 24.8218 11.7637L 24.2126 12.5567L 24.8218 11.7637ZM 26.368 11.7637L 26.9771 12.5568L 26.9772 12.5567L 26.368 11.7637ZM 37.9485 2.86747L 38.9485 2.86747L 38.9485 0.838258L 37.3393 2.07446L 37.9485 2.86747ZM 41.1301 0.949809C 41.1704 0.346948 40.8833 -0.194301 40.4241 -0.547107L 39.2057 1.03892C 39.2077 1.04049 39.1861 1.0241 39.1651 0.980877C 39.1438 0.936825 39.1304 0.879269 39.1346 0.816548L 41.1301 0.949809ZM 40.4241 -0.547107C 39.9798 -0.888413 39.4355 -1.01664 38.9456 -0.997198L 39.025 1.00123C 39.1318 0.99699 39.1943 1.03018 39.2057 1.03892L 40.4241 -0.547107ZM 39.0187 -0.997427C 39.022 -0.997318 39.0236 -0.997226 39.0215 -0.99733C 39.0204 -0.997384 39.0192 -0.997445 39.0167 -0.997571C 39.0146 -0.997679 39.0114 -0.997845 39.0079 -0.998015C 38.9949 -0.998651 38.9664 -1 38.9324 -1L 38.9324 1C 38.9237 1 38.9171 0.999829 38.9134 0.999711C 38.91 0.999598 38.9082 0.999499 38.91 0.99959C 38.911 0.999635 38.9121 0.999693 38.9144 0.99981C 38.9163 0.999909 38.9195 1.00007 38.9228 1.00024C 38.9295 1.00056 38.9398 1.00106 38.9519 1.00146L 39.0187 -0.997427ZM 38.9324 -1L 32.3183 -1L 32.3183 1L 38.9324 1L 38.9324 -1ZM 32.3183 -1C 31.8153 -1 31.3232 -0.844482 30.9361 -0.547034C 30.5478 -0.248776 30.2251 0.232864 30.2251 0.839843L 32.2251 0.839843C 32.2251 0.904274 32.2071 0.95861 32.187 0.995231C 32.1682 1.02932 32.1518 1.04101 32.1545 1.03899C 32.1629 1.03248 32.2175 1 32.3183 1L 32.3183 -1ZM 30.2251 0.839843C 30.2251 1.44682 30.5478 1.92846 30.9361 2.22672C 31.3232 2.52417 31.8153 2.67969 32.3183 2.67969L 32.3183 0.679685C 32.2175 0.679685 32.1629 0.647205 32.1545 0.640693C 32.1518 0.638677 32.1682 0.650363 32.187 0.684454C 32.2071 0.721075 32.2251 0.775411 32.2251 0.839843L 30.2251 0.839843ZM 32.3183 2.67969L 36.4023 2.67969L 36.4023 0.679685L 32.3183 0.679685L 32.3183 2.67969ZM 35.7931 0.886675L 24.9857 9.18919L 26.2041 10.7752L 37.0115 2.4727L 35.7931 0.886675ZM 26.2041 9.18919L 22.1285 6.05826L 20.9101 7.64428L 24.9857 10.7752L 26.2041 9.18919ZM 22.1285 6.05826C 21.7277 5.75037 21.2284 5.60528 20.7463 5.60528L 20.7463 7.60528C 20.844 7.60528 20.9009 7.63723 20.9101 7.64428L 22.1285 6.05826ZM 20.7463 5.60528C 20.2641 5.60528 19.7648 5.75037 19.364 6.05826L 20.5824 7.64428C 20.5916 7.63722 20.6485 7.60528 20.7463 7.60528L 20.7463 5.60528ZM 19.364 6.05826L -0.289024 21.1561L 0.929389 22.7421L 20.5824 7.64428L 19.364 6.05826ZM -0.289022 21.1561C -0.715178 21.4835 -1 21.9772 -1 22.543C -1 23.1087 -0.715199 23.6024 -0.28912 23.9298L 0.929485 22.344C 0.928654 22.3433 1 22.4071 1 22.543C 1 22.6789 0.928634 22.7427 0.929387 22.7421L -0.289022 21.1561ZM -0.28863 23.9302C 0.126883 24.2491 0.630455 24.3827 1.09321 24.3827L 1.09321 22.3827C 0.996448 22.3827 0.940501 22.3524 0.928995 22.3436L -0.28863 23.9302ZM 1.09321 24.3827C 1.55583 24.3827 2.05988 24.2492 2.47564 23.9296L 1.25684 22.3439C 1.2458 22.3524 1.19011 22.3827 1.09321 22.3827L 1.09321 24.3827ZM 2.47545 23.9298L 21.3555 9.42575L 20.137 7.83973L 1.25703 22.3437L 2.47545 23.9298ZM 20.1371 9.42576L 24.2126 12.5567L 25.4311 10.9707L 21.3555 7.83973L 20.1371 9.42576ZM 24.2126 12.5567C 24.9989 13.1607 26.1909 13.1606 26.9771 12.5568L 25.7589 10.9706C 25.6911 11.0227 25.4987 11.0226 25.4311 10.9707L 24.2126 12.5567ZM 26.9772 12.5567L 38.5577 3.66049L 37.3393 2.07446L 25.7588 10.9707L 26.9772 12.5567ZM 36.9485 2.86747L 36.9485 5.70698L 38.9485 5.70698L 38.9485 2.86747L 36.9485 2.86747ZM 36.9485 5.70698C 36.9485 6.31396 37.2712 6.7956 37.6595 7.09386C 38.0467 7.39131 38.5387 7.54683 39.0417 7.54683L 39.0417 5.54683C 38.9409 5.54683 38.8864 5.51435 38.8779 5.50783C 38.8753 5.50582 38.8916 5.5175 38.9104 5.55159C 38.9306 5.58822 38.9485 5.64255 38.9485 5.70698L 36.9485 5.70698ZM 39.0417 7.54683C 39.5447 7.54683 40.0368 7.39131 40.424 7.09386C 40.8122 6.7956 41.135 6.31396 41.135 5.70698L 39.135 5.70698C 39.135 5.64255 39.1529 5.58822 39.173 5.55159C 39.1918 5.5175 39.2082 5.50582 39.2056 5.50783C 39.1971 5.51435 39.1425 5.54683 39.0417 5.54683L 39.0417 7.54683ZM 41.135 5.70698L 41.135 0.923827L 39.135 0.923827L 39.135 5.70698L 41.135 5.70698ZM 41.135 0.923827C 41.135 0.87428 41.1316 0.834117 41.1305 0.820684C 41.1302 0.816909 41.1299 0.813468 41.1298 0.811988C 41.1296 0.809934 41.1296 0.809935 41.1296 0.81017C 41.1296 0.810693 41.1302 0.817444 41.1308 0.82702L 39.1339 0.939337C 39.1348 0.955716 39.1359 0.969238 39.1365 0.976519C 39.1368 0.980133 39.1371 0.983509 39.1372 0.984831C 39.1374 0.986726 39.1374 0.986658 39.1374 0.986258C 39.1373 0.985463 39.1367 0.978434 39.1362 0.968514C 39.1356 0.958274 39.135 0.942848 39.135 0.923827L 41.135 0.923827Z"/>
<path id="path4_fill" d="M 1.09324 1.67968C 1.69702 1.67968 2.18648 1.30367 2.18648 0.839842C 2.18648 0.37601 1.69702 0 1.09324 0C 0.48946 0 0 0.37601 0 0.839842C 0 1.30367 0.48946 1.67968 1.09324 1.67968Z"/>
<path id="path5_stroke_2x" d="M 1.18648 0.839842C 1.18648 0.775397 1.2044 0.721055 1.22456 0.684438C 1.24333 0.650349 1.2597 0.638668 1.25707 0.640688C 1.24858 0.647208 1.19399 0.679685 1.09324 0.679685L 1.09324 2.67968C 1.59627 2.67968 2.08829 2.52416 2.47548 2.22671C 2.86371 1.92847 3.18648 1.44683 3.18648 0.839842L 1.18648 0.839842ZM 1.09324 0.679685C 0.992489 0.679685 0.937895 0.647209 0.929407 0.640688C 0.926778 0.638668 0.943145 0.650349 0.961913 0.684438C 0.982074 0.721055 1 0.775397 1 0.839842L -1 0.839842C -1 1.44683 -0.677236 1.92847 -0.289002 2.22671C 0.0981838 2.52416 0.59021 2.67968 1.09324 2.67968L 1.09324 0.679685ZM 1 0.839842C 1 0.904287 0.982074 0.958629 0.961913 0.995247C 0.943145 1.02934 0.926778 1.04102 0.929407 1.039C 0.937895 1.03248 0.992489 1 1.09324 1L 1.09324 -1C 0.59021 -1 0.0981841 -0.844471 -0.289002 -0.547029C -0.677236 -0.248782 -1 0.232853 -1 0.839842L 1 0.839842ZM 1.09324 1C 1.19399 1 1.24858 1.03248 1.25707 1.039C 1.2597 1.04102 1.24333 1.02934 1.22456 0.995247C 1.2044 0.958629 1.18648 0.904288 1.18648 0.839842L 3.18648 0.839842C 3.18648 0.232853 2.86371 -0.248782 2.47548 -0.547029C 2.08829 -0.844471 1.59627 -1 1.09324 -1L 1.09324 1Z"/>
</defs>
</svg>
