<svg width="1300" height="410" viewBox="0 0 1300 410" version="1.1" xmlns="http://www.w3.org/2000/svg" xmlns:xlink="http://www.w3.org/1999/xlink">
<title>Group 6</title>
<desc>Created using Figma</desc>
<g id="Canvas" transform="translate(-113 -1252)">
<g id="Group 6">
<g id="Rectangle 4.17" opacity="0.5">
<use xlink:href="#path0_fill" transform="translate(189 1255)" fill="url(#paint0_linear)" fill-opacity="0.33"/>
</g>
<g id="Rectangle 4.18" opacity="0.5">
<use xlink:href="#path0_fill" transform="translate(262 1255)" fill="url(#paint1_linear)" fill-opacity="0.33"/>
</g>
<g id="Rectangle 4.19" opacity="0.5">
<use xlink:href="#path0_fill" transform="translate(335 1255)" fill="url(#paint2_linear)" fill-opacity="0.33"/>
</g>
<g id="Rectangle 4.20" opacity="0.5">
<use xlink:href="#path0_fill" transform="translate(408 1255)" fill="url(#paint3_linear)" fill-opacity="0.33"/>
</g>
<g id="Rectangle 4.21" opacity="0.5">
<use xlink:href="#path0_fill" transform="translate(481 1255)" fill="url(#paint4_linear)" fill-opacity="0.33"/>
</g>
<g id="Rectangle 4.22" opacity="0.5">
<use xlink:href="#path0_fill" transform="translate(554 1255)" fill="url(#paint5_linear)" fill-opacity="0.33"/>
</g>
<g id="Rectangle 4.23" opacity="0.5">
<use xlink:href="#path0_fill" transform="translate(627 1255)" fill="url(#paint6_linear)" fill-opacity="0.33"/>
</g>
<g id="Rectangle 4.24" opacity="0.5">
<use xlink:href="#path0_fill" transform="translate(700 1255)" fill="url(#paint7_linear)" fill-opacity="0.33"/>
</g>
<g id="Rectangle 4.25" opacity="0.5">
<use xlink:href="#path0_fill" transform="translate(773 1255)" fill="url(#paint8_linear)" fill-opacity="0.33"/>
</g>
<g id="Rectangle 4.26" opacity="0.5">
<use xlink:href="#path0_fill" transform="translate(846 1255)" fill="url(#paint9_linear)" fill-opacity="0.33"/>
</g>
<g id="Rectangle 4.27" opacity="0.5">
<use xlink:href="#path0_fill" transform="translate(919 1255)" fill="url(#paint10_linear)" fill-opacity="0.33"/>
</g>
<g id="Rectangle 4.28" opacity="0.5">
<use xlink:href="#path0_fill" transform="translate(992 1255)" fill="url(#paint11_linear)" fill-opacity="0.33"/>
</g>
<g id="Rectangle 4.29" opacity="0.5">
<use xlink:href="#path0_fill" transform="translate(1065 1255)" fill="url(#paint12_linear)" fill-opacity="0.33"/>
</g>
<g id="Rectangle 4.30" opacity="0.5">
<use xlink:href="#path0_fill" transform="translate(1138 1255)" fill="url(#paint13_linear)" fill-opacity="0.33"/>
</g>
<g id="Rectangle 4.31" opacity="0.5">
<use xlink:href="#path0_fill" transform="translate(1211 1255)" fill="url(#paint14_linear)" fill-opacity="0.33"/>
</g>
<g id="Rectangle 4.32" opacity="0.5">
<use xlink:href="#path0_fill" transform="translate(1284 1255)" fill="url(#paint15_linear)" fill-opacity="0.33"/>
</g>
<g id="Rectangle 4.33" opacity="0.5">
<use xlink:href="#path0_fill" transform="translate(1357 1255)" fill="url(#paint16_linear)" fill-opacity="0.33"/>
</g>
<g id="Rectangle 4">
<use xlink:href="#path1_fill" transform="translate(114 1433.05)" fill="#EBF2F9"/>
</g>
<g id="Rectangle 4.15">
<use xlink:href="#path1_fill" transform="translate(114 1252)" fill="#EBF2F9"/>
</g>
<g id="Rectangle 4.16">
<use xlink:href="#path1_fill" transform="translate(114 1627)" fill="#EBF2F9"/>
</g>
<g id="Jan">
<use xlink:href="#path2_fill" transform="translate(167 1643)" fill="#334A52"/>
</g>
<g id="Jan">
<use xlink:href="#path2_fill" transform="translate(297 1643)" fill="#334A52"/>
</g>
<g id="Jan">
<use xlink:href="#path2_fill" transform="translate(427 1643)" fill="#334A52"/>
</g>
<g id="Jan">
<use xlink:href="#path2_fill" transform="translate(557 1643)" fill="#334A52"/>
</g>
<g id="Jan">
<use xlink:href="#path2_fill" transform="translate(687 1643)" fill="#334A52"/>
</g>
<g id="Jan">
<use xlink:href="#path2_fill" transform="translate(817 1643)" fill="#334A52"/>
</g>
<g id="Jan">
<use xlink:href="#path2_fill" transform="translate(947 1643)" fill="#334A52"/>
</g>
<g id="Jan">
<use xlink:href="#path2_fill" transform="translate(1077 1643)" fill="#334A52"/>
</g>
<g id="Jan">
<use xlink:href="#path2_fill" transform="translate(1207 1643)" fill="#334A52"/>
</g>
<g id="Jan">
<use xlink:href="#path2_fill" transform="translate(1337 1643)" fill="#334A52"/>
</g>
<g id="Rectangle 4" opacity="0.5">
<use xlink:href="#path3_fill" transform="translate(114 1252)" fill="#EBF2F9"/>
</g>
<g id="Rectangle 4.1" opacity="0.5">
<use xlink:href="#path3_fill" transform="translate(618 1254)" fill="#EBF2F9"/>
</g>
<g id="Rectangle 4.2" opacity="0.5">
<use xlink:href="#path3_fill" transform="translate(1131 1252)" fill="#EBF2F9"/>
</g>
<g id="Vector 2">
<use xlink:href="#path4_stroke" transform="translate(114 1374.5)" fill="#5AC5B4"/>
</g>
<g id="Ellipse 3">
<use xlink:href="#path5_fill" transform="translate(291 1383)" fill="#FFFFFF"/>
<mask id="mask0_outline_ins">
<use xlink:href="#path5_fill" fill="white" transform="translate(291 1383)"/>
</mask>
<g mask="url(#mask0_outline_ins)">
<use xlink:href="#path6_stroke_2x" transform="translate(291 1383)" fill="#5AC5B4"/>
</g>
</g>
<g id="Ellipse 3.1">
<use xlink:href="#path5_fill" transform="translate(447 1455)" fill="#FFFFFF"/>
<mask id="mask1_outline_ins">
<use xlink:href="#path5_fill" fill="white" transform="translate(447 1455)"/>
</mask>
<g mask="url(#mask1_outline_ins)">
<use xlink:href="#path6_stroke_2x" transform="translate(447 1455)" fill="#5AC5B4"/>
</g>
</g>
<g id="Ellipse 3.2">
<use xlink:href="#path5_fill" transform="translate(713 1362)" fill="#FFFFFF"/>
<mask id="mask2_outline_ins">
<use xlink:href="#path5_fill" fill="white" transform="translate(713 1362)"/>
</mask>
<g mask="url(#mask2_outline_ins)">
<use xlink:href="#path6_stroke_2x" transform="translate(713 1362)" fill="#5AC5B4"/>
</g>
</g>
<g id="Ellipse 3.3">
<use xlink:href="#path5_fill" transform="translate(885 1498)" fill="#FFFFFF"/>
<mask id="mask3_outline_ins">
<use xlink:href="#path5_fill" fill="white" transform="translate(885 1498)"/>
</mask>
<g mask="url(#mask3_outline_ins)">
<use xlink:href="#path6_stroke_2x" transform="translate(885 1498)" fill="#5AC5B4"/>
</g>
</g>
<g id="Ellipse 3.4">
<use xlink:href="#path5_fill" transform="translate(1159 1383)" fill="#FFFFFF"/>
<mask id="mask4_outline_ins">
<use xlink:href="#path5_fill" fill="white" transform="translate(1159 1383)"/>
</mask>
<g mask="url(#mask4_outline_ins)">
<use xlink:href="#path6_stroke_2x" transform="translate(1159 1383)" fill="#5AC5B4"/>
</g>
</g>
<g id="Ellipse 3.5">
<use xlink:href="#path5_fill" transform="translate(1315 1455)" fill="#FFFFFF"/>
<mask id="mask5_outline_ins">
<use xlink:href="#path5_fill" fill="white" transform="translate(1315 1455)"/>
</mask>
<g mask="url(#mask5_outline_ins)">
<use xlink:href="#path6_stroke_2x" transform="translate(1315 1455)" fill="#5AC5B4"/>
</g>
</g>
</g>
</g>
<defs>
<linearGradient id="paint0_linear" x1="0" y1="0" x2="1" y2="0" gradientUnits="userSpaceOnUse" gradientTransform="matrix(3.12285e-15 375 -51 2.29621e-14 51 -2.29621e-14)">
<stop offset="0.61326" stop-color="#76D3C8" stop-opacity="0"/>
<stop offset="1" stop-color="#76D3C8"/>
</linearGradient>
<linearGradient id="paint1_linear" x1="0" y1="0" x2="1" y2="0" gradientUnits="userSpaceOnUse" gradientTransform="matrix(3.12285e-15 375 -51 2.29621e-14 51 -2.29621e-14)">
<stop offset="0.61326" stop-color="#76D3C8" stop-opacity="0"/>
<stop offset="1" stop-color="#76D3C8"/>
</linearGradient>
<linearGradient id="paint2_linear" x1="0" y1="0" x2="1" y2="0" gradientUnits="userSpaceOnUse" gradientTransform="matrix(3.12285e-15 375 -51 2.29621e-14 51 -2.29621e-14)">
<stop offset="0.61326" stop-color="#76D3C8" stop-opacity="0"/>
<stop offset="1" stop-color="#76D3C8"/>
</linearGradient>
<linearGradient id="paint3_linear" x1="0" y1="0" x2="1" y2="0" gradientUnits="userSpaceOnUse" gradientTransform="matrix(3.12285e-15 375 -51 2.29621e-14 51 -2.29621e-14)">
<stop offset="0.61326" stop-color="#76D3C8" stop-opacity="0"/>
<stop offset="1" stop-color="#76D3C8"/>
</linearGradient>
<linearGradient id="paint4_linear" x1="0" y1="0" x2="1" y2="0" gradientUnits="userSpaceOnUse" gradientTransform="matrix(3.12285e-15 375 -51 2.29621e-14 51 -2.29621e-14)">
<stop offset="0.61326" stop-color="#76D3C8" stop-opacity="0"/>
<stop offset="1" stop-color="#76D3C8"/>
</linearGradient>
<linearGradient id="paint5_linear" x1="0" y1="0" x2="1" y2="0" gradientUnits="userSpaceOnUse" gradientTransform="matrix(3.12285e-15 375 -51 2.29621e-14 51 -2.29621e-14)">
<stop offset="0.61326" stop-color="#76D3C8" stop-opacity="0"/>
<stop offset="1" stop-color="#76D3C8"/>
</linearGradient>
<linearGradient id="paint6_linear" x1="0" y1="0" x2="1" y2="0" gradientUnits="userSpaceOnUse" gradientTransform="matrix(3.12285e-15 375 -51 2.29621e-14 51 -2.29621e-14)">
<stop offset="0.61326" stop-color="#76D3C8" stop-opacity="0"/>
<stop offset="1" stop-color="#76D3C8"/>
</linearGradient>
<linearGradient id="paint7_linear" x1="0" y1="0" x2="1" y2="0" gradientUnits="userSpaceOnUse" gradientTransform="matrix(3.12285e-15 375 -51 2.29621e-14 51 -2.29621e-14)">
<stop offset="0.61326" stop-color="#76D3C8" stop-opacity="0"/>
<stop offset="1" stop-color="#76D3C8"/>
</linearGradient>
<linearGradient id="paint8_linear" x1="0" y1="0" x2="1" y2="0" gradientUnits="userSpaceOnUse" gradientTransform="matrix(3.12285e-15 375 -51 2.29621e-14 51 -2.29621e-14)">
<stop offset="0.61326" stop-color="#76D3C8" stop-opacity="0"/>
<stop offset="1" stop-color="#76D3C8"/>
</linearGradient>
<linearGradient id="paint9_linear" x1="0" y1="0" x2="1" y2="0" gradientUnits="userSpaceOnUse" gradientTransform="matrix(3.12285e-15 375 -51 2.29621e-14 51 -2.29621e-14)">
<stop offset="0.61326" stop-color="#76D3C8" stop-opacity="0"/>
<stop offset="1" stop-color="#76D3C8"/>
</linearGradient>
<linearGradient id="paint10_linear" x1="0" y1="0" x2="1" y2="0" gradientUnits="userSpaceOnUse" gradientTransform="matrix(3.12285e-15 375 -51 2.29621e-14 51 -2.29621e-14)">
<stop offset="0.61326" stop-color="#76D3C8" stop-opacity="0"/>
<stop offset="1" stop-color="#76D3C8"/>
</linearGradient>
<linearGradient id="paint11_linear" x1="0" y1="0" x2="1" y2="0" gradientUnits="userSpaceOnUse" gradientTransform="matrix(3.12285e-15 375 -51 2.29621e-14 51 -2.29621e-14)">
<stop offset="0.61326" stop-color="#76D3C8" stop-opacity="0"/>
<stop offset="1" stop-color="#76D3C8"/>
</linearGradient>
<linearGradient id="paint12_linear" x1="0" y1="0" x2="1" y2="0" gradientUnits="userSpaceOnUse" gradientTransform="matrix(3.12285e-15 375 -51 2.29621e-14 51 -2.29621e-14)">
<stop offset="0.61326" stop-color="#76D3C8" stop-opacity="0"/>
<stop offset="1" stop-color="#76D3C8"/>
</linearGradient>
<linearGradient id="paint13_linear" x1="0" y1="0" x2="1" y2="0" gradientUnits="userSpaceOnUse" gradientTransform="matrix(3.12285e-15 375 -51 2.29621e-14 51 -2.29621e-14)">
<stop offset="0.61326" stop-color="#76D3C8" stop-opacity="0"/>
<stop offset="1" stop-color="#76D3C8"/>
</linearGradient>
<linearGradient id="paint14_linear" x1="0" y1="0" x2="1" y2="0" gradientUnits="userSpaceOnUse" gradientTransform="matrix(3.12285e-15 375 -51 2.29621e-14 51 -2.29621e-14)">
<stop offset="0.61326" stop-color="#76D3C8" stop-opacity="0"/>
<stop offset="1" stop-color="#76D3C8"/>
</linearGradient>
<linearGradient id="paint15_linear" x1="0" y1="0" x2="1" y2="0" gradientUnits="userSpaceOnUse" gradientTransform="matrix(3.12285e-15 375 -51 2.29621e-14 51 -2.29621e-14)">
<stop offset="0.61326" stop-color="#76D3C8" stop-opacity="0"/>
<stop offset="1" stop-color="#76D3C8"/>
</linearGradient>
<linearGradient id="paint16_linear" x1="0" y1="0" x2="1" y2="0" gradientUnits="userSpaceOnUse" gradientTransform="matrix(3.12285e-15 375 -51 2.29621e-14 51 -2.29621e-14)">
<stop offset="0.61326" stop-color="#76D3C8" stop-opacity="0"/>
<stop offset="1" stop-color="#76D3C8"/>
</linearGradient>
<path id="path0_fill" d="M 0 6C 0 2.68629 2.68629 0 6 0L 45 0C 48.3137 0 51 2.68629 51 6L 51 369C 51 372.314 48.3137 375 45 375L 6 375C 2.68629 375 0 372.314 0 369L 0 6Z"/>
<path id="path1_fill" d="M 0 1.32477C 0 0.593118 0.593118 0 1.32477 0L 1297.68 0C 1298.41 0 1299 0.593118 1299 1.32477C 1299 2.05641 1298.41 2.64953 1297.68 2.64953L 1.32477 2.64953C 0.593118 2.64953 0 2.05641 0 1.32477Z"/>
<path id="path2_fill" d="M 6.093 13.545C 6.093 14.265 6.003 14.91 5.823 15.48C 5.649 16.05 5.388 16.533 5.04 16.929C 4.698 17.319 4.275 17.619 3.771 17.829C 3.267 18.039 2.688 18.144 2.034 18.144C 1.44 18.144 0.834 18.06 0.216 17.892C 0.228 17.718 0.243 17.547 0.261 17.379C 0.279 17.205 0.294 17.034 0.306 16.866C 0.318 16.764 0.354 16.683 0.414 16.623C 0.48 16.557 0.579 16.524 0.711 16.524C 0.819 16.524 0.96 16.551 1.134 16.605C 1.314 16.659 1.554 16.686 1.854 16.686C 2.25 16.686 2.604 16.626 2.916 16.506C 3.228 16.386 3.489 16.2 3.699 15.948C 3.909 15.696 4.068 15.375 4.176 14.985C 4.29 14.589 4.347 14.121 4.347 13.581L 4.347 5.103L 6.093 5.103L 6.093 13.545ZM 13.4698 13.896C 12.7318 13.92 12.1018 13.98 11.5798 14.076C 11.0638 14.166 10.6408 14.286 10.3108 14.436C 9.98677 14.586 9.74977 14.763 9.59977 14.967C 9.45577 15.171 9.38377 15.399 9.38377 15.651C 9.38377 15.891 9.42277 16.098 9.50077 16.272C 9.57877 16.446 9.68377 16.59 9.81577 16.704C 9.95377 16.812 10.1128 16.893 10.2928 16.947C 10.4788 16.995 10.6768 17.019 10.8868 17.019C 11.1688 17.019 11.4268 16.992 11.6608 16.938C 11.8948 16.878 12.1138 16.794 12.3178 16.686C 12.5278 16.578 12.7258 16.449 12.9118 16.299C 13.1038 16.149 13.2898 15.978 13.4698 15.786L 13.4698 13.896ZM 8.29477 10.17C 8.79877 9.684 9.34177 9.321 9.92377 9.081C 10.5058 8.841 11.1508 8.721 11.8588 8.721C 12.3688 8.721 12.8218 8.805 13.2178 8.973C 13.6138 9.141 13.9468 9.375 14.2168 9.675C 14.4868 9.975 14.6908 10.338 14.8288 10.764C 14.9668 11.19 15.0358 11.658 15.0358 12.168L 15.0358 18L 14.3248 18C 14.1688 18 14.0488 17.976 13.9648 17.928C 13.8808 17.874 13.8148 17.772 13.7668 17.622L 13.5868 16.758C 13.3468 16.98 13.1128 17.178 12.8848 17.352C 12.6568 17.52 12.4168 17.664 12.1648 17.784C 11.9128 17.898 11.6428 17.985 11.3548 18.045C 11.0728 18.111 10.7578 18.144 10.4098 18.144C 10.0558 18.144 9.72277 18.096 9.41077 18C 9.09877 17.898 8.82577 17.748 8.59177 17.55C 8.36377 17.352 8.18077 17.103 8.04277 16.803C 7.91077 16.497 7.84477 16.137 7.84477 15.723C 7.84477 15.363 7.94377 15.018 8.14177 14.688C 8.33977 14.352 8.66077 14.055 9.10477 13.797C 9.54877 13.539 10.1278 13.329 10.8418 13.167C 11.5558 12.999 12.4318 12.903 13.4698 12.879L 13.4698 12.168C 13.4698 11.46 13.3168 10.926 13.0108 10.566C 12.7048 10.2 12.2578 10.017 11.6698 10.017C 11.2738 10.017 10.9408 10.068 10.6708 10.17C 10.4068 10.266 10.1758 10.377 9.97777 10.503C 9.78577 10.623 9.61777 10.734 9.47377 10.836C 9.33577 10.932 9.19777 10.98 9.05977 10.98C 8.95177 10.98 8.85877 10.953 8.78077 10.899C 8.70277 10.839 8.63677 10.767 8.58277 10.683L 8.29477 10.17ZM 18.988 10.206C 19.186 9.984 19.396 9.783 19.618 9.603C 19.84 9.423 20.074 9.27 20.32 9.144C 20.572 9.012 20.836 8.913 21.112 8.847C 21.394 8.775 21.697 8.739 22.021 8.739C 22.519 8.739 22.957 8.823 23.335 8.991C 23.719 9.153 24.037 9.387 24.289 9.693C 24.547 9.993 24.742 10.356 24.874 10.782C 25.006 11.208 25.072 11.679 25.072 12.195L 25.072 18L 23.461 18L 23.461 12.195C 23.461 11.505 23.302 10.971 22.984 10.593C 22.672 10.209 22.195 10.017 21.553 10.017C 21.079 10.017 20.635 10.131 20.221 10.359C 19.813 10.587 19.435 10.896 19.087 11.286L 19.087 18L 17.476 18L 17.476 8.883L 18.439 8.883C 18.667 8.883 18.808 8.994 18.862 9.216L 18.988 10.206Z"/>
<path id="path3_fill" d="M 0 6C 0 2.68629 2.68629 0 6 0L 140 0C 143.314 0 146 2.68629 146 6L 146 369.35C 146 372.664 143.314 375.35 140 375.35L 6 375.35C 2.68629 375.35 0 372.664 0 369.35L 0 6Z"/>
<path id="path4_stroke" d="M 1052.54 22.5623L 1051.94 21.1848L 1052.54 22.5623ZM 1057.43 22.6297L 1058.07 21.269L 1057.43 22.6297ZM 784.198 134.813L 783.275 135.995L 784.198 134.813ZM 790.265 135.593L 790.858 136.971L 790.265 135.593ZM 614.118 2.04372L 613.195 3.22612L 614.118 2.04372ZM 346.246 94.4445L 345.61 95.8029L 346.246 94.4445ZM 350.839 94.6506L 350.327 93.2407L 350.839 94.6506ZM 188.107 22.4295L 188.65 23.8277L 188.107 22.4295ZM 192.825 22.5887L 192.188 23.9471L 192.825 22.5887ZM 0.543138 96.8982L 188.65 23.8277L 187.564 21.0313L -0.543138 94.1018L 0.543138 96.8982ZM 192.188 23.9471L 345.61 95.8029L 346.883 93.0861L 193.461 21.2304L 192.188 23.9471ZM 351.351 96.0606L 608.89 2.54353L 607.866 -0.276322L 350.327 93.2407L 351.351 96.0606ZM 613.195 3.22612L 783.275 135.995L 785.121 133.63L 615.041 0.86133L 613.195 3.22612ZM 790.858 136.971L 1053.13 23.9399L 1051.94 21.1848L 789.671 134.216L 790.858 136.971ZM 1056.8 23.9903L 1213.87 96.8607L 1215.13 94.1393L 1058.07 21.269L 1056.8 23.9903ZM 1053.13 23.9399C 1054.31 23.4329 1055.64 23.4513 1056.8 23.9903L 1058.07 21.269C 1056.13 20.3705 1053.9 20.3399 1051.94 21.1848L 1053.13 23.9399ZM 783.275 135.995C 785.435 137.681 788.342 138.055 790.858 136.971L 789.671 134.216C 788.161 134.866 786.417 134.642 785.121 133.63L 783.275 135.995ZM 608.89 2.54353C 610.347 2.01454 611.973 2.27244 613.195 3.22612L 615.041 0.86133C 613.005 -0.728138 610.294 -1.15796 607.866 -0.276322L 608.89 2.54353ZM 345.61 95.8029C 347.414 96.6476 349.479 96.7403 351.351 96.0606L 350.327 93.2407C 349.204 93.6485 347.965 93.5929 346.883 93.0861L 345.61 95.8029ZM 188.65 23.8277C 189.797 23.3825 191.075 23.4256 192.188 23.9471L 193.461 21.2304C 191.605 20.3612 189.474 20.2892 187.564 21.0313L 188.65 23.8277Z"/>
<path id="path5_fill" d="M 26 13C 26 20.1797 20.1797 26 13 26C 5.8203 26 0 20.1797 0 13C 0 5.8203 5.8203 0 13 0C 20.1797 0 26 5.8203 26 13Z"/>
<path id="path6_stroke_2x" d="M 23 13C 23 18.5228 18.5228 23 13 23L 13 29C 21.8366 29 29 21.8366 29 13L 23 13ZM 13 23C 7.47715 23 3 18.5228 3 13L -3 13C -3 21.8366 4.16344 29 13 29L 13 23ZM 3 13C 3 7.47715 7.47715 3 13 3L 13 -3C 4.16344 -3 -3 4.16344 -3 13L 3 13ZM 13 3C 18.5228 3 23 7.47715 23 13L 29 13C 29 4.16344 21.8366 -3 13 -3L 13 3Z"/>
</defs>
</svg>
