<?xml version="1.0" encoding="iso-8859-1"?>
<!-- Generator: Adobe Illustrator 19.0.0, SVG Export Plug-In . SVG Version: 6.00 Build 0)  -->
<svg xmlns="http://www.w3.org/2000/svg" xmlns:xlink="http://www.w3.org/1999/xlink" version="1.1" id="Capa_1" x="0px" y="0px" viewBox="0 0 479.294 479.294" style="enable-background:new 0 0 479.294 479.294;" xml:space="preserve" width="512px" height="512px">
<g>
	<g>
		<path d="M427.324,91.024l-1.392,1.112l48.752-59.848c6.906-8.467,5.641-20.929-2.826-27.836c-3.479-2.838-7.82-4.408-12.31-4.452    c-4.73-0.021-9.304,1.686-12.864,4.8l-57.072,48.272C286.486-29.749,135.747-13.289,52.926,89.837S-13.435,343.701,89.69,426.523    s253.865,66.361,336.686-36.764C496.371,302.604,496.764,178.621,427.324,91.024z M457.132,16.936    c1.611-1.268,3.945-0.99,5.213,0.621c0.514,0.653,0.794,1.46,0.795,2.291c0.007,0.84-0.275,1.656-0.8,2.312L323.268,192.8    l-33.976-33.976L457.132,16.936z M262.82,181.216l14.208-12l36.08,36.08l-12.928,15.848c-0.683-1.882-1.463-3.727-2.336-5.528    C290.311,200.58,277.989,188.478,262.82,181.216z M281.924,263.832c-5.141,8.644-13.388,14.999-23.056,17.768    c-21.963,6.238-44.966,7.939-67.608,5c5.992-7.212,11.133-15.091,15.32-23.48c5.617-11.27,8.547-23.688,8.56-36.28    c0.029-11.788,5.574-22.883,14.984-29.984c6.35-4.737,14.703-5.839,22.064-2.912c13.621,5.436,24.772,15.685,31.336,28.8    C290.086,235.805,289.481,251.321,281.924,263.832z M239.14,464c-123.712,0.017-224.014-100.258-224.031-223.97    C15.093,116.319,115.367,16.017,239.079,16c50.054-0.007,98.668,16.751,138.085,47.6L243.796,176.352    c-8.386-0.008-16.55,2.698-23.272,7.712c-13.43,10.126-21.343,25.956-21.384,42.776c-0.006,10.121-2.358,20.102-6.872,29.16    c-5.103,10.198-11.815,19.506-19.88,27.568l-2.904,2.912c-3.123,3.126-3.12,8.191,0.005,11.314c1.177,1.176,2.69,1.955,4.331,2.23    l9.104,1.52c9.897,1.643,19.912,2.464,29.944,2.456c17.044,0.01,34.007-2.351,50.4-7.016    c13.577-3.855,25.169-12.749,32.408-24.864c5.467-9.158,8.325-19.638,8.264-30.304l112.704-138.288    c30.282,39.034,46.648,87.069,46.496,136.472C462.999,363.653,362.793,463.859,239.14,464z" fill="#3A4A52"/>
	</g>
</g>
<g>
	<g>
		<path d="M127.14,80c-26.51,0-48,21.49-48,48c0.026,26.499,21.501,47.974,48,48c26.51,0,48-21.49,48-48S153.65,80,127.14,80z     M127.14,160c-17.673,0-32-14.327-32-32s14.327-32,32-32s32,14.327,32,32S144.813,160,127.14,160z" fill="#3A4A52"/>
	</g>
</g>
<g>
	<g>
		<path d="M79.14,192c-26.51,0-48,21.49-48,48c0,26.51,21.49,48,48,48c26.499-0.026,47.974-21.501,48-48    C127.14,213.49,105.65,192,79.14,192z M79.14,272c-17.673,0-32-14.327-32-32s14.327-32,32-32s32,14.327,32,32    S96.813,272,79.14,272z" fill="#3A4A52"/>
	</g>
</g>
<g>
	<g>
		<path d="M127.14,304c-26.51,0-48,21.49-48,48c0,26.51,21.49,48,48,48c26.51,0,48-21.49,48-48    C175.114,325.501,153.639,304.027,127.14,304z M127.14,384c-17.673,0-32-14.327-32-32c0-17.673,14.327-32,32-32s32,14.327,32,32    C159.14,369.673,144.813,384,127.14,384z" fill="#3A4A52"/>
	</g>
</g>
<g>
	<g>
		<path d="M239.14,352c-26.51,0-48,21.49-48,48c0,26.51,21.49,48,48,48c26.51,0,48-21.49,48-48    C287.113,373.501,265.639,352.027,239.14,352z M239.14,432c-17.673,0-32-14.327-32-32c0-17.673,14.327-32,32-32    c17.673,0,32,14.327,32,32C271.14,417.673,256.813,432,239.14,432z" fill="#3A4A52"/>
	</g>
</g>
<g>
	<g>
		<path d="M239.14,32c-26.51,0-48,21.49-48,48c0.026,26.499,21.501,47.974,48,48c26.51,0,48-21.49,48-48S265.65,32,239.14,32z     M239.14,112c-17.673,0-32-14.327-32-32s14.327-32,32-32c17.673,0,32,14.327,32,32S256.813,112,239.14,112z" fill="#3A4A52"/>
	</g>
</g>
<g>
	<g>
		<path d="M351.14,304c-26.51,0-48,21.49-48,48c0,26.51,21.49,48,48,48c26.51,0,48-21.49,48-48    C399.113,325.501,377.639,304.027,351.14,304z M351.14,384c-17.673,0-32-14.327-32-32c0-17.673,14.327-32,32-32    c17.673,0,32,14.327,32,32C383.14,369.673,368.813,384,351.14,384z" fill="#3A4A52"/>
	</g>
</g>
<g>
</g>
<g>
</g>
<g>
</g>
<g>
</g>
<g>
</g>
<g>
</g>
<g>
</g>
<g>
</g>
<g>
</g>
<g>
</g>
<g>
</g>
<g>
</g>
<g>
</g>
<g>
</g>
<g>
</g>
</svg>
